AtkinsonHyperlegibleNext-ExtraLightItalic.sfdir
StartChar: exclam
Encoding: 33 33 263
Width: 262
GlyphClass: 1
Flags: W
LayerCount: 2
Fore
SplineSet
156 497 m 1,0,-1
 192 668 l 1,1,-1
 248 668 l 1,2,-1
 212 497 l 1,3,-1
 130 171 l 1,4,-1
 99 171 l 1,5,-1
 156 497 l 1,0,-1
52 2 m 128,-1,7
 38 16 38 16 38 36 c 256,8,9
 38 56 38 56 52 70 c 128,-1,10
 66 84 66 84 86 84 c 256,11,12
 106 84 106 84 120 70 c 128,-1,13
 134 56 134 56 134 36 c 256,14,15
 134 16 134 16 120 2 c 128,-1,16
 106 -12 106 -12 86 -12 c 256,17,6
 66 -12 66 -12 52 2 c 128,-1,7
EndSplineSet
EndChar
StartChar: quotedbl
Encoding: 34 34 293
Width: 246
GlyphClass: 1
Flags: W
LayerCount: 2
Fore
SplineSet
246 668 m 1,0,-1
 295 668 l 1,1,-1
 235 454 l 1,2,-1
 214 454 l 1,3,-1
 246 668 l 1,0,-1
129 668 m 1,4,-1
 178 668 l 1,5,-1
 118 454 l 1,6,-1
 97 454 l 1,7,-1
 129 668 l 1,4,-1
EndSplineSet
EndChar
StartChar: numbersign
Encoding: 35 35 270
Width: 574
GlyphClass: 1
Flags: W
LayerCount: 2
Fore
SplineSet
148 197 m 1,0,-1
 28 197 l 1,1,-1
 44 241 l 1,2,-1
 163 241 l 1,3,-1
 228 427 l 1,4,-1
 108 427 l 1,5,-1
 125 471 l 1,6,-1
 244 471 l 1,7,-1
 312 668 l 1,8,-1
 363 668 l 1,9,-1
 294 471 l 1,10,-1
 419 471 l 1,11,-1
 487 668 l 1,12,-1
 537 668 l 1,13,-1
 469 471 l 1,14,-1
 582 471 l 1,15,-1
 566 427 l 1,16,-1
 452 427 l 1,17,-1
 388 241 l 1,18,-1
 503 241 l 1,19,-1
 487 197 l 1,20,-1
 371 197 l 1,21,-1
 303 0 l 1,22,-1
 252 0 l 1,23,-1
 321 197 l 1,24,-1
 196 197 l 1,25,-1
 128 0 l 1,26,-1
 77 0 l 1,27,-1
 148 197 l 1,0,-1
338 241 m 1,28,-1
 401 427 l 1,29,-1
 278 427 l 1,30,-1
 214 241 l 1,31,-1
 338 241 l 1,28,-1
EndSplineSet
EndChar
StartChar: dollar
Encoding: 36 36 313
Width: 581
GlyphClass: 1
Flags: W
LayerCount: 2
Fore
SplineSet
93 45 m 128,-1,1
 44 84 44 84 32 143 c 1,2,-1
 88 163 l 1,3,4
 97 115 97 115 132.5 84 c 128,-1,5
 168 53 168 53 219 41 c 1,6,-1
 281 331 l 1,7,-1
 250 343 l 2,8,9
 190 365 190 365 152.5 399 c 128,-1,10
 115 433 115 433 115 489 c 0,11,12
 115 541 115 541 143.5 584.5 c 128,-1,13
 172 628 172 628 226.5 654 c 128,-1,14
 281 680 281 680 354 680 c 1,15,-1
 371 758 l 1,16,-1
 410 758 l 1,17,-1
 393 677 l 1,18,19
 452 669 452 669 497.5 639.5 c 128,-1,20
 543 610 543 610 564 561 c 1,21,-1
 507 541 l 1,22,23
 493 576 493 576 459.5 598.5 c 128,-1,24
 426 621 426 621 382 629 c 1,25,-1
 328 373 l 1,26,-1
 363 360 l 2,27,28
 440 330 440 330 481 294.5 c 128,-1,29
 522 259 522 259 522 197 c 0,30,31
 522 136 522 136 487.5 87.5 c 128,-1,32
 453 39 453 39 390.5 12.5 c 128,-1,33
 328 -14 328 -14 247 -11 c 1,34,-1
 230 -90 l 1,35,-1
 191 -90 l 1,36,-1
 209 -7 l 1,37,0
 142 6 142 6 93 45 c 128,-1,1
369 55.5 m 128,-1,39
 416 76 416 76 440.5 111.5 c 128,-1,40
 465 147 465 147 465 190 c 0,41,42
 465 227 465 227 436 255.5 c 128,-1,43
 407 284 407 284 338 310 c 2,44,-1
 317 318 l 1,45,-1
 256 36 l 1,46,38
 322 35 322 35 369 55.5 c 128,-1,39
259.5 615.5 m 128,-1,48
 220 599 220 599 196.5 568.5 c 128,-1,49
 173 538 173 538 173 499 c 0,50,51
 173 463 173 463 200.5 437 c 128,-1,52
 228 411 228 411 273 394 c 2,53,-1
 292 386 l 1,54,-1
 345 632 l 1,55,47
 299 632 299 632 259.5 615.5 c 128,-1,48
EndSplineSet
EndChar
StartChar: percent
Encoding: 37 37 341
Width: 919
GlyphClass: 1
Flags: W
LayerCount: 2
Fore
SplineSet
751 668 m 1,0,-1
 818 668 l 1,1,-1
 203 0 l 1,2,-1
 137 0 l 1,3,-1
 751 668 l 1,0,-1
185 356 m 128,-1,5
 145 379 145 379 121.5 419 c 128,-1,6
 98 459 98 459 98 506 c 0,7,8
 98 554 98 554 121.5 594 c 128,-1,9
 145 634 145 634 185 657 c 128,-1,10
 225 680 225 680 272 680 c 256,11,12
 319 680 319 680 359.5 656.5 c 128,-1,13
 400 633 400 633 423.5 593.5 c 128,-1,14
 447 554 447 554 447 506 c 0,15,16
 447 459 447 459 423.5 419 c 128,-1,17
 400 379 400 379 359.5 356 c 128,-1,18
 319 333 319 333 272 333 c 256,19,4
 225 333 225 333 185 356 c 128,-1,5
359.5 420 m 128,-1,21
 395 456 395 456 395 506 c 0,22,23
 395 557 395 557 359.5 593 c 128,-1,24
 324 629 324 629 272 629 c 0,25,26
 221 629 221 629 185 593 c 128,-1,27
 149 557 149 557 149 506 c 0,28,29
 149 456 149 456 185 420 c 128,-1,30
 221 384 221 384 272 384 c 0,31,20
 324 384 324 384 359.5 420 c 128,-1,21
596 11 m 128,-1,33
 556 34 556 34 532.5 74 c 128,-1,34
 509 114 509 114 509 162 c 0,35,36
 509 209 509 209 532.5 249 c 128,-1,37
 556 289 556 289 596 312 c 128,-1,38
 636 335 636 335 684 335 c 0,39,40
 731 335 731 335 771 312 c 128,-1,41
 811 289 811 289 834.5 249 c 128,-1,42
 858 209 858 209 858 162 c 0,43,44
 858 114 858 114 834.5 74 c 128,-1,45
 811 34 811 34 771 11 c 128,-1,46
 731 -12 731 -12 684 -12 c 0,47,32
 636 -12 636 -12 596 11 c 128,-1,33
771 75 m 128,-1,49
 807 111 807 111 807 162 c 0,50,51
 807 212 807 212 771 248 c 128,-1,52
 735 284 735 284 684 284 c 256,53,54
 633 284 633 284 597 248.5 c 128,-1,55
 561 213 561 213 561 162 c 256,56,57
 561 111 561 111 596.5 75 c 128,-1,58
 632 39 632 39 684 39 c 0,59,48
 735 39 735 39 771 75 c 128,-1,49
EndSplineSet
EndChar
StartChar: ampersand
Encoding: 38 38 298
Width: 732
GlyphClass: 1
Flags: W
LayerCount: 2
Fore
SplineSet
109 33 m 128,-1,1
 48 77 48 77 48 156 c 0,2,3
 48 247 48 247 115.5 304 c 128,-1,4
 183 361 183 361 292 390 c 1,5,6
 234 469 234 469 234 528 c 0,7,8
 234 572 234 572 258.5 607 c 128,-1,9
 283 642 283 642 323.5 661.5 c 128,-1,10
 364 681 364 681 410 681 c 0,11,12
 475 681 475 681 520.5 646 c 128,-1,13
 566 611 566 611 566 553 c 0,14,15
 566 484 566 484 513 439 c 128,-1,16
 460 394 460 394 377 370 c 1,17,-1
 518 186 l 1,18,19
 555 254 555 254 571 341 c 1,20,-1
 626 341 l 1,21,22
 609 221 609 221 553 141 c 1,23,-1
 662 0 l 1,24,-1
 591 0 l 1,25,-1
 517 96 l 1,26,27
 469 44 469 44 405 16.5 c 128,-1,28
 341 -11 341 -11 266 -11 c 0,29,0
 170 -11 170 -11 109 33 c 128,-1,1
390.5 63.5 m 128,-1,31
 445 89 445 89 485 139 c 1,32,-1
 319 355 l 1,33,34
 221 325 221 325 163 281.5 c 128,-1,35
 105 238 105 238 105 165 c 0,36,37
 105 105 105 105 153 71.5 c 128,-1,38
 201 38 201 38 271 38 c 0,39,30
 336 38 336 38 390.5 63.5 c 128,-1,31
464 458 m 128,-1,41
 510 493 510 493 510 548 c 0,42,43
 510 587 510 587 481.5 610 c 128,-1,44
 453 633 453 633 409 633 c 0,45,46
 357 633 357 633 324 604.5 c 128,-1,47
 291 576 291 576 291 529 c 0,48,49
 291 500 291 500 305.5 472 c 128,-1,50
 320 444 320 444 350 405 c 1,51,40
 418 423 418 423 464 458 c 128,-1,41
EndSplineSet
EndChar
StartChar: parenleft
Encoding: 40 40 277
Width: 276
GlyphClass: 1
Flags: W
LayerCount: 2
Fore
SplineSet
59 119 m 0,1,2
 59 277 59 277 117 425.5 c 128,-1,3
 175 574 175 574 291 708 c 1,4,-1
 352 708 l 1,5,6
 233 578 233 578 172.5 426 c 128,-1,7
 112 274 112 274 112 120 c 0,8,9
 112 -29 112 -29 163 -162 c 1,10,-1
 109 -162 l 1,11,0
 59 -33 59 -33 59 119 c 0,1,2
EndSplineSet
EndChar
StartChar: parenright
Encoding: 41 41 278
Width: 277
GlyphClass: 1
Flags: W
LayerCount: 2
Fore
SplineSet
114.5 121 m 128,-1,1
 175 273 175 273 175 427 c 0,2,3
 175 576 175 576 124 709 c 1,4,-1
 179 709 l 1,5,6
 229 580 229 580 229 428 c 0,7,8
 229 270 229 270 171 121.5 c 128,-1,9
 113 -27 113 -27 -3 -161 c 1,10,-1
 -65 -161 l 1,11,0
 54 -31 54 -31 114.5 121 c 128,-1,1
EndSplineSet
EndChar
StartChar: asterisk
Encoding: 42 42 269
Width: 476
GlyphClass: 1
Flags: W
LayerCount: 2
Fore
SplineSet
156 402 m 1,0,-1
 254 499 l 1,1,-1
 139 550 l 1,2,-1
 162 591 l 1,3,-1
 277 537 l 1,4,-1
 305 668 l 1,5,-1
 349 668 l 1,6,-1
 320 534 l 1,7,-1
 453 561 l 1,8,-1
 458 516 l 1,9,-1
 323 492 l 1,10,-1
 378 377 l 1,11,-1
 340 356 l 1,12,-1
 284 469 l 1,13,-1
 186 370 l 1,14,-1
 156 402 l 1,0,-1
EndSplineSet
EndChar
StartChar: plus
Encoding: 43 43 320
Width: 606
GlyphClass: 1
Flags: W
LayerCount: 2
Fore
SplineSet
272 222 m 1,0,-1
 50 222 l 1,1,-1
 60 274 l 1,2,-1
 282 274 l 1,3,-1
 330 496 l 1,4,-1
 382 496 l 1,5,-1
 334 274 l 1,6,-1
 556 274 l 1,7,-1
 546 222 l 1,8,-1
 324 222 l 1,9,-1
 276 0 l 1,10,-1
 224 0 l 1,11,-1
 272 222 l 1,0,-1
EndSplineSet
EndChar
StartChar: comma
Encoding: 44 44 259
Width: 172
GlyphClass: 1
Flags: W
LayerCount: 2
Fore
SplineSet
-7 36 m 0,1,2
 -7 55 -7 55 7 69.5 c 128,-1,3
 21 84 21 84 40 84 c 0,4,5
 62 84 62 84 75.5 70 c 128,-1,6
 89 56 89 56 89 37 c 0,7,8
 89 22 89 22 78 3 c 2,9,-1
 -1 -126 l 1,10,-1
 -40 -126 l 1,11,-1
 29 -12 l 1,12,0
 -7 1 -7 1 -7 36 c 0,1,2
EndSplineSet
EndChar
StartChar: hyphen
Encoding: 45 45 273
Width: 354
GlyphClass: 1
Flags: W
LayerCount: 2
Fore
SplineSet
46 277 m 1,0,-1
 321 277 l 1,1,-1
 309 220 l 1,2,-1
 34 220 l 1,3,-1
 46 277 l 1,0,-1
EndSplineSet
EndChar
StartChar: period
Encoding: 46 46 258
Width: 172
GlyphClass: 1
Flags: W
LayerCount: 2
Fore
SplineSet
7 2 m 128,-1,1
 -7 16 -7 16 -7 36 c 256,2,3
 -7 56 -7 56 7 70 c 128,-1,4
 21 84 21 84 41 84 c 256,5,6
 61 84 61 84 75 70 c 128,-1,7
 89 56 89 56 89 36 c 256,8,9
 89 16 89 16 75 2 c 128,-1,10
 61 -12 61 -12 41 -12 c 256,11,0
 21 -12 21 -12 7 2 c 128,-1,1
EndSplineSet
EndChar
StartChar: zero
Encoding: 48 48 229
Width: 633
GlyphClass: 1
Flags: W
LayerCount: 2
Fore
SplineSet
126 55 m 128,-1,1
 73 123 73 123 73 236 c 0,2,3
 73 334 73 334 106.5 437.5 c 128,-1,4
 140 541 140 541 210 612 c 128,-1,5
 280 683 280 683 383 683 c 0,6,7
 491 683 491 683 544.5 615 c 128,-1,8
 598 547 598 547 598 434 c 0,9,10
 598 336 598 336 564.5 232.5 c 128,-1,11
 531 129 531 129 461 58 c 128,-1,12
 391 -13 391 -13 287 -13 c 0,13,0
 179 -13 179 -13 126 55 c 128,-1,1
424 93 m 1,15,-1
 217 542 l 1,16,17
 172 481 172 481 149.5 395.5 c 128,-1,18
 127 310 127 310 127 234 c 0,19,20
 127 144 127 144 166 90.5 c 128,-1,21
 205 37 205 37 289 37 c 0,22,14
 366 37 366 37 424 93 c 1,15,-1
521 276 m 128,-1,24
 543 361 543 361 543 436 c 0,25,26
 543 526 543 526 504 579.5 c 128,-1,27
 465 633 465 633 381 633 c 0,28,29
 305 633 305 633 247 578 c 1,30,-1
 456 130 l 1,31,23
 499 191 499 191 521 276 c 128,-1,24
EndSplineSet
Substitution2: "'tnum' Tabular Numbers in Latin lookup 10 subtable" zero.tf
AlternateSubs2: "'aalt' Access All Alternates in Latin lookup 0 subtable" zero.tf
EndChar
StartChar: one
Encoding: 49 49 230
Width: 392
GlyphClass: 5
Flags: W
LayerCount: 2
Fore
SplineSet
277 532 m 1,0,-1
 96 532 l 1,1,-1
 104 572 l 1,2,-1
 137 572 l 2,3,4
 198 572 198 572 230.5 580 c 128,-1,5
 263 588 263 588 283 607.5 c 128,-1,6
 303 627 303 627 325 668 c 1,7,-1
 362 668 l 1,8,-1
 220 0 l 1,9,-1
 164 0 l 1,10,-1
 277 532 l 1,0,-1
EndSplineSet
Substitution2: "'tnum' Tabular Numbers in Latin lookup 10 subtable" one.tf
Substitution2: "'sups' Superscript in Latin lookup 6 subtable" uni00B9
AlternateSubs2: "'aalt' Access All Alternates in Latin lookup 0 subtable" uni00B9 one.tf
EndChar
StartChar: two
Encoding: 50 50 231
Width: 537
GlyphClass: 5
Flags: W
LayerCount: 2
Fore
SplineSet
64 93 m 2,0,1
 188 175 188 175 267.5 235 c 128,-1,2
 347 295 347 295 406.5 368 c 128,-1,3
 466 441 466 441 466 513 c 0,4,5
 466 565 466 565 430 598 c 128,-1,6
 394 631 394 631 335 631 c 0,7,8
 280 631 280 631 233.5 600.5 c 128,-1,9
 187 570 187 570 165 504 c 1,10,-1
 108 522 l 1,11,12
 137 599 137 599 196.5 639.5 c 128,-1,13
 256 680 256 680 335 680 c 0,14,15
 419 680 419 680 472 636.5 c 128,-1,16
 525 593 525 593 525 520 c 0,17,18
 525 434 525 434 461 352 c 128,-1,19
 397 270 397 270 316.5 209.5 c 128,-1,20
 236 149 236 149 129 80 c 2,21,-1
 88 54 l 1,22,-1
 456 54 l 1,23,-1
 445 0 l 1,24,-1
 -11 0 l 1,25,-1
 0 51 l 1,26,-1
 64 93 l 2,0,1
EndSplineSet
Substitution2: "'tnum' Tabular Numbers in Latin lookup 10 subtable" two.tf
Substitution2: "'sups' Superscript in Latin lookup 6 subtable" uni00B2
AlternateSubs2: "'aalt' Access All Alternates in Latin lookup 0 subtable" uni00B2 two.tf
EndChar
StartChar: three
Encoding: 51 51 232
Width: 561
GlyphClass: 5
Flags: W
LayerCount: 2
Fore
SplineSet
94.5 32.5 m 128,-1,1
 37 77 37 77 34 158 c 1,2,-1
 89 167 l 1,3,4
 95 102 95 102 138 69.5 c 128,-1,5
 181 37 181 37 246 37 c 0,6,7
 297 37 297 37 338.5 57 c 128,-1,8
 380 77 380 77 404 114 c 128,-1,9
 428 151 428 151 428 199 c 0,10,11
 428 244 428 244 403 273.5 c 128,-1,12
 378 303 378 303 341 317 c 128,-1,13
 304 331 304 331 267 331 c 2,14,-1
 252 331 l 1,15,-1
 263 381 l 1,16,-1
 317 381 l 2,17,18
 366 381 366 381 401 401 c 128,-1,19
 436 421 436 421 454 453.5 c 128,-1,20
 472 486 472 486 472 522 c 0,21,22
 472 572 472 572 433.5 601.5 c 128,-1,23
 395 631 395 631 338 631 c 0,24,25
 280 631 280 631 232 598 c 128,-1,26
 184 565 184 565 165 506 c 1,27,-1
 110 521 l 1,28,29
 141 599 141 599 202 639.5 c 128,-1,30
 263 680 263 680 341 680 c 0,31,32
 422 680 422 680 475 639.5 c 128,-1,33
 528 599 528 599 528 530 c 0,34,35
 528 489 528 489 510.5 449.5 c 128,-1,36
 493 410 493 410 458 382.5 c 128,-1,37
 423 355 423 355 373 349 c 1,38,39
 426 335 426 335 455.5 293.5 c 128,-1,40
 485 252 485 252 485 199 c 0,41,42
 485 138 485 138 453 90 c 128,-1,43
 421 42 421 42 366 15 c 128,-1,44
 311 -12 311 -12 244 -12 c 0,45,0
 152 -12 152 -12 94.5 32.5 c 128,-1,1
EndSplineSet
Substitution2: "'tnum' Tabular Numbers in Latin lookup 10 subtable" three.tf
Substitution2: "'sups' Superscript in Latin lookup 6 subtable" uni00B3
AlternateSubs2: "'aalt' Access All Alternates in Latin lookup 0 subtable" uni00B3 three.tf
EndChar
StartChar: four
Encoding: 52 52 233
Width: 592
GlyphClass: 5
Flags: W
LayerCount: 2
Fore
SplineSet
361 177 m 1,0,-1
 27 177 l 1,1,-1
 40 240 l 1,2,-1
 459 668 l 1,3,-1
 521 668 l 1,4,-1
 428 229 l 1,5,-1
 546 229 l 1,6,-1
 535 177 l 1,7,-1
 417 177 l 1,8,-1
 379 0 l 1,9,-1
 324 0 l 1,10,-1
 361 177 l 1,0,-1
372 229 m 1,11,-1
 449 590 l 1,12,-1
 96 229 l 1,13,-1
 372 229 l 1,11,-1
EndSplineSet
Substitution2: "'tnum' Tabular Numbers in Latin lookup 10 subtable" four.tf
AlternateSubs2: "'aalt' Access All Alternates in Latin lookup 0 subtable" four.tf
EndChar
StartChar: five
Encoding: 53 53 234
Width: 571
GlyphClass: 1
Flags: W
LayerCount: 2
Fore
SplineSet
103.5 36 m 128,-1,1
 55 84 55 84 50 158 c 1,2,-1
 106 170 l 1,3,4
 108 109 108 109 145 73 c 128,-1,5
 182 37 182 37 253 37 c 0,6,7
 315 37 315 37 359 70 c 128,-1,8
 403 103 403 103 424.5 153 c 128,-1,9
 446 203 446 203 446 254 c 0,10,11
 446 323 446 323 407.5 361 c 128,-1,12
 369 399 369 399 311 399 c 0,13,14
 261 399 261 399 219 372.5 c 128,-1,15
 177 346 177 346 156 318 c 1,16,-1
 106 332 l 1,17,-1
 218 668 l 1,18,-1
 567 668 l 1,19,-1
 556 614 l 1,20,-1
 252 614 l 1,21,-1
 174 382 l 1,22,23
 236 448 236 448 323 448 c 0,24,25
 403 448 403 448 452.5 397.5 c 128,-1,26
 502 347 502 347 502 261 c 0,27,28
 502 187 502 187 471.5 124.5 c 128,-1,29
 441 62 441 62 383.5 25 c 128,-1,30
 326 -12 326 -12 250 -12 c 0,31,0
 152 -12 152 -12 103.5 36 c 128,-1,1
EndSplineSet
Substitution2: "'tnum' Tabular Numbers in Latin lookup 10 subtable" five.tf
AlternateSubs2: "'aalt' Access All Alternates in Latin lookup 0 subtable" five.tf
EndChar
StartChar: six
Encoding: 54 54 235
Width: 583
GlyphClass: 1
Flags: W
LayerCount: 2
Fore
SplineSet
121.5 45.5 m 128,-1,1
 72 103 72 103 72 204 c 0,2,3
 72 295 72 295 106 407 c 128,-1,4
 140 519 140 519 210 599.5 c 128,-1,5
 280 680 280 680 382 680 c 0,6,7
 443 680 443 680 490 651.5 c 128,-1,8
 537 623 537 623 554 571 c 1,9,-1
 500 551 l 1,10,11
 489 588 489 588 456 609.5 c 128,-1,12
 423 631 423 631 380 631 c 0,13,14
 293 631 293 631 231 543.5 c 128,-1,15
 169 456 169 456 141 338 c 1,16,17
 172 388 172 388 222.5 412.5 c 128,-1,18
 273 437 273 437 327 437 c 0,19,20
 414 437 414 437 465.5 384.5 c 128,-1,21
 517 332 517 332 517 247 c 0,22,23
 517 178 517 178 485 118.5 c 128,-1,24
 453 59 453 59 396 23.5 c 128,-1,25
 339 -12 339 -12 268 -12 c 0,26,0
 171 -12 171 -12 121.5 45.5 c 128,-1,1
373.5 67 m 128,-1,28
 415 96 415 96 437.5 142.5 c 128,-1,29
 460 189 460 189 460 241 c 0,30,31
 460 307 460 307 420.5 347.5 c 128,-1,32
 381 388 381 388 315 388 c 0,33,34
 258 388 258 388 215 359 c 128,-1,35
 172 330 172 330 149 283 c 128,-1,36
 126 236 126 236 126 183 c 0,37,38
 126 117 126 117 167 77.5 c 128,-1,39
 208 38 208 38 276 38 c 0,40,27
 332 38 332 38 373.5 67 c 128,-1,28
EndSplineSet
Substitution2: "'tnum' Tabular Numbers in Latin lookup 10 subtable" six.tf
AlternateSubs2: "'aalt' Access All Alternates in Latin lookup 0 subtable" six.tf
EndChar
StartChar: seven
Encoding: 55 55 236
Width: 493
GlyphClass: 1
Flags: W
LayerCount: 2
Fore
SplineSet
473 614 m 1,0,-1
 97 614 l 1,1,-1
 109 668 l 1,2,-1
 546 668 l 1,3,-1
 535 614 l 1,4,-1
 121 0 l 1,5,-1
 53 0 l 1,6,-1
 473 614 l 1,0,-1
EndSplineSet
Substitution2: "'tnum' Tabular Numbers in Latin lookup 10 subtable" seven.tf
AlternateSubs2: "'aalt' Access All Alternates in Latin lookup 0 subtable" seven.tf
EndChar
StartChar: eight
Encoding: 56 56 237
Width: 610
GlyphClass: 1
Flags: W
LayerCount: 2
Fore
SplineSet
169.5 11 m 128,-1,1
 118 33 118 33 87.5 74 c 128,-1,2
 57 115 57 115 57 169 c 0,3,4
 57 244 57 244 106 299 c 128,-1,5
 155 354 155 354 233 373 c 1,6,7
 209 394 209 394 196 424 c 128,-1,8
 183 454 183 454 183 489 c 0,9,10
 183 540 183 540 209.5 585 c 128,-1,11
 236 630 236 630 281 656.5 c 128,-1,12
 326 683 326 683 378 683 c 0,13,14
 425 683 425 683 461 662 c 128,-1,15
 497 641 497 641 517 605 c 128,-1,16
 537 569 537 569 537 526 c 0,17,18
 537 472 537 472 506.5 425.5 c 128,-1,19
 476 379 476 379 426 354 c 1,20,21
 473 331 473 331 500 291 c 128,-1,22
 527 251 527 251 527 201 c 0,23,24
 527 139 527 139 493.5 90.5 c 128,-1,25
 460 42 460 42 404 15.5 c 128,-1,26
 348 -11 348 -11 283 -11 c 0,27,0
 221 -11 221 -11 169.5 11 c 128,-1,1
376.5 58 m 128,-1,29
 419 78 419 78 444.5 114 c 128,-1,30
 470 150 470 150 470 197 c 0,31,32
 470 257 470 257 421.5 294.5 c 128,-1,33
 373 332 373 332 300 332 c 0,34,35
 251 332 251 332 208.5 312.5 c 128,-1,36
 166 293 166 293 140.5 256.5 c 128,-1,37
 115 220 115 220 115 173 c 0,38,39
 115 111 115 111 164 74.5 c 128,-1,40
 213 38 213 38 284 38 c 0,41,28
 334 38 334 38 376.5 58 c 128,-1,29
414 401 m 128,-1,43
 447 420 447 420 466.5 451.5 c 128,-1,44
 486 483 486 483 486 520 c 0,45,46
 486 567 486 567 454.5 599 c 128,-1,47
 423 631 423 631 374 631 c 0,48,49
 338 631 338 631 306 612.5 c 128,-1,50
 274 594 274 594 254 562 c 128,-1,51
 234 530 234 530 234 493 c 0,52,53
 234 446 234 446 264.5 414 c 128,-1,54
 295 382 295 382 345 382 c 0,55,42
 381 382 381 382 414 401 c 128,-1,43
EndSplineSet
Substitution2: "'tnum' Tabular Numbers in Latin lookup 10 subtable" eight.tf
AlternateSubs2: "'aalt' Access All Alternates in Latin lookup 0 subtable" eight.tf
EndChar
StartChar: nine
Encoding: 57 57 238
Width: 610
GlyphClass: 1
Flags: W
LayerCount: 2
Fore
SplineSet
316 208 m 0,1,2
 261 208 261 208 212 234.5 c 128,-1,3
 163 261 163 261 133 308.5 c 128,-1,4
 103 356 103 356 103 417 c 0,5,6
 103 486 103 486 138 547.5 c 128,-1,7
 173 609 173 609 233.5 646 c 128,-1,8
 294 683 294 683 366 683 c 0,9,10
 429 683 429 683 478 654.5 c 128,-1,11
 527 626 527 626 554 577.5 c 128,-1,12
 581 529 581 529 581 471 c 256,13,14
 581 413 581 413 555.5 362 c 128,-1,15
 530 311 530 311 476 249 c 2,16,-1
 256 0 l 1,17,-1
 184 0 l 1,18,-1
 383 219 l 1,19,0
 353 208 353 208 316 208 c 0,1,2
422.5 291.5 m 128,-1,21
 469 319 469 319 497 365 c 128,-1,22
 525 411 525 411 525 465 c 0,23,24
 525 510 525 510 504.5 547 c 128,-1,25
 484 584 484 584 447 606 c 128,-1,26
 410 628 410 628 363 628 c 0,27,28
 311 628 311 628 264 600.5 c 128,-1,29
 217 573 217 573 188 526 c 128,-1,30
 159 479 159 479 159 424 c 0,31,32
 159 378 159 378 180.5 341.5 c 128,-1,33
 202 305 202 305 239.5 284.5 c 128,-1,34
 277 264 277 264 323 264 c 0,35,20
 376 264 376 264 422.5 291.5 c 128,-1,21
EndSplineSet
Substitution2: "'tnum' Tabular Numbers in Latin lookup 10 subtable" nine.tf
AlternateSubs2: "'aalt' Access All Alternates in Latin lookup 0 subtable" nine.tf
EndChar
StartChar: less
Encoding: 60 60 327
Width: 543
GlyphClass: 1
Flags: W
LayerCount: 2
Fore
SplineSet
35 223 m 1,0,-1
 45 273 l 1,1,-1
 554 487 l 1,2,-1
 539 422 l 1,3,-1
 112 244 l 1,4,-1
 464 67 l 1,5,-1
 452 9 l 1,6,-1
 35 223 l 1,0,-1
EndSplineSet
EndChar
StartChar: equal
Encoding: 61 61 324
Width: 628
GlyphClass: 1
Flags: W
LayerCount: 2
Fore
SplineSet
91 366 m 1,0,-1
 586 366 l 1,1,-1
 576 315 l 1,2,-1
 81 315 l 1,3,-1
 91 366 l 1,0,-1
53 186 m 1,4,-1
 548 186 l 1,5,-1
 538 134 l 1,6,-1
 43 134 l 1,7,-1
 53 186 l 1,4,-1
EndSplineSet
EndChar
StartChar: greater
Encoding: 62 62 326
Width: 543
GlyphClass: 1
Flags: W
LayerCount: 2
Fore
SplineSet
3 73 m 1,0,-1
 430 250 l 1,1,-1
 79 428 l 1,2,-1
 91 487 l 1,3,-1
 508 273 l 1,4,-1
 498 222 l 1,5,-1
 -11 9 l 1,6,-1
 3 73 l 1,0,-1
EndSplineSet
EndChar
StartChar: question
Encoding: 63 63 265
Width: 439
GlyphClass: 1
Flags: W
LayerCount: 2
Fore
SplineSet
202 291.5 m 128,-1,1
 227 323 227 323 286 359 c 0,2,3
 350 398 350 398 386 437.5 c 128,-1,4
 422 477 422 477 422 528 c 0,5,6
 422 575 422 575 387.5 604 c 128,-1,7
 353 633 353 633 298 633 c 0,8,9
 241 633 241 633 198 598.5 c 128,-1,10
 155 564 155 564 143 509 c 1,11,-1
 88 519 l 1,12,13
 109 596 109 596 168 639 c 128,-1,14
 227 682 227 682 302 682 c 256,15,16
 377 682 377 682 427.5 641.5 c 128,-1,17
 478 601 478 601 478 534 c 0,18,19
 478 485 478 485 457.5 447.5 c 128,-1,20
 437 410 437 410 402 380.5 c 128,-1,21
 367 351 367 351 309 313 c 0,22,23
 262 283 262 283 245.5 263 c 128,-1,24
 229 243 229 243 221 207 c 2,25,-1
 211 164 l 1,26,-1
 155 164 l 1,27,-1
 164 203 l 2,28,0
 177 260 177 260 202 291.5 c 128,-1,1
122 2 m 128,-1,30
 108 16 108 16 108 36 c 256,31,32
 108 56 108 56 122 70 c 128,-1,33
 136 84 136 84 156 84 c 256,34,35
 176 84 176 84 190 70 c 128,-1,36
 204 56 204 56 204 36 c 256,37,38
 204 16 204 16 190 2 c 128,-1,39
 176 -12 176 -12 156 -12 c 256,40,29
 136 -12 136 -12 122 2 c 128,-1,30
EndSplineSet
EndChar
StartChar: at
Encoding: 64 64 297
Width: 763
GlyphClass: 1
Flags: W
LayerCount: 2
Fore
SplineSet
196 -54 m 128,-1,1
 125 -15 125 -15 84.5 55 c 128,-1,2
 44 125 44 125 44 213 c 0,3,4
 44 317 44 317 95.5 406.5 c 128,-1,5
 147 496 147 496 234.5 548.5 c 128,-1,6
 322 601 322 601 425 601 c 0,7,8
 511 601 511 601 580.5 565.5 c 128,-1,9
 650 530 650 530 690 466.5 c 128,-1,10
 730 403 730 403 730 323 c 0,11,12
 730 271 730 271 710 214 c 128,-1,13
 690 157 690 157 649.5 117.5 c 128,-1,14
 609 78 609 78 552 78 c 0,15,16
 518 78 518 78 493.5 96 c 128,-1,17
 469 114 469 114 461 139 c 1,18,19
 432 105 432 105 400.5 90 c 128,-1,20
 369 75 369 75 333 75 c 0,21,22
 276 75 276 75 243 113.5 c 128,-1,23
 210 152 210 152 210 211 c 0,24,25
 210 267 210 267 235.5 320 c 128,-1,26
 261 373 261 373 308.5 406.5 c 128,-1,27
 356 440 356 440 419 440 c 0,28,29
 480 440 480 440 552 405 c 1,30,-1
 508 194 l 2,31,32
 506 182 506 182 506 175 c 0,33,34
 506 153 506 153 519 138.5 c 128,-1,35
 532 124 532 124 561 124 c 0,36,37
 600 124 600 124 627.5 156.5 c 128,-1,38
 655 189 655 189 669 234 c 128,-1,39
 683 279 683 279 683 315 c 0,40,41
 683 380 683 380 649.5 435 c 128,-1,42
 616 490 616 490 556.5 522 c 128,-1,43
 497 554 497 554 424 554 c 0,44,45
 331 554 331 554 255 508 c 128,-1,46
 179 462 179 462 135.5 383.5 c 128,-1,47
 92 305 92 305 92 213 c 0,48,49
 92 136 92 136 127 77 c 128,-1,50
 162 18 162 18 222 -14 c 128,-1,51
 282 -46 282 -46 354 -46 c 0,52,53
 381 -46 381 -46 412 -40 c 128,-1,54
 443 -34 443 -34 468 -24 c 1,55,-1
 457 -77 l 1,56,57
 407 -93 407 -93 354 -93 c 0,58,0
 267 -93 267 -93 196 -54 c 128,-1,1
417 148 m 128,-1,60
 451 177 451 177 460 219 c 2,61,-1
 493 376 l 1,62,63
 481 382 481 382 461.5 387.5 c 128,-1,64
 442 393 442 393 421 393 c 0,65,66
 373 393 373 393 337 368 c 128,-1,67
 301 343 301 343 281.5 302 c 128,-1,68
 262 261 262 261 262 217 c 0,69,70
 262 175 262 175 284 147 c 128,-1,71
 306 119 306 119 343 119 c 0,72,59
 383 119 383 119 417 148 c 128,-1,60
EndSplineSet
EndChar
StartChar: A
Encoding: 65 65 2
Width: 586
GlyphClass: 2
Flags: W
AnchorPoint: "Anchor-2" 525 10 basechar 0
AnchorPoint: "Anchor-1" 382 668 basechar 0
AnchorPoint: "Anchor-0" 240 0 basechar 0
LayerCount: 2
Fore
SplineSet
352 668 m 1,0,-1
 414 668 l 1,1,-1
 523 0 l 1,2,-1
 466 0 l 1,3,-1
 440 167 l 1,4,-1
 116 167 l 1,5,-1
 19 0 l 1,6,-1
 -43 0 l 1,7,-1
 352 668 l 1,0,-1
433 217 m 1,8,-1
 373 611 l 1,9,-1
 144 217 l 1,10,-1
 433 217 l 1,8,-1
EndSplineSet
Substitution2: "Single Substitution lookup 15 subtable" ordfeminine
AlternateSubs2: "'aalt' Access All Alternates in Latin lookup 0 subtable" ordfeminine
EndChar
StartChar: B
Encoding: 66 66 13
Width: 587
GlyphClass: 2
Flags: W
AnchorPoint: "Anchor-1" 381 668 basechar 0
AnchorPoint: "Anchor-0" 239 0 basechar 0
LayerCount: 2
Fore
SplineSet
171 668 m 1,0,-1
 379 668 l 2,1,2
 478 668 478 668 525.5 625.5 c 128,-1,3
 573 583 573 583 573 518 c 0,4,5
 573 460 573 460 543 410.5 c 128,-1,6
 513 361 513 361 455 340 c 1,7,8
 497 318 497 318 517 282.5 c 128,-1,9
 537 247 537 247 537 206 c 0,10,11
 537 152 537 152 512 104.5 c 128,-1,12
 487 57 487 57 437.5 28.5 c 128,-1,13
 388 0 388 0 317 0 c 2,14,-1
 29 0 l 1,15,-1
 171 668 l 1,0,-1
434.5 94.5 m 128,-1,17
 478 139 478 139 478 205 c 0,18,19
 478 257 478 257 439 289 c 128,-1,20
 400 321 400 321 328 321 c 2,21,-1
 155 321 l 1,22,-1
 97 50 l 1,23,-1
 315 50 l 2,24,16
 391 50 391 50 434.5 94.5 c 128,-1,17
479 410.5 m 128,-1,26
 514 450 514 450 514 509 c 0,27,28
 514 557 514 557 480.5 587.5 c 128,-1,29
 447 618 447 618 375 618 c 2,30,-1
 219 618 l 1,31,-1
 165 371 l 1,32,-1
 378 371 l 2,33,25
 444 371 444 371 479 410.5 c 128,-1,26
EndSplineSet
EndChar
StartChar: C
Encoding: 67 67 14
Width: 633
GlyphClass: 2
Flags: W
AnchorPoint: "Anchor-1" 426 668 basechar 0
AnchorPoint: "Anchor-0" 318 0 basechar 0
LayerCount: 2
Fore
SplineSet
176 24 m 128,-1,1
 117 60 117 60 87 123 c 128,-1,2
 57 186 57 186 57 267 c 0,3,4
 57 365 57 365 98 460.5 c 128,-1,5
 139 556 139 556 218.5 618 c 128,-1,6
 298 680 298 680 406 680 c 0,7,8
 488 680 488 680 548.5 640.5 c 128,-1,9
 609 601 609 601 632 528 c 1,10,-1
 580 509 l 1,11,12
 561 567 561 567 514 598.5 c 128,-1,13
 467 630 467 630 402 630 c 0,14,15
 310 630 310 630 245 574 c 128,-1,16
 180 518 180 518 148 434.5 c 128,-1,17
 116 351 116 351 116 270 c 0,18,19
 116 167 116 167 169.5 102.5 c 128,-1,20
 223 38 223 38 322 38 c 0,21,22
 384 38 384 38 432 65.5 c 128,-1,23
 480 93 480 93 520 153 c 1,24,-1
 571 132 l 1,25,26
 485 -12 485 -12 318 -12 c 0,27,0
 235 -12 235 -12 176 24 c 128,-1,1
EndSplineSet
EndChar
StartChar: D
Encoding: 68 68 19
Width: 642
GlyphClass: 2
Flags: W
AnchorPoint: "Anchor-1" 422 668 basechar 0
AnchorPoint: "Anchor-0" 271 0 basechar 0
LayerCount: 2
Fore
SplineSet
171 668 m 1,0,-1
 276 668 l 2,1,2
 441 668 441 668 530 601 c 128,-1,3
 619 534 619 534 619 402 c 0,4,5
 619 300 619 300 582.5 208.5 c 128,-1,6
 546 117 546 117 466 58.5 c 128,-1,7
 386 0 386 0 263 0 c 2,8,-1
 29 0 l 1,9,-1
 171 668 l 1,0,-1
433.5 101.5 m 128,-1,11
 500 153 500 153 529.5 232 c 128,-1,12
 559 311 559 311 559 399 c 0,13,14
 559 618 559 618 270 618 c 2,15,-1
 219 618 l 1,16,-1
 97 50 l 1,17,-1
 262 50 l 2,18,10
 367 50 367 50 433.5 101.5 c 128,-1,11
EndSplineSet
EndChar
StartChar: E
Encoding: 69 69 23
Width: 544
GlyphClass: 2
Flags: W
AnchorPoint: "Anchor-2" 453 10 basechar 0
AnchorPoint: "Anchor-1" 382 668 basechar 0
AnchorPoint: "Anchor-0" 218 0 basechar 0
LayerCount: 2
Fore
SplineSet
171 668 m 1,0,-1
 589 668 l 1,1,-1
 578 618 l 1,2,-1
 219 618 l 1,3,-1
 165 369 l 1,4,-1
 458 369 l 1,5,-1
 447 319 l 1,6,-1
 155 319 l 1,7,-1
 97 50 l 1,8,-1
 461 50 l 1,9,-1
 451 0 l 1,10,-1
 29 0 l 1,11,-1
 171 668 l 1,0,-1
EndSplineSet
EndChar
StartChar: F
Encoding: 70 70 32
Width: 536
GlyphClass: 2
Flags: W
AnchorPoint: "Anchor-1" 354 668 basechar 0
AnchorPoint: "Anchor-0" 212 0 basechar 0
LayerCount: 2
Fore
SplineSet
171 668 m 1,0,-1
 582 668 l 1,1,-1
 572 618 l 1,2,-1
 219 618 l 1,3,-1
 165 369 l 1,4,-1
 514 369 l 1,5,-1
 504 319 l 1,6,-1
 155 319 l 1,7,-1
 87 0 l 1,8,-1
 29 0 l 1,9,-1
 171 668 l 1,0,-1
EndSplineSet
EndChar
StartChar: G
Encoding: 71 71 33
Width: 671
GlyphClass: 2
Flags: W
AnchorPoint: "Anchor-1" 424 668 basechar 0
AnchorPoint: "Anchor-0" 286 0 basechar 0
LayerCount: 2
Fore
SplineSet
169.5 22.5 m 128,-1,1
 114 57 114 57 85 119 c 128,-1,2
 56 181 56 181 56 260 c 0,3,4
 56 358 56 358 95.5 455 c 128,-1,5
 135 552 135 552 213.5 616 c 128,-1,6
 292 680 292 680 404 680 c 0,7,8
 489 680 489 680 551 638.5 c 128,-1,9
 613 597 613 597 638 522 c 1,10,-1
 583 503 l 1,11,12
 565 566 565 566 515.5 598 c 128,-1,13
 466 630 466 630 401 630 c 0,14,15
 307 630 307 630 242 572 c 128,-1,16
 177 514 177 514 146 429 c 128,-1,17
 115 344 115 344 115 264 c 0,18,19
 115 163 115 163 166 100.5 c 128,-1,20
 217 38 217 38 309 38 c 0,21,22
 355 38 355 38 405 57 c 128,-1,23
 455 76 455 76 496.5 124.5 c 128,-1,24
 538 173 538 173 554 253 c 2,25,-1
 559 278 l 1,26,-1
 341 278 l 1,27,-1
 353 328 l 1,28,-1
 625 328 l 1,29,-1
 555 0 l 1,30,-1
 514 0 l 1,31,-1
 520 89 l 1,32,33
 475 36 475 36 418 12 c 128,-1,34
 361 -12 361 -12 302 -12 c 0,35,0
 225 -12 225 -12 169.5 22.5 c 128,-1,1
EndSplineSet
EndChar
StartChar: H
Encoding: 72 72 37
Width: 668
GlyphClass: 2
Flags: W
AnchorPoint: "Anchor-1" 422 668 basechar 0
AnchorPoint: "Anchor-0" 280 0 basechar 0
LayerCount: 2
Fore
SplineSet
171 668 m 1,0,-1
 229 668 l 1,1,-1
 165 370 l 1,2,-1
 553 370 l 1,3,-1
 617 668 l 1,4,-1
 675 668 l 1,5,-1
 533 0 l 1,6,-1
 475 0 l 1,7,-1
 542 320 l 1,8,-1
 155 320 l 1,9,-1
 87 0 l 1,10,-1
 29 0 l 1,11,-1
 171 668 l 1,0,-1
EndSplineSet
EndChar
StartChar: I
Encoding: 73 73 39
Width: 360
GlyphClass: 2
Flags: W
AnchorPoint: "Anchor-2" 252 10 basechar 0
AnchorPoint: "Anchor-1" 269 668 basechar 0
AnchorPoint: "Anchor-0" 128 0 basechar 0
LayerCount: 2
Fore
SplineSet
13 44 m 1,0,-1
 107 44 l 1,1,-1
 231 624 l 1,2,-1
 137 624 l 1,3,-1
 146 668 l 1,4,-1
 392 668 l 1,5,-1
 383 624 l 1,6,-1
 289 624 l 1,7,-1
 165 44 l 1,8,-1
 259 44 l 1,9,-1
 250 0 l 1,10,-1
 4 0 l 1,11,-1
 13 44 l 1,0,-1
EndSplineSet
EndChar
StartChar: J
Encoding: 74 74 48
Width: 474
GlyphClass: 2
Flags: W
AnchorPoint: "Anchor-1" 452 668 basechar 0
AnchorPoint: "Anchor-0" 190 0 basechar 0
LayerCount: 2
Fore
SplineSet
47.5 30 m 128,-1,1
 2 72 2 72 2 147 c 0,2,3
 2 172 2 172 6 195 c 1,4,-1
 63 206 l 1,5,6
 57 179 57 179 57 156 c 0,7,8
 57 101 57 101 88 69.5 c 128,-1,9
 119 38 119 38 175 38 c 0,10,11
 234 38 234 38 269 74 c 128,-1,12
 304 110 304 110 318 173 c 2,13,-1
 423 668 l 1,14,-1
 482 668 l 1,15,-1
 374 165 l 2,16,17
 356 80 356 80 305 34 c 128,-1,18
 254 -12 254 -12 175 -12 c 0,19,0
 93 -12 93 -12 47.5 30 c 128,-1,1
EndSplineSet
Substitution2: "Single Substitution lookup 14 subtable" uni004A0301
AlternateSubs2: "'aalt' Access All Alternates in Latin lookup 0 subtable" uni004A0301
EndChar
StartChar: K
Encoding: 75 75 50
Width: 602
GlyphClass: 2
Flags: W
AnchorPoint: "Anchor-1" 380 668 basechar 0
AnchorPoint: "Anchor-0" 238 0 basechar 0
LayerCount: 2
Fore
SplineSet
171 668 m 1,0,-1
 229 668 l 1,1,-1
 149 294 l 1,2,-1
 556 668 l 1,3,-1
 639 668 l 1,4,-1
 325 387 l 1,5,-1
 533 0 l 1,6,-1
 467 0 l 1,7,-1
 282 349 l 1,8,-1
 133 213 l 1,9,-1
 87 0 l 1,10,-1
 29 0 l 1,11,-1
 171 668 l 1,0,-1
EndSplineSet
EndChar
StartChar: L
Encoding: 76 76 52
Width: 523
GlyphClass: 2
Flags: W
AnchorPoint: "Anchor-3" 261 459 basechar 0
AnchorPoint: "Anchor-1" 345 668 basechar 0
AnchorPoint: "Anchor-0" 203 0 basechar 0
LayerCount: 2
Fore
SplineSet
171 668 m 1,0,-1
 229 668 l 1,1,-1
 97 50 l 1,2,-1
 475 50 l 1,3,-1
 465 0 l 1,4,-1
 29 0 l 1,5,-1
 171 668 l 1,0,-1
EndSplineSet
EndChar
StartChar: M
Encoding: 77 77 56
Width: 777
GlyphClass: 2
Flags: W
AnchorPoint: "Anchor-1" 477 668 basechar 0
AnchorPoint: "Anchor-0" 335 0 basechar 0
LayerCount: 2
Fore
SplineSet
171 668 m 1,0,-1
 268 668 l 1,1,-1
 348 67 l 1,2,-1
 681 668 l 1,3,-1
 784 668 l 1,4,-1
 642 0 l 1,5,-1
 584 0 l 1,6,-1
 716 618 l 1,7,-1
 366 0 l 1,8,-1
 307 0 l 1,9,-1
 218 618 l 1,10,-1
 87 0 l 1,11,-1
 29 0 l 1,12,-1
 171 668 l 1,0,-1
EndSplineSet
EndChar
StartChar: O
Encoding: 79 79 62
Width: 683
GlyphClass: 2
Flags: W
AnchorPoint: "Anchor-3" 767 668 basechar 0
AnchorPoint: "Anchor-2" 576 10 basechar 0
AnchorPoint: "Anchor-1" 423 668 basechar 0
AnchorPoint: "Anchor-0" 291 0 basechar 0
LayerCount: 2
Fore
SplineSet
178.5 23.5 m 128,-1,1
 120 59 120 59 89 122.5 c 128,-1,2
 58 186 58 186 58 267 c 0,3,4
 58 370 58 370 100 465.5 c 128,-1,5
 142 561 142 561 221 620.5 c 128,-1,6
 300 680 300 680 403 680 c 0,7,8
 483 680 483 680 541.5 644.5 c 128,-1,9
 600 609 600 609 631 545.5 c 128,-1,10
 662 482 662 482 662 401 c 0,11,12
 662 298 662 298 620 202.5 c 128,-1,13
 578 107 578 107 499 47.5 c 128,-1,14
 420 -12 420 -12 317 -12 c 0,15,0
 237 -12 237 -12 178.5 23.5 c 128,-1,1
475 94.5 m 128,-1,17
 539 151 539 151 571 235 c 128,-1,18
 603 319 603 319 603 399 c 0,19,20
 603 502 603 502 549.5 566 c 128,-1,21
 496 630 496 630 401 630 c 0,22,23
 309 630 309 630 245 573.5 c 128,-1,24
 181 517 181 517 149 433 c 128,-1,25
 117 349 117 349 117 269 c 0,26,27
 117 166 117 166 170 102 c 128,-1,28
 223 38 223 38 319 38 c 0,29,16
 411 38 411 38 475 94.5 c 128,-1,17
EndSplineSet
Substitution2: "Single Substitution lookup 15 subtable" ordmasculine
AlternateSubs2: "'aalt' Access All Alternates in Latin lookup 0 subtable" ordmasculine
EndChar
StartChar: P
Encoding: 80 80 71
Width: 561
GlyphClass: 2
Flags: W
AnchorPoint: "Anchor-1" 370 668 basechar 0
AnchorPoint: "Anchor-0" 228 0 basechar 0
LayerCount: 2
Fore
SplineSet
171 668 m 1,0,-1
 350 668 l 2,1,2
 458 668 458 668 518.5 623.5 c 128,-1,3
 579 579 579 579 579 499 c 0,4,5
 579 434 579 434 550 385 c 128,-1,6
 521 336 521 336 469.5 310 c 128,-1,7
 418 284 418 284 353 284 c 2,8,-1
 148 284 l 1,9,-1
 87 0 l 1,10,-1
 29 0 l 1,11,-1
 171 668 l 1,0,-1
473 376.5 m 128,-1,13
 520 419 520 419 520 497 c 0,14,15
 520 556 520 556 474.5 587 c 128,-1,16
 429 618 429 618 343 618 c 2,17,-1
 219 618 l 1,18,-1
 158 334 l 1,19,-1
 345 334 l 2,20,12
 426 334 426 334 473 376.5 c 128,-1,13
EndSplineSet
EndChar
StartChar: Q
Encoding: 81 81 73
Width: 696
GlyphClass: 1
Flags: W
LayerCount: 2
Fore
SplineSet
178.5 23.5 m 128,-1,1
 120 59 120 59 89 122.5 c 128,-1,2
 58 186 58 186 58 267 c 0,3,4
 58 370 58 370 100 465.5 c 128,-1,5
 142 561 142 561 221 620.5 c 128,-1,6
 300 680 300 680 403 680 c 0,7,8
 483 680 483 680 541.5 644.5 c 128,-1,9
 600 609 600 609 631 545.5 c 128,-1,10
 662 482 662 482 662 401 c 256,11,12
 662 320 662 320 635.5 242 c 128,-1,13
 609 164 609 164 560 105 c 1,14,-1
 651 0 l 1,15,-1
 610 -36 l 1,16,-1
 522 66 l 1,17,18
 433 -12 433 -12 317 -12 c 0,19,0
 237 -12 237 -12 178.5 23.5 c 128,-1,1
487 105 m 1,21,-1
 335 281 l 1,22,-1
 376 318 l 1,23,-1
 523 147 l 1,24,25
 562 200 562 200 582.5 268 c 128,-1,26
 603 336 603 336 603 399 c 0,27,28
 603 502 603 502 549.5 566 c 128,-1,29
 496 630 496 630 401 630 c 0,30,31
 309 630 309 630 245 573.5 c 128,-1,32
 181 517 181 517 149 433 c 128,-1,33
 117 349 117 349 117 269 c 0,34,35
 117 166 117 166 170 102 c 128,-1,36
 223 38 223 38 319 38 c 256,37,20
 415 38 415 38 487 105 c 1,21,-1
EndSplineSet
EndChar
StartChar: R
Encoding: 82 82 74
Width: 585
GlyphClass: 2
Flags: W
AnchorPoint: "Anchor-1" 352 668 basechar 0
AnchorPoint: "Anchor-0" 234 0 basechar 0
LayerCount: 2
Fore
SplineSet
171 668 m 1,0,-1
 364 668 l 2,1,2
 469 668 469 668 528.5 625 c 128,-1,3
 588 582 588 582 588 504 c 0,4,5
 588 440 588 440 560 392 c 128,-1,6
 532 344 532 344 481.5 318 c 128,-1,7
 431 292 431 292 367 292 c 2,8,-1
 335 292 l 1,9,-1
 496 0 l 1,10,-1
 429 0 l 1,11,-1
 273 290 l 1,12,-1
 149 290 l 1,13,-1
 87 0 l 1,14,-1
 29 0 l 1,15,-1
 171 668 l 1,0,-1
482.5 381.5 m 128,-1,17
 528 423 528 423 528 498 c 0,18,19
 528 557 528 557 483.5 587.5 c 128,-1,20
 439 618 439 618 355 618 c 2,21,-1
 219 618 l 1,22,-1
 159 340 l 1,23,-1
 360 340 l 2,24,16
 437 340 437 340 482.5 381.5 c 128,-1,17
EndSplineSet
EndChar
StartChar: S
Encoding: 83 83 77
Width: 581
GlyphClass: 2
Flags: W
AnchorPoint: "Anchor-1" 371 668 basechar 0
AnchorPoint: "Anchor-0" 267 0 basechar 0
LayerCount: 2
Fore
SplineSet
114 29.5 m 128,-1,1
 47 71 47 71 32 143 c 1,2,-1
 89 163 l 1,3,4
 100 104 100 104 151.5 71 c 128,-1,5
 203 38 203 38 273 38 c 0,6,7
 325 38 325 38 368.5 56.5 c 128,-1,8
 412 75 412 75 438 110 c 128,-1,9
 464 145 464 145 464 191 c 0,10,11
 464 228 464 228 435.5 255.5 c 128,-1,12
 407 283 407 283 339 309 c 2,13,-1
 251 342 l 2,14,15
 193 363 193 363 155 400 c 128,-1,16
 117 437 117 437 117 494 c 0,17,18
 117 549 117 549 149.5 591.5 c 128,-1,19
 182 634 182 634 235.5 657 c 128,-1,20
 289 680 289 680 350 680 c 0,21,22
 423 680 423 680 481.5 649.5 c 128,-1,23
 540 619 540 619 565 561 c 1,24,-1
 507 541 l 1,25,26
 490 582 490 582 443 606 c 128,-1,27
 396 630 396 630 344 630 c 0,28,29
 300 630 300 630 261.5 614 c 128,-1,30
 223 598 223 598 199.5 568 c 128,-1,31
 176 538 176 538 176 499 c 0,32,33
 176 463 176 463 203 437.5 c 128,-1,34
 230 412 230 412 274 395 c 2,35,-1
 364 361 l 2,36,37
 439 332 439 332 480.5 294.5 c 128,-1,38
 522 257 522 257 522 196 c 0,39,40
 522 134 522 134 487 86.5 c 128,-1,41
 452 39 452 39 394 13.5 c 128,-1,42
 336 -12 336 -12 267 -12 c 0,43,0
 181 -12 181 -12 114 29.5 c 128,-1,1
EndSplineSet
EndChar
StartChar: T
Encoding: 84 84 83
Width: 524
GlyphClass: 2
Flags: W
AnchorPoint: "Anchor-1" 351 668 basechar 0
AnchorPoint: "Anchor-0" 211 0 basechar 0
LayerCount: 2
Fore
SplineSet
312 618 m 1,0,-1
 87 618 l 1,1,-1
 97 668 l 1,2,-1
 605 668 l 1,3,-1
 595 618 l 1,4,-1
 370 618 l 1,5,-1
 238 0 l 1,6,-1
 180 0 l 1,7,-1
 312 618 l 1,0,-1
EndSplineSet
EndChar
StartChar: U
Encoding: 85 85 87
Width: 674
GlyphClass: 2
Flags: W
AnchorPoint: "Anchor-3" 756 668 basechar 0
AnchorPoint: "Anchor-2" 476 10 basechar 0
AnchorPoint: "Anchor-1" 426 668 basechar 0
AnchorPoint: "Anchor-0" 284 0 basechar 0
LayerCount: 2
Fore
SplineSet
79 196 m 0,1,2
 79 242 79 242 91 299 c 2,3,-1
 170 668 l 1,4,-1
 228 668 l 1,5,-1
 147 288 l 2,6,7
 137 242 137 242 137 202 c 0,8,9
 137 38 137 38 322 38 c 0,10,11
 408 38 408 38 460 89.5 c 128,-1,12
 512 141 512 141 535 246 c 2,13,-1
 625 668 l 1,14,-1
 683 668 l 1,15,-1
 592 245 l 2,16,17
 564 115 564 115 499.5 51.5 c 128,-1,18
 435 -12 435 -12 325 -12 c 0,19,0
 79 -12 79 -12 79 196 c 0,1,2
EndSplineSet
EndChar
StartChar: V
Encoding: 86 86 96
Width: 567
GlyphClass: 2
Flags: W
AnchorPoint: "Anchor-1" 373 668 basechar 0
AnchorPoint: "Anchor-0" 231 0 basechar 0
LayerCount: 2
Fore
SplineSet
105 668 m 1,0,-1
 162 668 l 1,1,-1
 241 68 l 1,2,-1
 577 668 l 1,3,-1
 640 668 l 1,4,-1
 260 0 l 1,5,-1
 198 0 l 1,6,-1
 105 668 l 1,0,-1
EndSplineSet
EndChar
StartChar: W
Encoding: 87 87 97
Width: 857
GlyphClass: 2
Flags: W
AnchorPoint: "Anchor-1" 515 668 basechar 0
AnchorPoint: "Anchor-0" 376 0 basechar 0
LayerCount: 2
Fore
SplineSet
113 668 m 1,0,-1
 170 668 l 1,1,-1
 195 67 l 1,2,-1
 485 668 l 1,3,-1
 545 668 l 1,4,-1
 578 67 l 1,5,-1
 860 668 l 1,6,-1
 922 668 l 1,7,-1
 601 0 l 1,8,-1
 532 0 l 1,9,-1
 497 574 l 1,10,-1
 217 0 l 1,11,-1
 148 0 l 1,12,-1
 113 668 l 1,0,-1
EndSplineSet
EndChar
StartChar: X
Encoding: 88 88 102
Width: 592
GlyphClass: 2
Flags: W
AnchorPoint: "Anchor-1" 385 668 basechar 0
AnchorPoint: "Anchor-0" 243 0 basechar 0
LayerCount: 2
Fore
SplineSet
280 346 m 1,0,-1
 117 668 l 1,1,-1
 183 668 l 1,2,-1
 323 389 l 1,3,-1
 581 668 l 1,4,-1
 653 668 l 1,5,-1
 352 343 l 1,6,-1
 525 0 l 1,7,-1
 458 0 l 1,8,-1
 308 299 l 1,9,-1
 32 0 l 1,10,-1
 -39 0 l 1,11,-1
 280 346 l 1,0,-1
EndSplineSet
EndChar
StartChar: Y
Encoding: 89 89 103
Width: 529
GlyphClass: 2
Flags: W
AnchorPoint: "Anchor-1" 350 668 basechar 0
AnchorPoint: "Anchor-0" 212 0 basechar 0
LayerCount: 2
Fore
SplineSet
240 268 m 1,0,-1
 89 668 l 1,1,-1
 154 668 l 1,2,-1
 278 327 l 1,3,-1
 546 668 l 1,4,-1
 618 668 l 1,5,-1
 299 268 l 1,6,-1
 242 0 l 1,7,-1
 183 0 l 1,8,-1
 240 268 l 1,0,-1
EndSplineSet
EndChar
StartChar: Z
Encoding: 90 90 108
Width: 600
GlyphClass: 2
Flags: W
AnchorPoint: "Anchor-1" 393 668 basechar 0
AnchorPoint: "Anchor-0" 247 0 basechar 0
LayerCount: 2
Fore
SplineSet
10 61 m 1,0,-1
 544 616 l 1,1,-1
 142 616 l 1,2,-1
 154 668 l 1,3,-1
 624 668 l 1,4,-1
 611 607 l 1,5,-1
 76 52 l 1,6,-1
 508 52 l 1,7,-1
 497 0 l 1,8,-1
 -3 0 l 1,9,-1
 10 61 l 1,0,-1
EndSplineSet
EndChar
StartChar: bracketleft
Encoding: 91 91 281
Width: 294
GlyphClass: 1
Flags: W
LayerCount: 2
Fore
SplineSet
180 708 m 1,0,-1
 358 708 l 1,1,-1
 350 666 l 1,2,-1
 227 666 l 1,3,-1
 60 -120 l 1,4,-1
 183 -120 l 1,5,-1
 174 -162 l 1,6,-1
 -4 -162 l 1,7,-1
 180 708 l 1,0,-1
EndSplineSet
EndChar
StartChar: bracketright
Encoding: 93 93 282
Width: 293
GlyphClass: 1
Flags: W
LayerCount: 2
Fore
SplineSet
-46 -120 m 1,0,-1
 77 -120 l 1,1,-1
 244 666 l 1,2,-1
 121 666 l 1,3,-1
 130 708 l 1,4,-1
 308 708 l 1,5,-1
 124 -162 l 1,6,-1
 -54 -162 l 1,7,-1
 -46 -120 l 1,0,-1
EndSplineSet
EndChar
StartChar: a
Encoding: 97 97 112
Width: 505
GlyphClass: 2
Flags: W
AnchorPoint: "Anchor-2" 393 10 basechar 0
AnchorPoint: "Anchor-1" 294 496 basechar 0
AnchorPoint: "Anchor-0" 194 0 basechar 0
LayerCount: 2
Fore
SplineSet
52 20 m 128,-1,1
 7 52 7 52 7 113 c 0,2,3
 7 210 7 210 98.5 253.5 c 128,-1,4
 190 297 190 297 381 297 c 1,5,-1
 383 306 l 2,6,7
 388 334 388 334 388 354 c 0,8,9
 388 404 388 404 360.5 431.5 c 128,-1,10
 333 459 333 459 277 459 c 0,11,12
 232 459 232 459 195 437 c 128,-1,13
 158 415 158 415 144 372 c 1,14,-1
 87 386 l 1,15,16
 113 446 113 446 164.5 476 c 128,-1,17
 216 506 216 506 280 506 c 0,18,19
 359 506 359 506 401 467.5 c 128,-1,20
 443 429 443 429 443 358 c 0,21,22
 443 327 443 327 436 295 c 2,23,-1
 415 194 l 2,24,25
 391 81 391 81 391 0 c 1,26,-1
 345 0 l 1,27,-1
 344 80 l 1,28,29
 317 41 317 41 270 14.5 c 128,-1,30
 223 -12 223 -12 161 -12 c 0,31,0
 97 -12 97 -12 52 20 c 128,-1,1
290.5 75.5 m 128,-1,33
 343 115 343 115 360 195 c 2,34,-1
 372 251 l 1,35,36
 214 252 214 252 139 220.5 c 128,-1,37
 64 189 64 189 64 121 c 0,38,39
 64 80 64 80 95.5 58 c 128,-1,40
 127 36 127 36 174 36 c 0,41,32
 238 36 238 36 290.5 75.5 c 128,-1,33
EndSplineSet
Substitution2: "Single Substitution lookup 15 subtable" ordfeminine
AlternateSubs2: "'aalt' Access All Alternates in Latin lookup 0 subtable" ordfeminine
EndChar
StartChar: b
Encoding: 98 98 123
Width: 546
GlyphClass: 2
Flags: W
AnchorPoint: "Anchor-1" 330 496 basechar 0
AnchorPoint: "Anchor-0" 225 0 basechar 0
LayerCount: 2
Fore
SplineSet
153 16.5 m 128,-1,1
 111 45 111 45 99 93 c 1,2,-1
 65 0 l 1,3,-1
 24 0 l 1,4,-1
 173 708 l 1,5,-1
 229 708 l 1,6,-1
 165 413 l 1,7,8
 192 454 192 454 238.5 480 c 128,-1,9
 285 506 285 506 338 506 c 0,10,11
 418 506 418 506 464 449.5 c 128,-1,12
 510 393 510 393 510 300 c 0,13,14
 510 227 510 227 481 155 c 128,-1,15
 452 83 452 83 393 35.5 c 128,-1,16
 334 -12 334 -12 250 -12 c 0,17,0
 195 -12 195 -12 153 16.5 c 128,-1,1
367 79 m 128,-1,19
 412 121 412 121 432.5 182 c 128,-1,20
 453 243 453 243 453 300 c 0,21,22
 453 372 453 372 419.5 414 c 128,-1,23
 386 456 386 456 324 456 c 0,24,25
 259 456 259 456 214 411 c 128,-1,26
 169 366 169 366 147 301.5 c 128,-1,27
 125 237 125 237 125 180 c 0,28,29
 125 112 125 112 158.5 74.5 c 128,-1,30
 192 37 192 37 254 37 c 0,31,18
 322 37 322 37 367 79 c 128,-1,19
EndSplineSet
EndChar
StartChar: c
Encoding: 99 99 124
Width: 470
GlyphClass: 2
Flags: W
AnchorPoint: "Anchor-1" 311 496 basechar 0
AnchorPoint: "Anchor-0" 212 0 basechar 0
LayerCount: 2
Fore
SplineSet
123 15.5 m 128,-1,1
 80 43 80 43 58 90 c 128,-1,2
 36 137 36 137 36 196 c 0,3,4
 36 274 36 274 69 345.5 c 128,-1,5
 102 417 102 417 161.5 461.5 c 128,-1,6
 221 506 221 506 296 506 c 0,7,8
 358 506 358 506 400.5 476 c 128,-1,9
 443 446 443 446 464 395 c 1,10,-1
 413 377 l 1,11,12
 399 414 399 414 366.5 435 c 128,-1,13
 334 456 334 456 292 456 c 0,14,15
 226 456 226 456 181 414.5 c 128,-1,16
 136 373 136 373 114.5 312.5 c 128,-1,17
 93 252 93 252 93 197 c 0,18,19
 93 126 93 126 128.5 82 c 128,-1,20
 164 38 164 38 232 38 c 0,21,22
 274 38 274 38 311.5 56.5 c 128,-1,23
 349 75 349 75 371 111 c 1,24,-1
 422 90 l 1,25,26
 383 38 383 38 332 13 c 128,-1,27
 281 -12 281 -12 227 -12 c 0,28,0
 166 -12 166 -12 123 15.5 c 128,-1,1
EndSplineSet
EndChar
StartChar: d
Encoding: 100 100 129
Width: 550
GlyphClass: 2
Flags: W
AnchorPoint: "Anchor-3" 569 498 basechar 0
AnchorPoint: "Anchor-1" 384 796 basechar 0
AnchorPoint: "Anchor-0" 215 0 basechar 0
LayerCount: 2
Fore
SplineSet
81.5 44 m 128,-1,1
 36 100 36 100 36 194 c 0,2,3
 36 266 36 266 65 338.5 c 128,-1,4
 94 411 94 411 153 458.5 c 128,-1,5
 212 506 212 506 295 506 c 0,6,7
 351 506 351 506 393.5 477.5 c 128,-1,8
 436 449 436 449 447 401 c 1,9,-1
 514 708 l 1,10,-1
 569 708 l 1,11,-1
 457 183 l 2,12,13
 449 143 449 143 442.5 101.5 c 128,-1,14
 436 60 436 60 435 0 c 1,15,-1
 384 0 l 1,16,-1
 378 76 l 1,17,18
 351 36 351 36 305.5 12 c 128,-1,19
 260 -12 260 -12 208 -12 c 0,20,0
 127 -12 127 -12 81.5 44 c 128,-1,1
329.5 81 m 128,-1,22
 375 125 375 125 398 189.5 c 128,-1,23
 421 254 421 254 421 313 c 0,24,25
 421 381 421 381 387.5 418.5 c 128,-1,26
 354 456 354 456 292 456 c 0,27,28
 224 456 224 456 179 414 c 128,-1,29
 134 372 134 372 113.5 311.5 c 128,-1,30
 93 251 93 251 93 194 c 0,31,32
 93 123 93 123 126.5 80 c 128,-1,33
 160 37 160 37 222 37 c 256,34,21
 284 37 284 37 329.5 81 c 128,-1,22
EndSplineSet
EndChar
StartChar: e
Encoding: 101 101 133
Width: 523
GlyphClass: 2
Flags: W
AnchorPoint: "Anchor-2" 384 10 basechar 0
AnchorPoint: "Anchor-1" 313 496 basechar 0
AnchorPoint: "Anchor-0" 207 0 basechar 0
LayerCount: 2
Fore
SplineSet
91.5 45.5 m 128,-1,1
 36 103 36 103 36 197 c 0,2,3
 36 273 36 273 69 344.5 c 128,-1,4
 102 416 102 416 161.5 461 c 128,-1,5
 221 506 221 506 297 506 c 0,6,7
 356 506 356 506 399.5 479.5 c 128,-1,8
 443 453 443 453 466.5 406.5 c 128,-1,9
 490 360 490 360 490 302 c 0,10,11
 490 273 490 273 484 243 c 1,12,-1
 96 243 l 1,13,14
 93 224 93 224 93 205 c 0,15,16
 93 131 93 131 132.5 84.5 c 128,-1,17
 172 38 172 38 245 38 c 0,18,19
 331 38 331 38 379 101 c 1,20,-1
 434 80 l 1,21,22
 392 30 392 30 346.5 9 c 128,-1,23
 301 -12 301 -12 244 -12 c 0,24,0
 147 -12 147 -12 91.5 45.5 c 128,-1,1
435 309 m 0,26,27
 435 372 435 372 397.5 414 c 128,-1,28
 360 456 360 456 293 456 c 0,29,30
 220 456 220 456 173.5 408 c 128,-1,31
 127 360 127 360 106 289 c 1,32,-1
 434 289 l 1,33,25
 435 296 435 296 435 309 c 0,26,27
EndSplineSet
EndChar
StartChar: f
Encoding: 102 102 142
Width: 288
GlyphClass: 2
Flags: W
AnchorPoint: "Anchor-1" 237 796 basechar 0
AnchorPoint: "Anchor-0" 68 0 basechar 0
LayerCount: 2
Fore
SplineSet
145 451 m 1,0,-1
 61 451 l 1,1,-1
 70 496 l 1,2,-1
 155 496 l 1,3,-1
 179 608 l 2,4,5
 189 652 189 652 201 675 c 128,-1,6
 213 698 213 698 231 707 c 128,-1,7
 249 716 249 716 279 716 c 2,8,-1
 358 716 l 1,9,-1
 347 667 l 1,10,-1
 286 667 l 2,11,12
 263 667 263 667 252.5 656 c 128,-1,13
 242 645 242 645 235 611 c 2,14,-1
 211 496 l 1,15,-1
 311 496 l 1,16,-1
 301 451 l 1,17,-1
 201 451 l 1,18,-1
 106 0 l 1,19,-1
 50 0 l 1,20,-1
 145 451 l 1,0,-1
EndSplineSet
EndChar
StartChar: g
Encoding: 103 103 143
Width: 539
GlyphClass: 2
Flags: W
AnchorPoint: "Anchor-1" 313 496 basechar 0
AnchorPoint: "Anchor-0" 160 -251 basechar 0
LayerCount: 2
Fore
SplineSet
78 -156 m 128,-1,1
 25 -126 25 -126 16 -70 c 1,2,-1
 73 -56 l 1,3,4
 80 -93 80 -93 115 -114.5 c 128,-1,5
 150 -136 150 -136 203 -136 c 0,6,7
 327 -136 327 -136 352 -13 c 2,8,-1
 375 93 l 1,9,10
 347 55 347 55 305.5 29.5 c 128,-1,11
 264 4 264 4 211 4 c 0,12,13
 129 4 129 4 83 58 c 128,-1,14
 37 112 37 112 37 201 c 0,15,16
 37 280 37 280 68.5 350 c 128,-1,17
 100 420 100 420 158.5 463 c 128,-1,18
 217 506 217 506 294 506 c 0,19,20
 344 506 344 506 384.5 479 c 128,-1,21
 425 452 425 452 442 409 c 1,22,-1
 475 496 l 1,23,-1
 517 496 l 1,24,-1
 407 -23 l 2,25,26
 390 -101 390 -101 334.5 -143.5 c 128,-1,27
 279 -186 279 -186 198 -186 c 0,28,0
 131 -186 131 -186 78 -156 c 128,-1,1
330.5 98 m 128,-1,30
 374 142 374 142 395.5 204 c 128,-1,31
 417 266 417 266 417 318 c 0,32,33
 417 383 417 383 384 419.5 c 128,-1,34
 351 456 351 456 294 456 c 0,35,36
 225 456 225 456 180 415 c 128,-1,37
 135 374 135 374 114.5 315.5 c 128,-1,38
 94 257 94 257 94 204 c 0,39,40
 94 137 94 137 128.5 95.5 c 128,-1,41
 163 54 163 54 224 54 c 0,42,29
 287 54 287 54 330.5 98 c 128,-1,30
EndSplineSet
EndChar
StartChar: h
Encoding: 104 104 147
Width: 538
GlyphClass: 2
Flags: W
AnchorPoint: "Anchor-1" 379 796 basechar 0
AnchorPoint: "Anchor-0" 210 0 basechar 0
LayerCount: 2
Fore
SplineSet
173 708 m 1,0,-1
 229 708 l 1,1,-1
 168 419 l 1,2,3
 194 457 194 457 238 481 c 128,-1,4
 282 505 282 505 339 505 c 0,5,6
 401 505 401 505 441.5 469 c 128,-1,7
 482 433 482 433 482 364 c 0,8,9
 482 338 482 338 476 308 c 2,10,-1
 410 0 l 1,11,-1
 354 0 l 1,12,-1
 418 298 l 2,13,14
 424 327 424 327 424 351 c 0,15,16
 424 402 424 402 398 429 c 128,-1,17
 372 456 372 456 322 456 c 0,18,19
 253 456 253 456 203.5 407 c 128,-1,20
 154 358 154 358 137 273 c 2,21,-1
 79 0 l 1,22,-1
 23 0 l 1,23,-1
 173 708 l 1,0,-1
EndSplineSet
EndChar
StartChar: l
Encoding: 108 108 163
Width: 236
GlyphClass: 2
Flags: W
AnchorPoint: "Anchor-3" 224 499 basechar 0
AnchorPoint: "Anchor-1" 215 796 basechar 0
AnchorPoint: "Anchor-0" 66 0 basechar 0
LayerCount: 2
Fore
SplineSet
58 15.5 m 128,-1,1
 36 31 36 31 36 66 c 0,2,3
 36 81 36 81 41 106 c 2,4,-1
 169 708 l 1,5,-1
 225 708 l 1,6,-1
 96 102 l 2,7,8
 93 89 93 89 93 78 c 0,9,10
 93 62 93 62 104 55 c 128,-1,11
 115 48 115 48 141 48 c 2,12,-1
 171 48 l 1,13,-1
 161 0 l 1,14,-1
 134 0 l 2,15,0
 80 0 80 0 58 15.5 c 128,-1,1
EndSplineSet
EndChar
StartChar: m
Encoding: 109 109 167
Width: 829
GlyphClass: 2
Flags: W
AnchorPoint: "Anchor-1" 458 496 basechar 0
AnchorPoint: "Anchor-0" 352 0 basechar 0
LayerCount: 2
Fore
SplineSet
128 496 m 1,0,-1
 169 496 l 1,1,-1
 164 417 l 1,2,3
 192 457 192 457 234.5 481 c 128,-1,4
 277 505 277 505 328 505 c 0,5,6
 376 505 376 505 411.5 478 c 128,-1,7
 447 451 447 451 458 399 c 1,8,9
 494 453 494 453 538 479 c 128,-1,10
 582 505 582 505 638 505 c 0,11,12
 695 505 695 505 734 469 c 128,-1,13
 773 433 773 433 773 364 c 0,14,15
 773 338 773 338 767 308 c 2,16,-1
 701 0 l 1,17,-1
 646 0 l 1,18,-1
 709 298 l 2,19,20
 715 328 715 328 715 352 c 0,21,22
 715 402 715 402 691 429 c 128,-1,23
 667 456 667 456 623 456 c 0,24,25
 562 456 562 456 515 409 c 128,-1,26
 468 362 468 362 448 273 c 2,27,-1
 389 0 l 1,28,-1
 334 0 l 1,29,-1
 398 298 l 2,30,31
 404 327 404 327 404 350 c 0,32,33
 404 400 404 400 379.5 428 c 128,-1,34
 355 456 355 456 311 456 c 0,35,36
 248 456 248 456 200.5 406.5 c 128,-1,37
 153 357 153 357 135 273 c 2,38,-1
 78 0 l 1,39,-1
 22 0 l 1,40,-1
 128 496 l 1,0,-1
EndSplineSet
EndChar
StartChar: n
Encoding: 110 110 168
Width: 537
GlyphClass: 2
Flags: W
AnchorPoint: "Anchor-1" 321 496 basechar 0
AnchorPoint: "Anchor-0" 215 0 basechar 0
LayerCount: 2
Fore
SplineSet
128 496 m 1,0,-1
 169 496 l 1,1,-1
 164 417 l 1,2,3
 192 457 192 457 236 481 c 128,-1,4
 280 505 280 505 337 505 c 0,5,6
 400 505 400 505 440.5 469 c 128,-1,7
 481 433 481 433 481 364 c 0,8,9
 481 338 481 338 475 308 c 2,10,-1
 409 0 l 1,11,-1
 353 0 l 1,12,-1
 417 298 l 2,13,14
 423 327 423 327 423 351 c 0,15,16
 423 402 423 402 397 429 c 128,-1,17
 371 456 371 456 321 456 c 0,18,19
 252 456 252 456 202.5 407 c 128,-1,20
 153 358 153 358 136 273 c 2,21,-1
 78 0 l 1,22,-1
 22 0 l 1,23,-1
 128 496 l 1,0,-1
EndSplineSet
EndChar
StartChar: o
Encoding: 111 111 173
Width: 530
GlyphClass: 2
Flags: W
AnchorPoint: "Anchor-3" 569 496 basechar 0
AnchorPoint: "Anchor-2" 432 10 basechar 0
AnchorPoint: "Anchor-1" 315 496 basechar 0
AnchorPoint: "Anchor-0" 212 0 basechar 0
LayerCount: 2
Fore
SplineSet
125 16 m 128,-1,1
 81 44 81 44 58.5 92 c 128,-1,2
 36 140 36 140 36 200 c 0,3,4
 36 276 36 276 69 346.5 c 128,-1,5
 102 417 102 417 162 461.5 c 128,-1,6
 222 506 222 506 300 506 c 0,7,8
 360 506 360 506 404 478 c 128,-1,9
 448 450 448 450 470.5 402 c 128,-1,10
 493 354 493 354 493 294 c 0,11,12
 493 218 493 218 460 147 c 128,-1,13
 427 76 427 76 367 32 c 128,-1,14
 307 -12 307 -12 229 -12 c 0,15,0
 169 -12 169 -12 125 16 c 128,-1,1
346 78.5 m 128,-1,17
 392 119 392 119 414 178.5 c 128,-1,18
 436 238 436 238 436 294 c 0,19,20
 436 366 436 366 400 411 c 128,-1,21
 364 456 364 456 295 456 c 0,22,23
 229 456 229 456 183 415.5 c 128,-1,24
 137 375 137 375 115 315.5 c 128,-1,25
 93 256 93 256 93 200 c 0,26,27
 93 128 93 128 129 83 c 128,-1,28
 165 38 165 38 234 38 c 0,29,16
 300 38 300 38 346 78.5 c 128,-1,17
EndSplineSet
Substitution2: "Single Substitution lookup 15 subtable" ordmasculine
AlternateSubs2: "'aalt' Access All Alternates in Latin lookup 0 subtable" ordmasculine
EndChar
StartChar: p
Encoding: 112 112 182
Width: 545
GlyphClass: 2
Flags: W
AnchorPoint: "Anchor-1" 326 496 basechar 0
AnchorPoint: "Anchor-0" 220 0 basechar 0
LayerCount: 2
Fore
SplineSet
128 496 m 1,0,-1
 169 496 l 1,1,-1
 166 415 l 1,2,3
 192 455 192 455 238 480.5 c 128,-1,4
 284 506 284 506 337 506 c 0,5,6
 418 506 418 506 464 449.5 c 128,-1,7
 510 393 510 393 510 301 c 0,8,9
 510 228 510 228 480.5 155.5 c 128,-1,10
 451 83 451 83 392 35.5 c 128,-1,11
 333 -12 333 -12 249 -12 c 0,12,13
 194 -12 194 -12 152 16.5 c 128,-1,14
 110 45 110 45 99 94 c 1,15,-1
 44 -162 l 1,16,-1
 -12 -162 l 1,17,-1
 128 496 l 1,0,-1
366 79 m 128,-1,19
 411 121 411 121 431.5 182 c 128,-1,20
 452 243 452 243 452 300 c 0,21,22
 452 372 452 372 418.5 414 c 128,-1,23
 385 456 385 456 323 456 c 0,24,25
 258 456 258 456 213 411 c 128,-1,26
 168 366 168 366 146.5 301.5 c 128,-1,27
 125 237 125 237 125 180 c 0,28,29
 125 112 125 112 158 74.5 c 128,-1,30
 191 37 191 37 253 37 c 0,31,18
 321 37 321 37 366 79 c 128,-1,19
EndSplineSet
EndChar
StartChar: q
Encoding: 113 113 184
Width: 553
GlyphClass: 2
Flags: W
AnchorPoint: "Anchor-1" 323 496 basechar 0
AnchorPoint: "Anchor-0" 218 0 basechar 0
LayerCount: 2
Fore
SplineSet
348 -85 m 0,1,2
 348 -68 348 -68 353 -43 c 2,3,-1
 378 74 l 1,4,5
 347 33 347 33 302.5 10.5 c 128,-1,6
 258 -12 258 -12 208 -12 c 0,7,8
 127 -12 127 -12 81.5 44 c 128,-1,9
 36 100 36 100 36 194 c 0,10,11
 36 266 36 266 65 338.5 c 128,-1,12
 94 411 94 411 153 458.5 c 128,-1,13
 212 506 212 506 295 506 c 0,14,15
 351 506 351 506 392.5 478 c 128,-1,16
 434 450 434 450 447 403 c 1,17,-1
 482 496 l 1,18,-1
 523 496 l 1,19,-1
 408 -47 l 2,20,21
 405 -61 405 -61 405 -73 c 0,22,23
 405 -124 405 -124 466 -124 c 0,24,25
 496 -124 496 -124 517 -116 c 1,26,-1
 506 -166 l 1,27,28
 480 -174 480 -174 455 -174 c 0,29,0
 348 -174 348 -174 348 -85 c 0,1,2
329.5 81 m 128,-1,31
 375 125 375 125 398 189.5 c 128,-1,32
 421 254 421 254 421 313 c 0,33,34
 421 381 421 381 387.5 418.5 c 128,-1,35
 354 456 354 456 292 456 c 0,36,37
 224 456 224 456 179 414 c 128,-1,38
 134 372 134 372 113.5 311.5 c 128,-1,39
 93 251 93 251 93 194 c 0,40,41
 93 123 93 123 126.5 80 c 128,-1,42
 160 37 160 37 222 37 c 256,43,30
 284 37 284 37 329.5 81 c 128,-1,31
EndSplineSet
EndChar
StartChar: r
Encoding: 114 114 185
Width: 326
GlyphClass: 2
Flags: W
AnchorPoint: "Anchor-1" 235 496 basechar 0
AnchorPoint: "Anchor-0" 105 0 basechar 0
LayerCount: 2
Fore
SplineSet
128 496 m 1,0,-1
 169 496 l 1,1,-1
 165 402 l 1,2,3
 196 443 196 443 250 473.5 c 128,-1,4
 304 504 304 504 363 501 c 1,5,-1
 352 447 l 1,6,7
 257 446 257 446 203 389 c 128,-1,8
 149 332 149 332 127 228 c 2,9,-1
 79 0 l 1,10,-1
 23 0 l 1,11,-1
 128 496 l 1,0,-1
EndSplineSet
EndChar
StartChar: s
Encoding: 115 115 188
Width: 448
GlyphClass: 2
Flags: W
AnchorPoint: "Anchor-1" 271 496 basechar 0
AnchorPoint: "Anchor-0" 186 0 basechar 0
LayerCount: 2
Fore
SplineSet
82.5 23 m 128,-1,1
 29 58 29 58 15 115 c 1,2,-1
 69 135 l 1,3,4
 78 90 78 90 116.5 63.5 c 128,-1,5
 155 37 155 37 207 37 c 0,6,7
 261 37 261 37 297.5 65 c 128,-1,8
 334 93 334 93 334 138 c 0,9,10
 334 171 334 171 308.5 191 c 128,-1,11
 283 211 283 211 230 230 c 2,12,-1
 188 245 l 2,13,14
 132 266 132 266 103.5 293 c 128,-1,15
 75 320 75 320 75 361 c 0,16,17
 75 405 75 405 100 438 c 128,-1,18
 125 471 125 471 166.5 488.5 c 128,-1,19
 208 506 208 506 256 506 c 0,20,21
 311 506 311 506 358.5 478.5 c 128,-1,22
 406 451 406 451 422 405 c 1,23,-1
 368 384 l 1,24,25
 358 417 358 417 324 437 c 128,-1,26
 290 457 290 457 250 457 c 0,27,28
 202 457 202 457 165 435 c 128,-1,29
 128 413 128 413 128 372 c 0,30,31
 128 344 128 344 149.5 326 c 128,-1,32
 171 308 171 308 213 292 c 2,33,-1
 255 277 l 2,34,35
 322 252 322 252 355.5 223 c 128,-1,36
 389 194 389 194 389 148 c 0,37,38
 389 100 389 100 363.5 64 c 128,-1,39
 338 28 338 28 295 8 c 128,-1,40
 252 -12 252 -12 201 -12 c 0,41,0
 136 -12 136 -12 82.5 23 c 128,-1,1
EndSplineSet
EndChar
StartChar: t
Encoding: 116 116 194
Width: 296
GlyphClass: 2
Flags: W
AnchorPoint: "Anchor-3" 253 542 basechar 0
AnchorPoint: "Anchor-1" 203 496 basechar 0
AnchorPoint: "Anchor-0" 133 0 basechar 0
LayerCount: 2
Fore
SplineSet
97.5 16 m 128,-1,1
 72 32 72 32 72 72 c 0,2,3
 72 90 72 90 79 128 c 2,4,-1
 148 451 l 1,5,-1
 63 451 l 1,6,-1
 72 496 l 1,7,-1
 157 496 l 1,8,-1
 184 620 l 1,9,-1
 240 620 l 1,10,-1
 213 496 l 1,11,-1
 314 496 l 1,12,-1
 305 451 l 1,13,-1
 203 451 l 1,14,-1
 134 123 l 2,15,16
 128 91 128 91 128 84 c 0,17,18
 128 65 128 65 141.5 57.5 c 128,-1,19
 155 50 155 50 189 50 c 2,20,-1
 218 50 l 1,21,-1
 208 0 l 1,22,-1
 187 0 l 2,23,0
 123 0 123 0 97.5 16 c 128,-1,1
EndSplineSet
EndChar
StartChar: u
Encoding: 117 117 198
Width: 526
GlyphClass: 2
Flags: W
AnchorPoint: "Anchor-3" 544 496 basechar 0
AnchorPoint: "Anchor-2" 400 10 basechar 0
AnchorPoint: "Anchor-1" 305 496 basechar 0
AnchorPoint: "Anchor-0" 199 0 basechar 0
LayerCount: 2
Fore
SplineSet
95 24 m 128,-1,1
 56 60 56 60 56 129 c 0,2,3
 56 154 56 154 62 185 c 2,4,-1
 128 496 l 1,5,-1
 183 496 l 1,6,-1
 120 195 l 2,7,8
 114 167 114 167 114 142 c 0,9,10
 114 92 114 92 139 65 c 128,-1,11
 164 38 164 38 210 38 c 0,12,13
 276 38 276 38 324 88 c 128,-1,14
 372 138 372 138 390 223 c 2,15,-1
 448 496 l 1,16,-1
 504 496 l 1,17,-1
 398 0 l 1,18,-1
 356 0 l 1,19,-1
 362 79 l 1,20,21
 334 39 334 39 290 13.5 c 128,-1,22
 246 -12 246 -12 193 -12 c 0,23,0
 134 -12 134 -12 95 24 c 128,-1,1
EndSplineSet
EndChar
StartChar: v
Encoding: 118 118 207
Width: 419
GlyphClass: 2
Flags: W
AnchorPoint: "Anchor-1" 263 496 basechar 0
AnchorPoint: "Anchor-0" 157 0 basechar 0
LayerCount: 2
Fore
SplineSet
63 496 m 1,0,-1
 119 496 l 1,1,-1
 174 86 l 1,2,-1
 401 496 l 1,3,-1
 462 496 l 1,4,-1
 178 0 l 1,5,-1
 134 0 l 1,6,-1
 63 496 l 1,0,-1
EndSplineSet
EndChar
StartChar: w
Encoding: 119 119 208
Width: 649
GlyphClass: 2
Flags: W
AnchorPoint: "Anchor-1" 377 496 basechar 0
AnchorPoint: "Anchor-0" 271 0 basechar 0
LayerCount: 2
Fore
SplineSet
68 496 m 1,0,-1
 126 496 l 1,1,-1
 151 106 l 1,2,-1
 348 496 l 1,3,-1
 403 496 l 1,4,-1
 436 103 l 1,5,-1
 626 496 l 1,6,-1
 687 496 l 1,7,-1
 436 0 l 1,8,-1
 394 0 l 1,9,-1
 362 421 l 1,10,-1
 149 0 l 1,11,-1
 109 0 l 1,12,-1
 68 496 l 1,0,-1
EndSplineSet
EndChar
StartChar: x
Encoding: 120 120 213
Width: 445
GlyphClass: 2
Flags: W
AnchorPoint: "Anchor-1" 276 496 basechar 0
AnchorPoint: "Anchor-0" 170 0 basechar 0
LayerCount: 2
Fore
SplineSet
188 258 m 1,0,-1
 69 496 l 1,1,-1
 129 496 l 1,2,-1
 228 292 l 1,3,-1
 412 496 l 1,4,-1
 482 496 l 1,5,-1
 257 248 l 1,6,-1
 382 0 l 1,7,-1
 322 0 l 1,8,-1
 215 212 l 1,9,-1
 27 0 l 1,10,-1
 -43 0 l 1,11,-1
 188 258 l 1,0,-1
EndSplineSet
EndChar
StartChar: y
Encoding: 121 121 214
Width: 411
GlyphClass: 2
Flags: W
AnchorPoint: "Anchor-1" 255 496 basechar 0
AnchorPoint: "Anchor-0" 151 0 basechar 0
LayerCount: 2
Fore
SplineSet
-44 -112 m 1,0,-1
 16 -112 l 2,1,2
 50 -112 50 -112 69 -95.5 c 128,-1,3
 88 -79 88 -79 108 -37 c 2,4,-1
 132 13 l 1,5,-1
 63 496 l 1,6,-1
 119 496 l 1,7,-1
 175 83 l 1,8,-1
 395 496 l 1,9,-1
 454 496 l 1,10,-1
 159 -48 l 2,11,12
 133 -95 133 -95 113.5 -119 c 128,-1,13
 94 -143 94 -143 73 -152.5 c 128,-1,14
 52 -162 52 -162 20 -162 c 2,15,-1
 -54 -162 l 1,16,-1
 -44 -112 l 1,0,-1
EndSplineSet
EndChar
StartChar: z
Encoding: 122 122 219
Width: 426
GlyphClass: 2
Flags: W
AnchorPoint: "Anchor-1" 276 496 basechar 0
AnchorPoint: "Anchor-0" 157 0 basechar 0
LayerCount: 2
Fore
SplineSet
-4 50 m 1,0,-1
 361 446 l 1,1,-1
 89 446 l 1,2,-1
 99 496 l 1,3,-1
 441 496 l 1,4,-1
 431 446 l 1,5,-1
 66 50 l 1,6,-1
 353 50 l 1,7,-1
 343 0 l 1,8,-1
 -14 0 l 1,9,-1
 -4 50 l 1,0,-1
EndSplineSet
EndChar
StartChar: braceleft
Encoding: 123 123 279
Width: 318
GlyphClass: 1
Flags: W
LayerCount: 2
Fore
SplineSet
89.5 -148 m 128,-1,1
 68 -134 68 -134 68 -103 c 0,2,3
 68 -80 68 -80 80 -29 c 2,4,-1
 119 152 l 2,5,6
 125 182 125 182 125 192 c 0,7,8
 125 218 125 218 107.5 232 c 128,-1,9
 90 246 90 246 45 251 c 1,10,-1
 54 295 l 1,11,12
 95 295 95 295 117.5 304.5 c 128,-1,13
 140 314 140 314 150 332 c 128,-1,14
 160 350 160 350 167 383 c 2,15,-1
 213 595 l 2,16,17
 225 649 225 649 233 669.5 c 128,-1,18
 241 690 241 690 260 699 c 128,-1,19
 279 708 279 708 322 708 c 2,20,-1
 381 708 l 1,21,-1
 373 664 l 1,22,-1
 326 664 l 2,23,24
 303 664 303 664 293.5 658.5 c 128,-1,25
 284 653 284 653 279.5 641 c 128,-1,26
 275 629 275 629 268 595 c 2,27,-1
 223 387 l 2,28,29
 211 329 211 329 189 303 c 128,-1,30
 167 277 167 277 130 270 c 1,31,-1
 129 264 l 1,32,33
 153 255 153 255 165 237 c 128,-1,34
 177 219 177 219 177 189 c 0,35,36
 177 163 177 163 170 132 c 2,37,-1
 132 -40 l 2,38,39
 123 -80 123 -80 123 -91 c 0,40,41
 123 -106 123 -106 132 -112 c 128,-1,42
 141 -118 141 -118 165 -118 c 2,43,-1
 205 -118 l 1,44,-1
 197 -162 l 1,45,-1
 168 -162 l 2,46,0
 111 -162 111 -162 89.5 -148 c 128,-1,1
EndSplineSet
EndChar
StartChar: braceright
Encoding: 125 125 280
Width: 318
GlyphClass: 1
Flags: W
LayerCount: 2
Fore
SplineSet
-44 -118 m 1,0,-1
 3 -118 l 2,1,2
 26 -118 26 -118 35.5 -112.5 c 128,-1,3
 45 -107 45 -107 49.5 -95 c 128,-1,4
 54 -83 54 -83 61 -49 c 2,5,-1
 106 159 l 2,6,7
 118 216 118 216 140 242.5 c 128,-1,8
 162 269 162 269 199 276 c 1,9,-1
 200 282 l 1,10,11
 176 291 176 291 164 309 c 128,-1,12
 152 327 152 327 152 358 c 0,13,14
 152 383 152 383 159 414 c 2,15,-1
 197 586 l 2,16,17
 206 626 206 626 206 637 c 0,18,19
 206 652 206 652 197 658 c 128,-1,20
 188 664 188 664 164 664 c 2,21,-1
 124 664 l 1,22,-1
 132 708 l 1,23,-1
 161 708 l 2,24,25
 218 708 218 708 239.5 694 c 128,-1,26
 261 680 261 680 261 648 c 0,27,28
 261 630 261 630 250 575 c 2,29,-1
 210 394 l 2,30,31
 204 364 204 364 204 354 c 0,32,33
 204 328 204 328 221.5 314 c 128,-1,34
 239 300 239 300 284 295 c 1,35,-1
 275 251 l 1,36,37
 234 251 234 251 212 241.5 c 128,-1,38
 190 232 190 232 180 214 c 128,-1,39
 170 196 170 196 163 163 c 2,40,-1
 116 -49 l 2,41,42
 104 -103 104 -103 96 -123.5 c 128,-1,43
 88 -144 88 -144 69 -153 c 128,-1,44
 50 -162 50 -162 7 -162 c 2,45,-1
 -52 -162 l 1,46,-1
 -44 -118 l 1,0,-1
EndSplineSet
EndChar
StartChar: asciitilde
Encoding: 126 126 333
Width: 566
GlyphClass: 1
Flags: W
LayerCount: 2
Fore
SplineSet
85.5 287.5 m 128,-1,1
 121 318 121 318 174 318 c 0,2,3
 204 318 204 318 231 309 c 128,-1,4
 258 300 258 300 294 284 c 0,5,6
 328 269 328 269 351.5 261 c 128,-1,7
 375 253 375 253 399 253 c 0,8,9
 434 253 434 253 455.5 271 c 128,-1,10
 477 289 477 289 489 324 c 1,11,-1
 537 314 l 1,12,13
 520 262 520 262 484.5 231.5 c 128,-1,14
 449 201 449 201 396 201 c 0,15,16
 367 201 367 201 342 209 c 128,-1,17
 317 217 317 217 275 235 c 0,18,19
 243 250 243 250 219.5 258 c 128,-1,20
 196 266 196 266 172 266 c 0,21,22
 136 266 136 266 114.5 248 c 128,-1,23
 93 230 93 230 81 195 c 1,24,-1
 33 205 l 1,25,0
 50 257 50 257 85.5 287.5 c 128,-1,1
EndSplineSet
EndChar
StartChar: exclamdown
Encoding: 161 161 264
Width: 262
GlyphClass: 1
Flags: W
LayerCount: 2
Fore
SplineSet
51 1 m 1,0,-1
 133 327 l 1,1,-1
 164 327 l 1,2,-1
 107 1 l 1,3,-1
 71 -170 l 1,4,-1
 15 -170 l 1,5,-1
 51 1 l 1,0,-1
143 428 m 128,-1,7
 129 442 129 442 129 462 c 256,8,9
 129 482 129 482 143 496 c 128,-1,10
 157 510 157 510 177 510 c 256,11,12
 197 510 197 510 211 496 c 128,-1,13
 225 482 225 482 225 462 c 256,14,15
 225 442 225 442 211 428 c 128,-1,16
 197 414 197 414 177 414 c 256,17,6
 157 414 157 414 143 428 c 128,-1,7
EndSplineSet
EndChar
StartChar: cent
Encoding: 162 162 311
Width: 469
GlyphClass: 1
Flags: W
LayerCount: 2
Fore
SplineSet
70.5 63 m 128,-1,1
 35 117 35 117 35 194 c 0,2,3
 35 269 35 269 66.5 338.5 c 128,-1,4
 98 408 98 408 154 453.5 c 128,-1,5
 210 499 210 499 280 503 c 1,6,-1
 298 586 l 1,7,-1
 336 586 l 1,8,-1
 318 502 l 1,9,10
 366 497 366 497 403.5 470.5 c 128,-1,11
 441 444 441 444 462 397 c 1,12,-1
 410 378 l 1,13,14
 395 409 395 409 368.5 427.5 c 128,-1,15
 342 446 342 446 308 450 c 1,16,-1
 220 39 l 1,17,18
 317 39 317 39 371 113 c 1,19,-1
 422 93 l 1,20,21
 348 -12 348 -12 209 -12 c 1,22,-1
 192 -90 l 1,23,-1
 154 -90 l 1,24,-1
 172 -6 l 1,25,0
 106 9 106 9 70.5 63 c 128,-1,1
174 402.5 m 128,-1,27
 134 362 134 362 114 306 c 128,-1,28
 94 250 94 250 94 199 c 0,29,30
 94 142 94 142 117 101 c 128,-1,31
 140 60 140 60 184 46 c 1,32,-1
 269 450 l 1,33,26
 214 443 214 443 174 402.5 c 128,-1,27
EndSplineSet
EndChar
StartChar: sterling
Encoding: 163 163 316
Width: 572
GlyphClass: 1
Flags: W
LayerCount: 2
Fore
SplineSet
159.5 134.5 m 128,-1,1
 207 197 207 197 207 268 c 0,2,3
 207 295 207 295 203 329 c 1,4,-1
 89 329 l 1,5,-1
 98 369 l 1,6,-1
 196 369 l 1,7,8
 188 405 188 405 182 437.5 c 128,-1,9
 176 470 176 470 176 494 c 0,10,11
 176 544 176 544 198.5 586.5 c 128,-1,12
 221 629 221 629 267 655 c 128,-1,13
 313 681 313 681 381 681 c 0,14,15
 459 681 459 681 513.5 644.5 c 128,-1,16
 568 608 568 608 578 543 c 1,17,-1
 516 531 l 1,18,19
 509 581 509 581 474 606.5 c 128,-1,20
 439 632 439 632 379 632 c 0,21,22
 312 632 312 632 272 596.5 c 128,-1,23
 232 561 232 561 232 496 c 0,24,25
 232 471 232 471 237 446.5 c 128,-1,26
 242 422 242 422 254 369 c 1,27,-1
 463 369 l 1,28,-1
 454 329 l 1,29,-1
 261 329 l 1,30,31
 264 310 264 310 264 288 c 0,32,33
 264 136 264 136 147 70 c 1,34,35
 165 77 165 77 184 77 c 256,36,37
 203 77 203 77 219.5 73 c 128,-1,38
 236 69 236 69 265 59 c 0,39,40
 294 48 294 48 317.5 42.5 c 128,-1,41
 341 37 341 37 370 37 c 0,42,43
 390 37 390 37 409 41.5 c 128,-1,44
 428 46 428 46 470 60 c 1,45,-1
 476 15 l 1,46,47
 405 -12 405 -12 362 -12 c 0,48,49
 337 -12 337 -12 316.5 -7 c 128,-1,50
 296 -2 296 -2 268 8 c 0,51,52
 237 18 237 18 218 22.5 c 128,-1,53
 199 27 199 27 173 27 c 0,54,55
 142 27 142 27 111.5 18.5 c 128,-1,56
 81 10 81 10 38 -10 c 1,57,-1
 28 30 l 1,58,0
 112 72 112 72 159.5 134.5 c 128,-1,1
EndSplineSet
EndChar
StartChar: currency
Encoding: 164 164 312
Width: 572
GlyphClass: 1
Flags: W
LayerCount: 2
Fore
SplineSet
68 115 m 1,0,-1
 133 180 l 1,1,2
 83 241 83 241 83 321 c 256,3,4
 83 401 83 401 133 462 c 1,5,-1
 68 527 l 1,6,-1
 96 553 l 1,7,-1
 162 489 l 1,8,9
 191 512 191 512 226.5 525 c 128,-1,10
 262 538 262 538 301 538 c 256,11,12
 340 538 340 538 376 525.5 c 128,-1,13
 412 513 412 513 441 489 c 1,14,-1
 506 553 l 1,15,-1
 534 527 l 1,16,-1
 469 462 l 1,17,18
 519 401 519 401 519 321 c 256,19,20
 519 241 519 241 469 180 c 1,21,-1
 534 115 l 1,22,-1
 506 89 l 1,23,-1
 441 153 l 1,24,25
 412 129 412 129 376 116.5 c 128,-1,26
 340 104 340 104 301 104 c 256,27,28
 262 104 262 104 226.5 117 c 128,-1,29
 191 130 191 130 162 153 c 1,30,-1
 96 89 l 1,31,-1
 68 115 l 1,0,-1
383.5 178 m 128,-1,33
 421 200 421 200 443 238 c 128,-1,34
 465 276 465 276 465 321 c 256,35,36
 465 366 465 366 443 404 c 128,-1,37
 421 442 421 442 383.5 464 c 128,-1,38
 346 486 346 486 301 486 c 256,39,40
 256 486 256 486 219 464 c 128,-1,41
 182 442 182 442 160 404 c 128,-1,42
 138 366 138 366 138 321 c 256,43,44
 138 276 138 276 160 238 c 128,-1,45
 182 200 182 200 219 178 c 128,-1,46
 256 156 256 156 301 156 c 256,47,32
 346 156 346 156 383.5 178 c 128,-1,33
EndSplineSet
EndChar
StartChar: yen
Encoding: 165 165 317
Width: 529
GlyphClass: 1
Flags: W
LayerCount: 2
Fore
SplineSet
201 92 m 1,0,-1
 39 92 l 1,1,-1
 48 131 l 1,2,-1
 209 131 l 1,3,-1
 230 229 l 1,4,-1
 69 229 l 1,5,-1
 77 268 l 1,6,-1
 232 268 l 1,7,-1
 89 668 l 1,8,-1
 147 668 l 1,9,-1
 275 312 l 1,10,-1
 552 668 l 1,11,-1
 618 668 l 1,12,-1
 305 268 l 1,13,-1
 459 268 l 1,14,-1
 451 229 l 1,15,-1
 291 229 l 1,16,-1
 271 131 l 1,17,-1
 430 131 l 1,18,-1
 421 92 l 1,19,-1
 262 92 l 1,20,-1
 243 0 l 1,21,-1
 181 0 l 1,22,-1
 201 92 l 1,0,-1
EndSplineSet
EndChar
StartChar: brokenbar
Encoding: 166 166 306
Width: 219
GlyphClass: 1
Flags: W
LayerCount: 2
Fore
SplineSet
79 233 m 1,0,-1
 134 233 l 1,1,-1
 50 -162 l 1,2,-1
 -5 -162 l 1,3,-1
 79 233 l 1,0,-1
207 838 m 1,4,-1
 262 838 l 1,5,-1
 178 443 l 1,6,-1
 123 443 l 1,7,-1
 207 838 l 1,4,-1
EndSplineSet
EndChar
StartChar: section
Encoding: 167 167 300
Width: 513
GlyphClass: 1
Flags: W
LayerCount: 2
Fore
SplineSet
74 -139 m 128,-1,1
 29 -105 29 -105 19 -48 c 1,2,-1
 79 -36 l 1,3,4
 86 -84 86 -84 119 -105.5 c 128,-1,5
 152 -127 152 -127 197 -127 c 0,6,7
 248 -127 248 -127 284 -100.5 c 128,-1,8
 320 -74 320 -74 320 -35 c 0,9,10
 320 -9 320 -9 299.5 13 c 128,-1,11
 279 35 279 35 231 71 c 2,12,-1
 148 133 l 2,13,14
 96 172 96 172 73.5 203 c 128,-1,15
 51 234 51 234 51 271 c 0,16,17
 51 385 51 385 213 432 c 1,18,19
 180 461 180 461 165.5 485 c 128,-1,20
 151 509 151 509 151 535 c 0,21,22
 151 578 151 578 177 611 c 128,-1,23
 203 644 203 644 245 662 c 128,-1,24
 287 680 287 680 333 680 c 0,25,26
 403 680 403 680 448.5 646.5 c 128,-1,27
 494 613 494 613 504 557 c 1,28,-1
 443 545 l 1,29,30
 436 593 436 593 404 613.5 c 128,-1,31
 372 634 372 634 326 634 c 0,32,33
 275 634 275 634 239 608 c 128,-1,34
 203 582 203 582 203 544 c 0,35,36
 203 518 203 518 223.5 496 c 128,-1,37
 244 474 244 474 292 438 c 2,38,-1
 375 376 l 2,39,40
 427 337 427 337 449.5 306 c 128,-1,41
 472 275 472 275 472 238 c 0,42,43
 472 124 472 124 310 77 c 1,44,45
 344 47 344 47 358 23 c 128,-1,46
 372 -1 372 -1 372 -27 c 0,47,48
 372 -70 372 -70 346 -103 c 128,-1,49
 320 -136 320 -136 278 -154.5 c 128,-1,50
 236 -173 236 -173 190 -173 c 0,51,0
 119 -173 119 -173 74 -139 c 128,-1,1
380.5 153.5 m 128,-1,53
 421 182 421 182 421 226 c 0,54,55
 421 254 421 254 399.5 280 c 128,-1,56
 378 306 378 306 333 341 c 2,57,-1
 248 404 l 1,58,59
 102 361 102 361 102 282 c 0,60,61
 102 255 102 255 123.5 229 c 128,-1,62
 145 203 145 203 190 168 c 2,63,-1
 275 105 l 1,64,52
 340 125 340 125 380.5 153.5 c 128,-1,53
EndSplineSet
EndChar
StartChar: copyright
Encoding: 169 169 301
Width: 800
GlyphClass: 1
Flags: W
LayerCount: 2
Fore
SplineSet
244 33.5 m 128,-1,1
 164 80 164 80 117.5 160 c 128,-1,2
 71 240 71 240 71 334 c 256,3,4
 71 428 71 428 117.5 508 c 128,-1,5
 164 588 164 588 244 634.5 c 128,-1,6
 324 681 324 681 418 681 c 256,7,8
 512 681 512 681 592 634.5 c 128,-1,9
 672 588 672 588 718.5 508 c 128,-1,10
 765 428 765 428 765 334 c 256,11,12
 765 240 765 240 718.5 160 c 128,-1,13
 672 80 672 80 592 33.5 c 128,-1,14
 512 -13 512 -13 418 -13 c 256,15,0
 324 -13 324 -13 244 33.5 c 128,-1,1
296.5 194.5 m 128,-1,17
 249 246 249 246 249 336 c 0,18,19
 249 425 249 425 297 475.5 c 128,-1,20
 345 526 345 526 424 526 c 0,21,22
 516 526 516 526 560 446 c 1,23,-1
 507 426 l 1,24,25
 480 481 480 481 418 481 c 0,26,27
 370 481 370 481 338.5 443.5 c 128,-1,28
 307 406 307 406 307 336 c 0,29,30
 307 267 307 267 339.5 228 c 128,-1,31
 372 189 372 189 420 189 c 0,32,33
 454 189 454 189 475.5 201.5 c 128,-1,34
 497 214 497 214 512 243 c 1,35,-1
 563 223 l 1,36,37
 517 143 517 143 423 143 c 0,38,16
 344 143 344 143 296.5 194.5 c 128,-1,17
567 76.5 m 128,-1,40
 635 117 635 117 675 185.5 c 128,-1,41
 715 254 715 254 715 334 c 256,42,43
 715 414 715 414 675 482.5 c 128,-1,44
 635 551 635 551 567 591.5 c 128,-1,45
 499 632 499 632 418 632 c 256,46,47
 337 632 337 632 268.5 591.5 c 128,-1,48
 200 551 200 551 160.5 482.5 c 128,-1,49
 121 414 121 414 121 334 c 256,50,51
 121 254 121 254 160.5 185.5 c 128,-1,52
 200 117 200 117 268.5 76.5 c 128,-1,53
 337 36 337 36 418 36 c 256,54,39
 499 36 499 36 567 76.5 c 128,-1,40
EndSplineSet
EndChar
StartChar: ordfeminine
Encoding: 170 170 223
Width: 359
GlyphClass: 1
Flags: W
LayerCount: 2
Fore
SplineSet
125.5 413 m 128,-1,1
 101 432 101 432 101 463 c 0,2,3
 101 520 101 520 163.5 544 c 128,-1,4
 226 568 226 568 311 567 c 1,5,6
 314 585 314 585 314 598 c 0,7,8
 314 626 314 626 299.5 637 c 128,-1,9
 285 648 285 648 253 648 c 0,10,11
 228 648 228 648 208.5 638 c 128,-1,12
 189 628 189 628 182 607 c 1,13,-1
 142 618 l 1,14,15
 154 650 154 650 185 669 c 128,-1,16
 216 688 216 688 258 688 c 0,17,18
 309 688 309 688 335.5 664 c 128,-1,19
 362 640 362 640 362 597 c 0,20,21
 362 581 362 581 357 558 c 2,22,-1
 342 491 l 2,23,24
 332 447 332 447 332 423 c 0,25,26
 332 416 332 416 334 400 c 1,27,-1
 291 400 l 1,28,-1
 289 445 l 1,29,30
 271 419 271 419 245 406.5 c 128,-1,31
 219 394 219 394 193 394 c 0,32,0
 150 394 150 394 125.5 413 c 128,-1,1
265 457.5 m 128,-1,34
 292 483 292 483 301 520 c 2,35,-1
 304 533 l 1,36,37
 228 532 228 532 190 515 c 128,-1,38
 152 498 152 498 152 467 c 0,39,40
 152 451 152 451 165 441.5 c 128,-1,41
 178 432 178 432 202 432 c 0,42,33
 238 432 238 432 265 457.5 c 128,-1,34
EndSplineSet
EndChar
StartChar: guillemotleft
Encoding: 171 171 289
Width: 509
GlyphClass: 1
Flags: W
LayerCount: 2
Fore
SplineSet
245 245 m 1,0,-1
 435 460 l 1,1,-1
 500 460 l 1,2,-1
 304 240 l 1,3,-1
 410 40 l 1,4,-1
 353 40 l 1,5,-1
 245 245 l 1,0,-1
53 250 m 1,6,-1
 243 460 l 1,7,-1
 308 460 l 1,8,-1
 112 245 l 1,9,-1
 218 40 l 1,10,-1
 161 40 l 1,11,-1
 53 250 l 1,6,-1
EndSplineSet
EndChar
StartChar: logicalnot
Encoding: 172 172 332
Width: 594
GlyphClass: 1
Flags: W
LayerCount: 2
Fore
SplineSet
500 328 m 1,0,-1
 70 328 l 1,1,-1
 81 383 l 1,2,-1
 570 383 l 1,3,-1
 511 107 l 1,4,-1
 453 107 l 1,5,-1
 500 328 l 1,0,-1
EndSplineSet
EndChar
StartChar: registered
Encoding: 174 174 302
Width: 800
GlyphClass: 1
Flags: W
LayerCount: 2
Fore
SplineSet
244 33.5 m 128,-1,1
 164 80 164 80 117.5 160 c 128,-1,2
 71 240 71 240 71 334 c 256,3,4
 71 428 71 428 117.5 508 c 128,-1,5
 164 588 164 588 244 634.5 c 128,-1,6
 324 681 324 681 418 681 c 256,7,8
 512 681 512 681 592 634.5 c 128,-1,9
 672 588 672 588 718.5 508 c 128,-1,10
 765 428 765 428 765 334 c 256,11,12
 765 240 765 240 718.5 160 c 128,-1,13
 672 80 672 80 592 33.5 c 128,-1,14
 512 -13 512 -13 418 -13 c 256,15,0
 324 -13 324 -13 244 33.5 c 128,-1,1
567 76.5 m 128,-1,17
 635 117 635 117 675 185.5 c 128,-1,18
 715 254 715 254 715 334 c 256,19,20
 715 414 715 414 675 482.5 c 128,-1,21
 635 551 635 551 567 591.5 c 128,-1,22
 499 632 499 632 418 632 c 256,23,24
 337 632 337 632 268.5 591.5 c 128,-1,25
 200 551 200 551 160.5 482.5 c 128,-1,26
 121 414 121 414 121 334 c 256,27,28
 121 254 121 254 160.5 185.5 c 128,-1,29
 200 117 200 117 268.5 76.5 c 128,-1,30
 337 36 337 36 418 36 c 256,31,16
 499 36 499 36 567 76.5 c 128,-1,17
295 529 m 1,32,-1
 420 529 l 2,33,34
 488 529 488 529 524.5 499 c 128,-1,35
 561 469 561 469 561 417 c 0,36,37
 561 377 561 377 537.5 349.5 c 128,-1,38
 514 322 514 322 473 311 c 1,39,-1
 581 162 l 1,40,-1
 515 162 l 1,41,-1
 415 302 l 1,42,-1
 350 302 l 1,43,-1
 350 162 l 1,44,-1
 295 162 l 1,45,-1
 295 529 l 1,32,-1
503 417 m 0,47,48
 503 452 503 452 479 468 c 128,-1,49
 455 484 455 484 410 484 c 2,50,-1
 350 484 l 1,51,-1
 350 348 l 1,52,-1
 416 348 l 2,53,46
 503 348 503 348 503 417 c 0,47,48
EndSplineSet
EndChar
StartChar: degree
Encoding: 176 176 304
Width: 326
GlyphClass: 1
Flags: W
LayerCount: 2
Fore
SplineSet
142 470 m 128,-1,1
 106 506 106 506 106 556 c 0,2,3
 106 608 106 608 142 644 c 128,-1,4
 178 680 178 680 229 680 c 0,5,6
 279 680 279 680 315 644 c 128,-1,7
 351 608 351 608 351 556 c 0,8,9
 351 506 351 506 315 470 c 128,-1,10
 279 434 279 434 229 434 c 0,11,0
 178 434 178 434 142 470 c 128,-1,1
284 501 m 128,-1,13
 307 524 307 524 307 556 c 0,14,15
 307 590 307 590 284.5 612.5 c 128,-1,16
 262 635 262 635 229 635 c 256,17,18
 196 635 196 635 173 612 c 128,-1,19
 150 589 150 589 150 556 c 0,20,21
 150 524 150 524 173.5 501 c 128,-1,22
 197 478 197 478 229 478 c 256,23,12
 261 478 261 478 284 501 c 128,-1,13
EndSplineSet
EndChar
StartChar: plusminus
Encoding: 177 177 330
Width: 582
GlyphClass: 1
Flags: W
LayerCount: 2
Fore
SplineSet
270 273 m 1,0,-1
 58 273 l 1,1,-1
 69 325 l 1,2,-1
 281 325 l 1,3,-1
 318 496 l 1,4,-1
 370 496 l 1,5,-1
 333 325 l 1,6,-1
 545 325 l 1,7,-1
 534 273 l 1,8,-1
 322 273 l 1,9,-1
 286 101 l 1,10,-1
 234 101 l 1,11,-1
 270 273 l 1,0,-1
12 55 m 1,12,-1
 488 55 l 1,13,-1
 476 0 l 1,14,-1
 0 0 l 1,15,-1
 12 55 l 1,12,-1
EndSplineSet
EndChar
StartChar: uni00B2
Encoding: 178 178 254
Width: 370
GlyphClass: 1
Flags: W
LayerCount: 2
Fore
SplineSet
281.5 583 m 128,-1,1
 344 643 344 643 344 696 c 0,2,3
 344 720 344 720 327.5 734 c 128,-1,4
 311 748 311 748 285 748 c 256,5,6
 259 748 259 748 238 733 c 128,-1,7
 217 718 217 718 207 682 c 1,8,-1
 157 693 l 1,9,10
 171 736 171 736 205.5 761 c 128,-1,11
 240 786 240 786 288 786 c 0,12,13
 338 786 338 786 368 762 c 128,-1,14
 398 738 398 738 398 698 c 0,15,16
 398 630 398 630 326.5 562.5 c 128,-1,17
 255 495 255 495 165 447 c 1,18,-1
 359 447 l 1,19,-1
 350 403 l 1,20,-1
 86 403 l 1,21,-1
 95 445 l 1,22,0
 219 523 219 523 281.5 583 c 128,-1,1
EndSplineSet
EndChar
StartChar: uni00B3
Encoding: 179 179 255
Width: 368
GlyphClass: 1
Flags: W
LayerCount: 2
Fore
SplineSet
145.5 422 m 128,-1,1
 112 448 112 448 107 488 c 1,2,-1
 155 498 l 1,3,4
 159 467 159 467 179.5 450.5 c 128,-1,5
 200 434 200 434 233 434 c 0,6,7
 270 434 270 434 294.5 457 c 128,-1,8
 319 480 319 480 319 518 c 0,9,10
 319 549 319 549 293 565.5 c 128,-1,11
 267 582 267 582 212 581 c 1,12,-1
 221 620 l 1,13,-1
 251 618 l 2,14,15
 299 618 299 618 323 638 c 128,-1,16
 347 658 347 658 347 694 c 0,17,18
 347 720 347 720 327.5 734 c 128,-1,19
 308 748 308 748 280 748 c 0,20,21
 224 748 224 748 195 687 c 1,22,-1
 148 697 l 1,23,24
 163 738 163 738 197.5 762 c 128,-1,25
 232 786 232 786 280 786 c 0,26,27
 329 786 329 786 364 761.5 c 128,-1,28
 399 737 399 737 399 692 c 0,29,30
 399 659 399 659 378.5 633.5 c 128,-1,31
 358 608 358 608 324 595 c 1,32,33
 347 582 347 582 358.5 561 c 128,-1,34
 370 540 370 540 370 517 c 0,35,36
 370 489 370 489 355 461 c 128,-1,37
 340 433 340 433 308.5 414.5 c 128,-1,38
 277 396 277 396 231 396 c 0,39,0
 179 396 179 396 145.5 422 c 128,-1,1
EndSplineSet
EndChar
StartChar: paragraph
Encoding: 182 182 299
Width: 481
GlyphClass: 1
Flags: W
LayerCount: 2
Fore
SplineSet
119.5 357.5 m 128,-1,1
 88 402 88 402 88 459 c 0,2,3
 88 480 88 480 92 499 c 0,4,5
 103 549 103 549 134.5 587.5 c 128,-1,6
 166 626 166 626 210.5 647 c 128,-1,7
 255 668 255 668 303 668 c 2,8,-1
 541 668 l 1,9,-1
 531 620 l 1,10,-1
 494 620 l 1,11,-1
 329 -162 l 1,12,-1
 273 -162 l 1,13,-1
 439 620 l 1,14,-1
 326 620 l 1,15,-1
 160 -162 l 1,16,-1
 105 -162 l 1,17,-1
 202 297 l 1,18,0
 151 313 151 313 119.5 357.5 c 128,-1,1
EndSplineSet
EndChar
StartChar: uni00B9
Encoding: 185 185 253
Width: 238
GlyphClass: 1
Flags: W
LayerCount: 2
Fore
SplineSet
232 701 m 1,0,-1
 150 701 l 1,1,-1
 155 728 l 1,2,3
 186 728 186 728 213 741 c 128,-1,4
 240 754 240 754 254 779 c 1,5,-1
 298 779 l 1,6,-1
 218 403 l 1,7,-1
 168 403 l 1,8,-1
 232 701 l 1,0,-1
EndSplineSet
EndChar
StartChar: ordmasculine
Encoding: 186 186 224
Width: 366
GlyphClass: 1
Flags: W
LayerCount: 2
Fore
SplineSet
145.5 425.5 m 128,-1,1
 113 457 113 457 113 513 c 0,2,3
 113 558 113 558 132 598.5 c 128,-1,4
 151 639 151 639 185.5 663.5 c 128,-1,5
 220 688 220 688 265 688 c 0,6,7
 313 688 313 688 345.5 656.5 c 128,-1,8
 378 625 378 625 378 569 c 0,9,10
 378 524 378 524 359 483.5 c 128,-1,11
 340 443 340 443 305.5 418.5 c 128,-1,12
 271 394 271 394 226 394 c 0,13,0
 178 394 178 394 145.5 425.5 c 128,-1,1
285 457.5 m 128,-1,15
 307 479 307 479 317 509.5 c 128,-1,16
 327 540 327 540 327 568 c 0,17,18
 327 603 327 603 310 624.5 c 128,-1,19
 293 646 293 646 262 646 c 0,20,21
 228 646 228 646 206 624.5 c 128,-1,22
 184 603 184 603 174 572.5 c 128,-1,23
 164 542 164 542 164 514 c 0,24,25
 164 479 164 479 181 457.5 c 128,-1,26
 198 436 198 436 229 436 c 0,27,14
 263 436 263 436 285 457.5 c 128,-1,15
EndSplineSet
EndChar
StartChar: guillemotright
Encoding: 187 187 290
Width: 508
GlyphClass: 1
Flags: W
LayerCount: 2
Fore
SplineSet
396 255 m 1,0,-1
 290 460 l 1,1,-1
 347 460 l 1,2,-1
 455 250 l 1,3,-1
 265 40 l 1,4,-1
 200 40 l 1,5,-1
 396 255 l 1,0,-1
204 260 m 1,6,-1
 98 460 l 1,7,-1
 155 460 l 1,8,-1
 263 255 l 1,9,-1
 73 40 l 1,10,-1
 8 40 l 1,11,-1
 204 260 l 1,6,-1
EndSplineSet
EndChar
StartChar: onequarter
Encoding: 188 188 251
Width: 782
GlyphClass: 3
Flags: W
LayerCount: 2
Fore
SplineSet
665 668 m 1,0,-1
 730 668 l 1,1,-1
 125 0 l 1,2,-1
 60 0 l 1,3,-1
 665 668 l 1,0,-1
207 588 m 1,4,-1
 125 588 l 1,5,-1
 131 616 l 1,6,7
 162 616 162 616 188.5 629 c 128,-1,8
 215 642 215 642 230 668 c 1,9,-1
 278 668 l 1,10,-1
 200 301 l 1,11,-1
 146 301 l 1,12,-1
 207 588 l 1,4,-1
582 124 m 1,13,-1
 617 292 l 1,14,-1
 457 124 l 1,15,-1
 582 124 l 1,13,-1
573 82 m 1,16,-1
 386 82 l 1,17,-1
 395 125 l 1,18,-1
 635 367 l 1,19,-1
 686 367 l 1,20,-1
 634 124 l 1,21,-1
 703 124 l 1,22,-1
 694 82 l 1,23,-1
 625 82 l 1,24,-1
 608 0 l 1,25,-1
 556 0 l 1,26,-1
 573 82 l 1,16,-1
EndSplineSet
Ligature2: "'frac' Diagonal Fractions in Latin lookup 7 subtable" one slash four
EndChar
StartChar: onehalf
Encoding: 189 189 250
Width: 807
GlyphClass: 3
Flags: W
LayerCount: 2
Fore
SplineSet
665 668 m 1,0,-1
 730 668 l 1,1,-1
 125 0 l 1,2,-1
 60 0 l 1,3,-1
 665 668 l 1,0,-1
207 588 m 1,4,-1
 125 588 l 1,5,-1
 131 616 l 1,6,7
 162 616 162 616 188.5 629 c 128,-1,8
 215 642 215 642 230 668 c 1,9,-1
 278 668 l 1,10,-1
 200 301 l 1,11,-1
 146 301 l 1,12,-1
 207 588 l 1,4,-1
635.5 181.5 m 128,-1,14
 692 236 692 236 692 284 c 0,15,16
 692 307 692 307 678 321 c 128,-1,17
 664 335 664 335 638 335 c 0,18,19
 615 335 615 335 592 320 c 128,-1,20
 569 305 569 305 555 271 c 1,21,-1
 507 284 l 1,22,23
 529 328 529 328 563 350.5 c 128,-1,24
 597 373 597 373 639 373 c 0,25,26
 690 373 690 373 718 348 c 128,-1,27
 746 323 746 323 746 286 c 0,28,29
 746 228 746 228 684 166 c 128,-1,30
 622 104 622 104 516 44 c 1,31,-1
 710 44 l 1,32,-1
 701 0 l 1,33,-1
 438 0 l 1,34,-1
 447 41 l 1,35,13
 579 127 579 127 635.5 181.5 c 128,-1,14
EndSplineSet
Ligature2: "'frac' Diagonal Fractions in Latin lookup 7 subtable" one slash two
EndChar
StartChar: threequarters
Encoding: 190 190 252
Width: 838
GlyphClass: 3
Flags: W
LayerCount: 2
Fore
SplineSet
721 668 m 1,0,-1
 786 668 l 1,1,-1
 181 0 l 1,2,-1
 116 0 l 1,3,-1
 721 668 l 1,0,-1
127 323.5 m 128,-1,5
 93 348 93 348 87 389 c 1,6,-1
 136 401 l 1,7,8
 139 372 139 372 158 354.5 c 128,-1,9
 177 337 177 337 214 337 c 0,10,11
 250 337 250 337 274.5 359 c 128,-1,12
 299 381 299 381 299 418 c 0,13,14
 299 449 299 449 276 463.5 c 128,-1,15
 253 478 253 478 219 478 c 0,16,17
 210 478 210 478 192 476 c 1,18,-1
 200 515 l 1,19,20
 209 514 209 514 225 514 c 0,21,22
 326 514 326 514 326 584 c 0,23,24
 326 610 326 610 308 624 c 128,-1,25
 290 638 290 638 261 638 c 0,26,27
 200 638 200 638 174 580 c 1,28,-1
 126 590 l 1,29,30
 143 631 143 631 178.5 654 c 128,-1,31
 214 677 214 677 263 677 c 0,32,33
 311 677 311 677 344 652 c 128,-1,34
 377 627 377 627 377 586 c 0,35,36
 377 553 377 553 356.5 528 c 128,-1,37
 336 503 336 503 303 491 c 1,38,39
 326 478 326 478 338 458.5 c 128,-1,40
 350 439 350 439 350 416 c 0,41,42
 350 365 350 365 311 332 c 128,-1,43
 272 299 272 299 212 299 c 0,44,4
 161 299 161 299 127 323.5 c 128,-1,5
628 82 m 1,45,-1
 441 82 l 1,46,-1
 451 125 l 1,47,-1
 691 367 l 1,48,-1
 741 367 l 1,49,-1
 690 124 l 1,50,-1
 758 124 l 1,51,-1
 749 82 l 1,52,-1
 680 82 l 1,53,-1
 663 0 l 1,54,-1
 611 0 l 1,55,-1
 628 82 l 1,45,-1
638 124 m 1,56,-1
 672 292 l 1,57,-1
 513 124 l 1,58,-1
 638 124 l 1,56,-1
EndSplineSet
Ligature2: "'frac' Diagonal Fractions in Latin lookup 7 subtable" three slash four
EndChar
StartChar: questiondown
Encoding: 191 191 266
Width: 408
GlyphClass: 1
Flags: W
LayerCount: 2
Fore
SplineSet
11 -143.5 m 128,-1,1
 -40 -103 -40 -103 -40 -36 c 0,2,3
 -40 13 -40 13 -19.5 50.5 c 128,-1,4
 1 88 1 88 36 117.5 c 128,-1,5
 71 147 71 147 129 185 c 0,6,7
 177 215 177 215 193.5 235 c 128,-1,8
 210 255 210 255 218 291 c 2,9,-1
 227 334 l 1,10,-1
 283 334 l 1,11,-1
 275 295 l 2,12,13
 262 239 262 239 237 207 c 128,-1,14
 212 175 212 175 153 139 c 0,15,16
 88 99 88 99 52 60 c 128,-1,17
 16 21 16 21 16 -30 c 0,18,19
 16 -77 16 -77 51 -106 c 128,-1,20
 86 -135 86 -135 141 -135 c 0,21,22
 197 -135 197 -135 240.5 -100.5 c 128,-1,23
 284 -66 284 -66 295 -11 c 1,24,-1
 351 -21 l 1,25,26
 330 -98 330 -98 271 -141 c 128,-1,27
 212 -184 212 -184 137 -184 c 256,28,0
 62 -184 62 -184 11 -143.5 c 128,-1,1
249 428 m 128,-1,30
 235 442 235 442 235 462 c 256,31,32
 235 482 235 482 249 496 c 128,-1,33
 263 510 263 510 283 510 c 256,34,35
 303 510 303 510 317 496 c 128,-1,36
 331 482 331 482 331 462 c 256,37,38
 331 442 331 442 317 428 c 128,-1,39
 303 414 303 414 283 414 c 256,40,29
 263 414 263 414 249 428 c 128,-1,30
EndSplineSet
EndChar
StartChar: Aring
Encoding: 197 197 10
Width: 586
GlyphClass: 2
Flags: W
AnchorPoint: "Anchor-2" 525 10 basechar 0
AnchorPoint: "Anchor-1" 417 835 basechar 0
AnchorPoint: "Anchor-0" 240 0 basechar 0
LayerCount: 2
Fore
SplineSet
313.5 693.5 m 128,-1,1
 301 715 301 715 301 739 c 0,2,3
 301 779 301 779 329.5 807 c 128,-1,4
 358 835 358 835 397 835 c 0,5,6
 437 835 437 835 465 807 c 128,-1,7
 493 779 493 779 493 739 c 0,8,9
 493 705 493 705 471.5 679 c 128,-1,10
 450 653 450 653 417 646 c 1,11,-1
 523 0 l 1,12,-1
 466 0 l 1,13,-1
 440 167 l 1,14,-1
 116 167 l 1,15,-1
 19 0 l 1,16,-1
 -43 0 l 1,17,-1
 347 658 l 1,18,0
 326 672 326 672 313.5 693.5 c 128,-1,1
433 217 m 1,19,-1
 373 611 l 1,20,-1
 144 217 l 1,21,-1
 433 217 l 1,19,-1
436 701 m 128,-1,23
 452 717 452 717 452 739 c 0,24,25
 452 762 452 762 436 778 c 128,-1,26
 420 794 420 794 397 794 c 0,27,28
 375 794 375 794 358.5 778 c 128,-1,29
 342 762 342 762 342 739 c 0,30,31
 342 717 342 717 358 701 c 128,-1,32
 374 685 374 685 397 685 c 256,33,22
 420 685 420 685 436 701 c 128,-1,23
EndSplineSet
EndChar
StartChar: AE
Encoding: 198 198 12
Width: 867
GlyphClass: 2
Flags: W
AnchorPoint: "Anchor-1" 506 668 basechar 0
AnchorPoint: "Anchor-0" 364 0 basechar 0
LayerCount: 2
Fore
SplineSet
461 668 m 1,0,-1
 912 668 l 1,1,-1
 901 618 l 1,2,-1
 543 618 l 1,3,-1
 490 369 l 1,4,-1
 780 369 l 1,5,-1
 770 319 l 1,6,-1
 479 319 l 1,7,-1
 422 50 l 1,8,-1
 784 50 l 1,9,-1
 774 0 l 1,10,-1
 353 0 l 1,11,-1
 389 167 l 1,12,-1
 139 167 l 1,13,-1
 12 0 l 1,14,-1
 -53 0 l 1,15,-1
 461 668 l 1,0,-1
400 217 m 1,16,-1
 485 621 l 1,17,-1
 177 217 l 1,18,-1
 400 217 l 1,16,-1
EndSplineSet
EndChar
StartChar: Ccedilla
Encoding: 199 199 17
Width: 633
GlyphClass: 2
Flags: W
AnchorPoint: "Anchor-1" 426 668 basechar 0
LayerCount: 2
Fore
SplineSet
200 -147 m 1,1,-1
 218 -123 l 1,2,3
 251 -145 251 -145 281 -145 c 0,4,5
 303 -145 303 -145 317 -133.5 c 128,-1,6
 331 -122 331 -122 331 -106 c 0,7,8
 331 -77 331 -77 289 -77 c 2,9,-1
 262 -79 l 2,10,11
 255 -79 255 -79 251 -76 c 128,-1,12
 247 -73 247 -73 247 -68 c 0,13,14
 247 -59 247 -59 254 -52 c 2,15,-1
 288 -11 l 1,16,17
 177 -1 177 -1 117 75 c 128,-1,18
 57 151 57 151 57 267 c 0,19,20
 57 365 57 365 98 460.5 c 128,-1,21
 139 556 139 556 218.5 618 c 128,-1,22
 298 680 298 680 406 680 c 0,23,24
 488 680 488 680 548.5 640.5 c 128,-1,25
 609 601 609 601 632 528 c 1,26,-1
 580 509 l 1,27,28
 561 567 561 567 514 598.5 c 128,-1,29
 467 630 467 630 402 630 c 0,30,31
 310 630 310 630 245 574 c 128,-1,32
 180 518 180 518 148 434.5 c 128,-1,33
 116 351 116 351 116 270 c 0,34,35
 116 167 116 167 169.5 102.5 c 128,-1,36
 223 38 223 38 322 38 c 0,37,38
 384 38 384 38 432 65.5 c 128,-1,39
 480 93 480 93 520 153 c 1,40,-1
 571 132 l 1,41,42
 526 56 526 56 464 23 c 128,-1,43
 402 -10 402 -10 324 -12 c 1,44,-1
 294 -47 l 1,45,46
 306 -44 306 -44 315 -44 c 0,47,48
 342 -44 342 -44 359 -59.5 c 128,-1,49
 376 -75 376 -75 376 -97 c 0,50,51
 376 -132 376 -132 349 -154.5 c 128,-1,52
 322 -177 322 -177 283 -177 c 0,53,0
 241 -177 241 -177 200 -147 c 1,1,-1
EndSplineSet
EndChar
StartChar: Eth
Encoding: 208 208 22
Width: 664
GlyphClass: 1
Flags: W
LayerCount: 2
Fore
SplineSet
120 326 m 1,0,-1
 43 326 l 1,1,-1
 53 376 l 1,2,-1
 131 376 l 1,3,-1
 193 668 l 1,4,-1
 298 668 l 2,5,6
 463 668 463 668 552 601 c 128,-1,7
 641 534 641 534 641 402 c 0,8,9
 641 300 641 300 604.5 208.5 c 128,-1,10
 568 117 568 117 488 58.5 c 128,-1,11
 408 0 408 0 285 0 c 2,12,-1
 51 0 l 1,13,-1
 120 326 l 1,0,-1
455.5 101.5 m 128,-1,15
 522 153 522 153 551.5 232 c 128,-1,16
 581 311 581 311 581 399 c 0,17,18
 581 618 581 618 292 618 c 2,19,-1
 240 618 l 1,20,-1
 189 376 l 1,21,-1
 390 376 l 1,22,-1
 380 326 l 1,23,-1
 179 326 l 1,24,-1
 119 50 l 1,25,-1
 284 50 l 2,26,14
 389 50 389 50 455.5 101.5 c 128,-1,15
EndSplineSet
EndChar
StartChar: multiply
Encoding: 215 215 322
Width: 517
GlyphClass: 1
Flags: W
LayerCount: 2
Fore
SplineSet
19 84 m 1,0,-1
 223 252 l 1,1,-1
 91 420 l 1,2,-1
 129 452 l 1,3,-1
 262 283 l 1,4,-1
 466 452 l 1,5,-1
 498 412 l 1,6,-1
 294 244 l 1,7,-1
 426 76 l 1,8,-1
 388 44 l 1,9,-1
 255 213 l 1,10,-1
 51 44 l 1,11,-1
 19 84 l 1,0,-1
EndSplineSet
EndChar
StartChar: Oslash
Encoding: 216 216 68
Width: 683
GlyphClass: 2
Flags: W
AnchorPoint: "Anchor-3" 767 668 basechar 0
AnchorPoint: "Anchor-1" 423 668 basechar 0
AnchorPoint: "Anchor-0" 291 0 basechar 0
LayerCount: 2
Fore
SplineSet
202.5 11 m 128,-1,1
 152 34 152 34 118 77 c 1,2,-1
 33 -3 l 1,3,-1
 6 24 l 1,4,-1
 95 109 l 1,5,6
 58 177 58 177 58 267 c 0,7,8
 58 370 58 370 100 465.5 c 128,-1,9
 142 561 142 561 221 620.5 c 128,-1,10
 300 680 300 680 403 680 c 0,11,12
 468 680 468 680 519 656.5 c 128,-1,13
 570 633 570 633 604 589 c 1,14,-1
 690 670 l 1,15,-1
 718 644 l 1,16,-1
 626 556 l 1,17,18
 662 492 662 492 662 401 c 0,19,20
 662 298 662 298 620 202.5 c 128,-1,21
 578 107 578 107 499 47.5 c 128,-1,22
 420 -12 420 -12 317 -12 c 0,23,0
 253 -12 253 -12 202.5 11 c 128,-1,1
475 94.5 m 128,-1,25
 539 151 539 151 571 235 c 128,-1,26
 603 319 603 319 603 399 c 0,27,28
 603 466 603 466 581 514 c 1,29,-1
 159 116 l 1,30,31
 185 78 185 78 225.5 58 c 128,-1,32
 266 38 266 38 319 38 c 0,33,24
 411 38 411 38 475 94.5 c 128,-1,25
140 152 m 1,35,-1
 561 549 l 1,36,37
 536 588 536 588 495.5 609 c 128,-1,38
 455 630 455 630 401 630 c 0,39,40
 309 630 309 630 245 573.5 c 128,-1,41
 181 517 181 517 149 433 c 128,-1,42
 117 349 117 349 117 269 c 0,43,34
 117 203 117 203 140 152 c 1,35,-1
EndSplineSet
EndChar
StartChar: Thorn
Encoding: 222 222 72
Width: 561
GlyphClass: 2
Flags: W
AnchorPoint: "Anchor-1" 351 668 basechar 0
AnchorPoint: "Anchor-0" 209 0 basechar 0
LayerCount: 2
Fore
SplineSet
171 668 m 1,0,-1
 229 668 l 1,1,-1
 200 532 l 1,2,-1
 321 532 l 2,3,4
 428 532 428 532 489 487 c 128,-1,5
 550 442 550 442 550 363 c 0,6,7
 550 298 550 298 521 249 c 128,-1,8
 492 200 492 200 440.5 173.5 c 128,-1,9
 389 147 389 147 324 147 c 2,10,-1
 118 147 l 1,11,-1
 87 0 l 1,12,-1
 29 0 l 1,13,-1
 171 668 l 1,0,-1
444 240 m 128,-1,15
 491 283 491 283 491 361 c 0,16,17
 491 420 491 420 445.5 451 c 128,-1,18
 400 482 400 482 314 482 c 2,19,-1
 190 482 l 1,20,-1
 129 197 l 1,21,-1
 316 197 l 2,22,14
 397 197 397 197 444 240 c 128,-1,15
EndSplineSet
EndChar
StartChar: germandbls
Encoding: 223 223 193
Width: 562
GlyphClass: 1
Flags: W
LayerCount: 2
Fore
SplineSet
265 39 m 0,1,2
 325 39 325 39 368.5 63.5 c 128,-1,3
 412 88 412 88 435 130 c 128,-1,4
 458 172 458 172 458 224 c 0,5,6
 458 271 458 271 430.5 307.5 c 128,-1,7
 403 344 403 344 358.5 364.5 c 128,-1,8
 314 385 314 385 264 385 c 2,9,-1
 262 385 l 1,10,-1
 272 435 l 1,11,12
 348 435 348 435 396.5 466 c 128,-1,13
 445 497 445 497 445 546 c 0,14,15
 445 586 445 586 414 608.5 c 128,-1,16
 383 631 383 631 339 631 c 0,17,18
 285 631 285 631 245.5 598 c 128,-1,19
 206 565 206 565 190 491 c 2,20,-1
 85 0 l 1,21,-1
 29 0 l 1,22,-1
 136 500 l 2,23,24
 154 581 154 581 204.5 630.5 c 128,-1,25
 255 680 255 680 337 680 c 0,26,27
 405 680 405 680 452.5 645.5 c 128,-1,28
 500 611 500 611 500 551 c 0,29,30
 500 499 500 499 465.5 462 c 128,-1,31
 431 425 431 425 368 409 c 1,32,33
 435 389 435 389 475 338.5 c 128,-1,34
 515 288 515 288 515 224 c 0,35,36
 515 158 515 158 482 104 c 128,-1,37
 449 50 449 50 391 19.5 c 128,-1,38
 333 -11 333 -11 259 -11 c 0,39,40
 242 -11 242 -11 208 -7 c 1,41,-1
 204 45 l 1,42,0
 237 39 237 39 265 39 c 0,1,2
EndSplineSet
EndChar
StartChar: ae
Encoding: 230 230 122
Width: 849
GlyphClass: 2
Flags: W
AnchorPoint: "Anchor-1" 478 496 basechar 0
AnchorPoint: "Anchor-0" 372 0 basechar 0
LayerCount: 2
Fore
SplineSet
52.5 20 m 128,-1,1
 7 52 7 52 7 110 c 0,2,3
 7 203 7 203 90.5 246 c 128,-1,4
 174 289 174 289 337 289 c 2,5,-1
 379 288 l 1,6,-1
 383 307 l 2,7,8
 388 334 388 334 388 352 c 0,9,10
 388 402 388 402 360 430.5 c 128,-1,11
 332 459 332 459 277 459 c 0,12,13
 232 459 232 459 195 437 c 128,-1,14
 158 415 158 415 144 372 c 1,15,-1
 87 386 l 1,16,17
 113 446 113 446 164.5 476 c 128,-1,18
 216 506 216 506 278 506 c 0,19,20
 343 506 343 506 383 481 c 128,-1,21
 423 456 423 456 437 408 c 1,22,23
 471 453 471 453 519.5 479.5 c 128,-1,24
 568 506 568 506 624 506 c 0,25,26
 684 506 684 506 727.5 479 c 128,-1,27
 771 452 771 452 793.5 405.5 c 128,-1,28
 816 359 816 359 816 302 c 0,29,30
 816 273 816 273 810 243 c 1,31,-1
 426 243 l 1,32,33
 423 222 423 222 423 203 c 0,34,35
 423 129 423 129 461 83.5 c 128,-1,36
 499 38 499 38 571 38 c 0,37,38
 657 38 657 38 705 101 c 1,39,-1
 760 80 l 1,40,41
 718 30 718 30 672.5 9 c 128,-1,42
 627 -12 627 -12 569 -12 c 0,43,44
 496 -12 496 -12 447 22.5 c 128,-1,45
 398 57 398 57 378 117 c 1,46,47
 347 56 347 56 288 22 c 128,-1,48
 229 -12 229 -12 161 -12 c 0,49,0
 98 -12 98 -12 52.5 20 c 128,-1,1
290.5 75 m 128,-1,51
 343 114 343 114 360 195 c 2,52,-1
 370 243 l 1,53,-1
 330 244 l 1,54,55
 64 244 64 244 64 118 c 0,56,57
 64 79 64 79 96 57.5 c 128,-1,58
 128 36 128 36 174 36 c 0,59,50
 238 36 238 36 290.5 75 c 128,-1,51
761 308 m 0,61,62
 761 371 761 371 723.5 413.5 c 128,-1,63
 686 456 686 456 620 456 c 0,64,65
 547 456 547 456 501.5 408 c 128,-1,66
 456 360 456 360 436 289 c 1,67,-1
 760 289 l 1,68,60
 761 295 761 295 761 308 c 0,61,62
EndSplineSet
EndChar
StartChar: ccedilla
Encoding: 231 231 127
Width: 470
GlyphClass: 2
Flags: W
AnchorPoint: "Anchor-1" 311 496 basechar 0
LayerCount: 2
Fore
SplineSet
93 -147 m 1,1,-1
 111 -123 l 1,2,3
 144 -145 144 -145 174 -145 c 0,4,5
 196 -145 196 -145 210 -133.5 c 128,-1,6
 224 -122 224 -122 224 -106 c 0,7,8
 224 -77 224 -77 182 -77 c 2,9,-1
 156 -79 l 2,10,11
 140 -79 140 -79 140 -68 c 0,12,13
 140 -59 140 -59 147 -52 c 2,14,-1
 183 -8 l 1,15,16
 113 6 113 6 74.5 62 c 128,-1,17
 36 118 36 118 36 196 c 256,18,19
 36 274 36 274 69 345.5 c 128,-1,20
 102 417 102 417 161.5 461.5 c 128,-1,21
 221 506 221 506 296 506 c 0,22,23
 358 506 358 506 400.5 476 c 128,-1,24
 443 446 443 446 464 395 c 1,25,-1
 413 377 l 1,26,27
 399 414 399 414 366.5 435 c 128,-1,28
 334 456 334 456 292 456 c 0,29,30
 226 456 226 456 181 414.5 c 128,-1,31
 136 373 136 373 114.5 312.5 c 128,-1,32
 93 252 93 252 93 197 c 0,33,34
 93 126 93 126 128.5 82 c 128,-1,35
 164 38 164 38 232 38 c 0,36,37
 274 38 274 38 311.5 56.5 c 128,-1,38
 349 75 349 75 371 111 c 1,39,-1
 422 90 l 1,40,41
 384 42 384 42 337 14.5 c 128,-1,42
 290 -13 290 -13 219 -12 c 1,43,-1
 188 -47 l 1,44,45
 199 -44 199 -44 209 -44 c 0,46,47
 235 -44 235 -44 252 -59.5 c 128,-1,48
 269 -75 269 -75 269 -97 c 0,49,50
 269 -132 269 -132 242.5 -154.5 c 128,-1,51
 216 -177 216 -177 177 -177 c 0,52,0
 134 -177 134 -177 93 -147 c 1,1,-1
EndSplineSet
EndChar
StartChar: eth
Encoding: 240 240 132
Width: 546
GlyphClass: 2
Flags: W
AnchorPoint: "Anchor-1" 387 796 basechar 0
AnchorPoint: "Anchor-0" 218 0 basechar 0
LayerCount: 2
Fore
SplineSet
121.5 14.5 m 128,-1,1
 77 41 77 41 54 85.5 c 128,-1,2
 31 130 31 130 31 183 c 0,3,4
 31 247 31 247 61 306.5 c 128,-1,5
 91 366 91 366 147 403.5 c 128,-1,6
 203 441 203 441 275 441 c 0,7,8
 342 441 342 441 391 404.5 c 128,-1,9
 440 368 440 368 451 307 c 1,10,11
 457 367 457 367 457 421 c 0,12,13
 457 530 457 530 420 584 c 1,14,-1
 326 515 l 1,15,-1
 302 548 l 1,16,-1
 393 613 l 1,17,18
 370 631 370 631 333 644 c 128,-1,19
 296 657 296 657 250 662 c 1,20,-1
 260 709 l 1,21,22
 370 697 370 697 436 646 c 1,23,-1
 496 690 l 1,24,-1
 521 659 l 1,25,-1
 463 617 l 1,26,27
 487 581 487 581 497 534.5 c 128,-1,28
 507 488 507 488 507 424 c 0,29,30
 507 314 507 314 478.5 214.5 c 128,-1,31
 450 115 450 115 387.5 51.5 c 128,-1,32
 325 -12 325 -12 227 -12 c 0,33,0
 166 -12 166 -12 121.5 14.5 c 128,-1,1
327 66 m 128,-1,35
 370 95 370 95 393.5 142.5 c 128,-1,36
 417 190 417 190 417 243 c 0,37,38
 417 309 417 309 378 351 c 128,-1,39
 339 393 339 393 272 393 c 0,40,41
 217 393 217 393 175 362.5 c 128,-1,42
 133 332 133 332 110 283 c 128,-1,43
 87 234 87 234 87 180 c 0,44,45
 87 116 87 116 125 76.5 c 128,-1,46
 163 37 163 37 229 37 c 0,47,34
 284 37 284 37 327 66 c 128,-1,35
EndSplineSet
EndChar
StartChar: divide
Encoding: 247 247 323
Width: 606
GlyphClass: 1
Flags: W
LayerCount: 2
Fore
SplineSet
60 274 m 1,0,-1
 556 274 l 1,1,-1
 546 222 l 1,2,-1
 50 222 l 1,3,-1
 60 274 l 1,0,-1
227 43.5 m 128,-1,5
 210 60 210 60 210 85 c 0,6,7
 210 108 210 108 227 124.5 c 128,-1,8
 244 141 244 141 268 141 c 256,9,10
 292 141 292 141 308 124.5 c 128,-1,11
 324 108 324 108 324 85 c 0,12,13
 324 60 324 60 308 43.5 c 128,-1,14
 292 27 292 27 268 27 c 256,15,4
 244 27 244 27 227 43.5 c 128,-1,5
297 371.5 m 128,-1,17
 280 387 280 387 280 411 c 0,18,19
 280 436 280 436 297 453 c 128,-1,20
 314 470 314 470 338 470 c 256,21,22
 362 470 362 470 378 453 c 128,-1,23
 394 436 394 436 394 411 c 0,24,25
 394 387 394 387 378 371.5 c 128,-1,26
 362 356 362 356 338 356 c 256,27,16
 314 356 314 356 297 371.5 c 128,-1,17
EndSplineSet
EndChar
StartChar: oslash
Encoding: 248 248 179
Width: 530
GlyphClass: 2
Flags: W
AnchorPoint: "Anchor-3" 569 496 basechar 0
AnchorPoint: "Anchor-1" 315 496 basechar 0
AnchorPoint: "Anchor-0" 212 0 basechar 0
LayerCount: 2
Fore
SplineSet
85 52 m 1,1,-1
 29 -1 l 1,2,-1
 1 27 l 1,3,-1
 62 85 l 1,4,5
 36 135 36 135 36 200 c 0,6,7
 36 276 36 276 69 346.5 c 128,-1,8
 102 417 102 417 162 461.5 c 128,-1,9
 222 506 222 506 300 506 c 0,10,11
 389 506 389 506 444 443 c 1,12,-1
 501 497 l 1,13,-1
 528 469 l 1,14,-1
 466 411 l 1,15,16
 493 360 493 360 493 294 c 0,17,18
 493 218 493 218 460 147 c 128,-1,19
 427 76 427 76 367 32 c 128,-1,20
 307 -12 307 -12 229 -12 c 0,21,0
 138 -12 138 -12 85 52 c 1,1,-1
346 78.5 m 128,-1,23
 392 119 392 119 414 178.5 c 128,-1,24
 436 238 436 238 436 294 c 0,25,26
 436 337 436 337 424 371 c 1,27,-1
 125 89 l 1,28,29
 162 38 162 38 234 38 c 0,30,22
 300 38 300 38 346 78.5 c 128,-1,23
105 125 m 1,32,-1
 404 406 l 1,33,34
 367 456 367 456 295 456 c 0,35,36
 229 456 229 456 183 415.5 c 128,-1,37
 137 375 137 375 115 315.5 c 128,-1,38
 93 256 93 256 93 200 c 0,39,31
 93 158 93 158 105 125 c 1,32,-1
EndSplineSet
EndChar
StartChar: thorn
Encoding: 254 254 183
Width: 545
GlyphClass: 2
Flags: W
AnchorPoint: "Anchor-1" 324 496 basechar 0
AnchorPoint: "Anchor-0" 219 0 basechar 0
LayerCount: 2
Fore
SplineSet
173 708 m 1,0,-1
 229 708 l 1,1,-1
 166 415 l 1,2,3
 192 455 192 455 238 480.5 c 128,-1,4
 284 506 284 506 337 506 c 0,5,6
 418 506 418 506 464 449.5 c 128,-1,7
 510 393 510 393 510 301 c 0,8,9
 510 228 510 228 480.5 155.5 c 128,-1,10
 451 83 451 83 392 35.5 c 128,-1,11
 333 -12 333 -12 249 -12 c 0,12,13
 188 -12 188 -12 148.5 19 c 128,-1,14
 109 50 109 50 99 95 c 1,15,-1
 45 -162 l 1,16,-1
 -11 -162 l 1,17,-1
 173 708 l 1,0,-1
366 79 m 128,-1,19
 411 121 411 121 431.5 182 c 128,-1,20
 452 243 452 243 452 300 c 0,21,22
 452 372 452 372 418.5 414 c 128,-1,23
 385 456 385 456 323 456 c 0,24,25
 258 456 258 456 213 411 c 128,-1,26
 168 366 168 366 146.5 301.5 c 128,-1,27
 125 237 125 237 125 180 c 0,28,29
 125 112 125 112 158 74.5 c 128,-1,30
 191 37 191 37 253 37 c 0,31,18
 321 37 321 37 366 79 c 128,-1,19
EndSplineSet
EndChar
StartChar: Aogonek
Encoding: 260 260 9
Width: 586
GlyphClass: 2
Flags: W
AnchorPoint: "Anchor-1" 382 668 basechar 0
AnchorPoint: "Anchor-0" 240 0 basechar 0
LayerCount: 2
Fore
SplineSet
394.5 -151 m 128,-1,1
 370 -134 370 -134 370 -103 c 0,2,3
 370 -66 370 -66 396 -40 c 128,-1,4
 422 -14 422 -14 465 7 c 1,5,-1
 440 167 l 1,6,-1
 116 167 l 1,7,-1
 19 0 l 1,8,-1
 -43 0 l 1,9,-1
 352 668 l 1,10,-1
 414 668 l 1,11,-1
 523 0 l 1,12,13
 483 -11 483 -11 451 -35.5 c 128,-1,14
 419 -60 419 -60 419 -91 c 0,15,16
 419 -126 419 -126 470 -126 c 0,17,18
 482 -126 482 -126 496 -122 c 1,19,-1
 488 -163 l 1,20,21
 471 -168 471 -168 454 -168 c 0,22,0
 419 -168 419 -168 394.5 -151 c 128,-1,1
433 217 m 1,23,-1
 373 611 l 1,24,-1
 144 217 l 1,25,-1
 433 217 l 1,23,-1
EndSplineSet
EndChar
StartChar: aogonek
Encoding: 261 261 119
Width: 505
GlyphClass: 2
Flags: W
AnchorPoint: "Anchor-1" 294 496 basechar 0
AnchorPoint: "Anchor-0" 194 0 basechar 0
LayerCount: 2
Fore
SplineSet
260.5 -151 m 128,-1,1
 238 -134 238 -134 238 -105 c 0,2,3
 238 -37 238 -37 345 11 c 1,4,-1
 344 80 l 1,5,6
 317 41 317 41 270 14.5 c 128,-1,7
 223 -12 223 -12 161 -12 c 0,8,9
 97 -12 97 -12 52 20 c 128,-1,10
 7 52 7 52 7 113 c 0,11,12
 7 210 7 210 98.5 253.5 c 128,-1,13
 190 297 190 297 381 297 c 1,14,-1
 383 306 l 2,15,16
 388 334 388 334 388 354 c 0,17,18
 388 404 388 404 360.5 431.5 c 128,-1,19
 333 459 333 459 277 459 c 0,20,21
 232 459 232 459 195 437 c 128,-1,22
 158 415 158 415 144 372 c 1,23,-1
 87 386 l 1,24,25
 113 446 113 446 164.5 476 c 128,-1,26
 216 506 216 506 280 506 c 0,27,28
 359 506 359 506 401 467.5 c 128,-1,29
 443 429 443 429 443 358 c 0,30,31
 443 327 443 327 436 295 c 2,32,-1
 415 194 l 2,33,34
 391 81 391 81 391 0 c 1,35,36
 351 -12 351 -12 319 -37 c 128,-1,37
 287 -62 287 -62 287 -92 c 0,38,39
 287 -126 287 -126 339 -126 c 0,40,41
 355 -126 355 -126 365 -123 c 1,42,-1
 356 -164 l 1,43,44
 336 -168 336 -168 317 -168 c 0,45,0
 283 -168 283 -168 260.5 -151 c 128,-1,1
290.5 75.5 m 128,-1,47
 343 115 343 115 360 195 c 2,48,-1
 372 251 l 1,49,50
 214 252 214 252 139 220.5 c 128,-1,51
 64 189 64 189 64 121 c 0,52,53
 64 80 64 80 95.5 58 c 128,-1,54
 127 36 127 36 174 36 c 0,55,46
 238 36 238 36 290.5 75.5 c 128,-1,47
EndSplineSet
EndChar
StartChar: dcroat
Encoding: 273 273 131
Width: 550
GlyphClass: 1
Flags: W
LayerCount: 2
Fore
SplineSet
81.5 44 m 128,-1,1
 36 100 36 100 36 194 c 0,2,3
 36 266 36 266 65 338.5 c 128,-1,4
 94 411 94 411 153 458.5 c 128,-1,5
 212 506 212 506 295 506 c 0,6,7
 351 506 351 506 393.5 477.5 c 128,-1,8
 436 449 436 449 447 401 c 1,9,-1
 481 560 l 1,10,-1
 323 560 l 1,11,-1
 332 602 l 1,12,-1
 491 602 l 1,13,-1
 514 708 l 1,14,-1
 569 708 l 1,15,-1
 547 602 l 1,16,-1
 622 602 l 1,17,-1
 614 560 l 1,18,-1
 538 560 l 1,19,-1
 457 183 l 2,20,21
 449 143 449 143 442.5 101.5 c 128,-1,22
 436 60 436 60 435 0 c 1,23,-1
 384 0 l 1,24,-1
 378 76 l 1,25,26
 351 36 351 36 305.5 12 c 128,-1,27
 260 -12 260 -12 208 -12 c 0,28,0
 127 -12 127 -12 81.5 44 c 128,-1,1
329.5 81 m 128,-1,30
 375 125 375 125 398 189.5 c 128,-1,31
 421 254 421 254 421 313 c 0,32,33
 421 381 421 381 387.5 418.5 c 128,-1,34
 354 456 354 456 292 456 c 0,35,36
 224 456 224 456 179 414 c 128,-1,37
 134 372 134 372 113.5 311.5 c 128,-1,38
 93 251 93 251 93 194 c 0,39,40
 93 123 93 123 126.5 80 c 128,-1,41
 160 37 160 37 222 37 c 256,42,29
 284 37 284 37 329.5 81 c 128,-1,30
EndSplineSet
EndChar
StartChar: Eogonek
Encoding: 280 280 31
Width: 544
GlyphClass: 2
Flags: W
AnchorPoint: "Anchor-1" 281 668 basechar 0
AnchorPoint: "Anchor-0" 218 0 basechar 0
LayerCount: 2
Fore
SplineSet
171 668 m 1,0,-1
 589 668 l 1,1,-1
 578 618 l 1,2,-1
 219 618 l 1,3,-1
 165 369 l 1,4,-1
 458 369 l 1,5,-1
 447 319 l 1,6,-1
 155 319 l 1,7,-1
 97 50 l 1,8,-1
 461 50 l 1,9,-1
 451 0 l 1,10,11
 411 -12 411 -12 379.5 -36 c 128,-1,12
 348 -60 348 -60 348 -91 c 0,13,14
 348 -126 348 -126 398 -126 c 0,15,16
 410 -126 410 -126 424 -122 c 1,17,-1
 416 -163 l 1,18,19
 399 -168 399 -168 383 -168 c 0,20,21
 347 -168 347 -168 322.5 -151 c 128,-1,22
 298 -134 298 -134 298 -103 c 0,23,24
 298 -43 298 -43 380 0 c 1,25,-1
 29 0 l 1,26,-1
 171 668 l 1,0,-1
EndSplineSet
EndChar
StartChar: eogonek
Encoding: 281 281 141
Width: 523
GlyphClass: 2
Flags: W
AnchorPoint: "Anchor-1" 313 496 basechar 0
AnchorPoint: "Anchor-0" 207 0 basechar 0
LayerCount: 2
Fore
SplineSet
252.5 -151 m 128,-1,1
 230 -134 230 -134 230 -104 c 0,2,3
 230 -80 230 -80 244.5 -55 c 128,-1,4
 259 -30 259 -30 282 -9 c 1,5,6
 261 -12 261 -12 241 -12 c 0,7,8
 184 -12 184 -12 137.5 12 c 128,-1,9
 91 36 91 36 63.5 83 c 128,-1,10
 36 130 36 130 36 197 c 0,11,12
 36 273 36 273 69 344.5 c 128,-1,13
 102 416 102 416 161.5 461 c 128,-1,14
 221 506 221 506 297 506 c 0,15,16
 356 506 356 506 399.5 479.5 c 128,-1,17
 443 453 443 453 466.5 406.5 c 128,-1,18
 490 360 490 360 490 302 c 0,19,20
 490 273 490 273 484 243 c 1,21,-1
 96 243 l 1,22,23
 93 224 93 224 93 205 c 0,24,25
 93 131 93 131 132.5 84.5 c 128,-1,26
 172 38 172 38 245 38 c 0,27,28
 331 38 331 38 379 101 c 1,29,-1
 434 80 l 1,30,31
 400 39 400 39 346 8 c 0,32,33
 318 -9 318 -9 299 -34.5 c 128,-1,34
 280 -60 280 -60 280 -85 c 0,35,36
 280 -106 280 -106 294.5 -116 c 128,-1,37
 309 -126 309 -126 333 -126 c 0,38,39
 345 -126 345 -126 357 -122 c 1,40,-1
 348 -163 l 1,41,42
 331 -168 331 -168 314 -168 c 0,43,0
 275 -168 275 -168 252.5 -151 c 128,-1,1
435 309 m 0,45,46
 435 372 435 372 397.5 414 c 128,-1,47
 360 456 360 456 293 456 c 0,48,49
 220 456 220 456 173.5 408 c 128,-1,50
 127 360 127 360 106 289 c 1,51,-1
 434 289 l 1,52,44
 435 296 435 296 435 309 c 0,45,46
EndSplineSet
EndChar
StartChar: Hbar
Encoding: 294 294 38
Width: 668
GlyphClass: 1
Flags: W
LayerCount: 2
Fore
SplineSet
139 516 m 1,0,-1
 74 516 l 1,1,-1
 84 564 l 1,2,-1
 149 564 l 1,3,-1
 171 668 l 1,4,-1
 229 668 l 1,5,-1
 207 564 l 1,6,-1
 595 564 l 1,7,-1
 617 668 l 1,8,-1
 675 668 l 1,9,-1
 653 564 l 1,10,-1
 718 564 l 1,11,-1
 708 516 l 1,12,-1
 643 516 l 1,13,-1
 533 0 l 1,14,-1
 475 0 l 1,15,-1
 542 320 l 1,16,-1
 155 320 l 1,17,-1
 87 0 l 1,18,-1
 29 0 l 1,19,-1
 139 516 l 1,0,-1
553 370 m 1,20,-1
 585 516 l 1,21,-1
 197 516 l 1,22,-1
 165 370 l 1,23,-1
 553 370 l 1,20,-1
EndSplineSet
EndChar
StartChar: hbar
Encoding: 295 295 148
Width: 537
GlyphClass: 1
Flags: W
LayerCount: 2
Fore
SplineSet
141 560 m 1,0,-1
 65 560 l 1,1,-1
 73 602 l 1,2,-1
 149 602 l 1,3,-1
 172 708 l 1,4,-1
 228 708 l 1,5,-1
 205 602 l 1,6,-1
 364 602 l 1,7,-1
 355 560 l 1,8,-1
 196 560 l 1,9,-1
 167 419 l 1,10,11
 192 457 192 457 236.5 481 c 128,-1,12
 281 505 281 505 338 505 c 0,13,14
 400 505 400 505 440.5 469 c 128,-1,15
 481 433 481 433 481 364 c 0,16,17
 481 338 481 338 475 308 c 2,18,-1
 409 0 l 1,19,-1
 353 0 l 1,20,-1
 417 298 l 2,21,22
 423 327 423 327 423 351 c 0,23,24
 423 402 423 402 397 429 c 128,-1,25
 371 456 371 456 321 456 c 0,26,27
 252 456 252 456 202.5 407 c 128,-1,28
 153 358 153 358 135 273 c 2,29,-1
 78 0 l 1,30,-1
 22 0 l 1,31,-1
 141 560 l 1,0,-1
EndSplineSet
EndChar
StartChar: Iogonek
Encoding: 302 302 47
Width: 360
GlyphClass: 2
Flags: W
AnchorPoint: "Anchor-1" 269 668 basechar 0
AnchorPoint: "Anchor-0" 128 0 basechar 0
LayerCount: 2
Fore
SplineSet
13 44 m 1,0,-1
 107 44 l 1,1,-1
 231 624 l 1,2,-1
 137 624 l 1,3,-1
 146 668 l 1,4,-1
 392 668 l 1,5,-1
 383 624 l 1,6,-1
 289 624 l 1,7,-1
 165 44 l 1,8,-1
 259 44 l 1,9,-1
 250 0 l 1,10,11
 210 -12 210 -12 178.5 -36 c 128,-1,12
 147 -60 147 -60 147 -91 c 0,13,14
 147 -126 147 -126 198 -126 c 0,15,16
 209 -126 209 -126 223 -122 c 1,17,-1
 215 -163 l 1,18,19
 199 -168 199 -168 182 -168 c 0,20,21
 147 -168 147 -168 122.5 -151 c 128,-1,22
 98 -134 98 -134 98 -103 c 0,23,24
 98 -42 98 -42 180 0 c 1,25,-1
 4 0 l 1,26,-1
 13 44 l 1,0,-1
EndSplineSet
EndChar
StartChar: iogonek
Encoding: 303 303 156
Width: 222
GlyphClass: 2
Flags: W
AnchorPoint: "Anchor-1" 201 694 basechar 0
AnchorPoint: "Anchor-0" 57 0 basechar 0
LayerCount: 2
Fore
SplineSet
158.5 614.5 m 128,-1,1
 145 628 145 628 145 647 c 256,2,3
 145 666 145 666 158.5 679.5 c 128,-1,4
 172 693 172 693 191 693 c 0,5,6
 211 693 211 693 224 680 c 128,-1,7
 237 667 237 667 237 647 c 0,8,9
 237 628 237 628 223.5 614.5 c 128,-1,10
 210 601 210 601 191 601 c 256,11,0
 172 601 172 601 158.5 614.5 c 128,-1,1
-38 -151 m 128,-1,13
 -60 -134 -60 -134 -60 -105 c 0,14,15
 -60 -39 -60 -39 38 7 c 1,16,-1
 132 451 l 1,17,-1
 71 451 l 1,18,-1
 81 496 l 1,19,-1
 198 496 l 1,20,-1
 92 0 l 1,21,22
 52 -12 52 -12 20 -37 c 128,-1,23
 -12 -62 -12 -62 -12 -92 c 0,24,25
 -12 -126 -12 -126 41 -126 c 0,26,27
 56 -126 56 -126 66 -123 c 1,28,-1
 57 -164 l 1,29,30
 38 -168 38 -168 18 -168 c 0,31,12
 -16 -168 -16 -168 -38 -151 c 128,-1,13
EndSplineSet
EndChar
StartChar: dotlessi
Encoding: 305 305 150
Width: 222
GlyphClass: 2
Flags: W
AnchorPoint: "Anchor-2" 94 10 basechar 0
AnchorPoint: "Anchor-1" 159 496 basechar 0
AnchorPoint: "Anchor-0" 57 0 basechar 0
LayerCount: 2
Fore
SplineSet
132 451 m 1,0,-1
 71 451 l 1,1,-1
 81 496 l 1,2,-1
 198 496 l 1,3,-1
 92 0 l 1,4,-1
 36 0 l 1,5,-1
 132 451 l 1,0,-1
EndSplineSet
EndChar
StartChar: Lslash
Encoding: 321 321 55
Width: 553
GlyphClass: 1
Flags: W
LayerCount: 2
Fore
SplineSet
114 259 m 1,0,-1
 -15 193 l 1,1,-1
 -2 252 l 1,2,-1
 126 318 l 1,3,-1
 201 668 l 1,4,-1
 259 668 l 1,5,-1
 191 352 l 1,6,-1
 417 467 l 1,7,-1
 404 408 l 1,8,-1
 179 292 l 1,9,-1
 127 50 l 1,10,-1
 505 50 l 1,11,-1
 495 0 l 1,12,-1
 59 0 l 1,13,-1
 114 259 l 1,0,-1
EndSplineSet
EndChar
StartChar: lslash
Encoding: 322 322 166
Width: 275
GlyphClass: 1
Flags: W
LayerCount: 2
Fore
SplineSet
78 15.5 m 128,-1,1
 56 31 56 31 56 66 c 0,2,3
 56 81 56 81 61 106 c 2,4,-1
 97 273 l 1,5,-1
 24 233 l 1,6,-1
 35 286 l 1,7,-1
 108 326 l 1,8,-1
 189 708 l 1,9,-1
 245 708 l 1,10,-1
 171 361 l 1,11,-1
 264 413 l 1,12,-1
 253 359 l 1,13,-1
 160 308 l 1,14,-1
 116 102 l 2,15,16
 113 89 113 89 113 78 c 0,17,18
 113 62 113 62 124 55 c 128,-1,19
 135 48 135 48 161 48 c 2,20,-1
 191 48 l 1,21,-1
 181 0 l 1,22,-1
 154 0 l 2,23,0
 100 0 100 0 78 15.5 c 128,-1,1
EndSplineSet
EndChar
StartChar: OE
Encoding: 338 338 70
Width: 984
GlyphClass: 2
Flags: W
AnchorPoint: "Anchor-1" 587 668 basechar 0
AnchorPoint: "Anchor-0" 445 0 basechar 0
LayerCount: 2
Fore
SplineSet
170 23 m 128,-1,1
 114 58 114 58 85.5 120.5 c 128,-1,2
 57 183 57 183 57 262 c 0,3,4
 57 357 57 357 95.5 454 c 128,-1,5
 134 551 134 551 210.5 615.5 c 128,-1,6
 287 680 287 680 395 680 c 0,7,8
 481 680 481 680 535 638 c 128,-1,9
 589 596 589 596 609 521 c 1,10,-1
 641 668 l 1,11,-1
 1029 668 l 1,12,-1
 1018 616 l 1,13,-1
 688 616 l 1,14,-1
 636 370 l 1,15,-1
 898 370 l 1,16,-1
 888 317 l 1,17,-1
 625 317 l 1,18,-1
 569 52 l 1,19,-1
 903 52 l 1,20,-1
 891 0 l 1,21,-1
 499 0 l 1,22,-1
 519 99 l 1,23,24
 479 47 479 47 425.5 17.5 c 128,-1,25
 372 -12 372 -12 304 -12 c 0,26,0
 226 -12 226 -12 170 23 c 128,-1,1
455.5 100.5 m 128,-1,28
 516 159 516 159 545.5 244 c 128,-1,29
 575 329 575 329 575 407 c 0,30,31
 575 505 575 505 528 565.5 c 128,-1,32
 481 626 481 626 389 626 c 0,33,34
 300 626 300 626 238.5 568.5 c 128,-1,35
 177 511 177 511 147 427 c 128,-1,36
 117 343 117 343 117 265 c 0,37,38
 117 166 117 166 165.5 104 c 128,-1,39
 214 42 214 42 306 42 c 0,40,27
 395 42 395 42 455.5 100.5 c 128,-1,28
EndSplineSet
EndChar
StartChar: oe
Encoding: 339 339 181
Width: 915
GlyphClass: 2
Flags: W
AnchorPoint: "Anchor-1" 513 496 basechar 0
AnchorPoint: "Anchor-0" 407 0 basechar 0
LayerCount: 2
Fore
SplineSet
509.5 23 m 128,-1,1
 461 58 461 58 440 117 c 1,2,3
 406 58 406 58 351.5 23 c 128,-1,4
 297 -12 297 -12 229 -12 c 0,5,6
 169 -12 169 -12 125 16 c 128,-1,7
 81 44 81 44 58.5 92 c 128,-1,8
 36 140 36 140 36 200 c 0,9,10
 36 276 36 276 69 346.5 c 128,-1,11
 102 417 102 417 162 461.5 c 128,-1,12
 222 506 222 506 300 506 c 0,13,14
 368 506 368 506 413.5 471 c 128,-1,15
 459 436 459 436 477 376 c 1,16,17
 513 437 513 437 568 471.5 c 128,-1,18
 623 506 623 506 689 506 c 0,19,20
 748 506 748 506 791.5 479.5 c 128,-1,21
 835 453 835 453 858.5 406.5 c 128,-1,22
 882 360 882 360 882 302 c 0,23,24
 882 273 882 273 876 243 c 1,25,-1
 489 243 l 1,26,27
 486 224 486 224 486 204 c 0,28,29
 486 133 486 133 524 85.5 c 128,-1,30
 562 38 562 38 636 38 c 0,31,32
 723 38 723 38 771 101 c 1,33,-1
 826 80 l 1,34,35
 784 30 784 30 738.5 9 c 128,-1,36
 693 -12 693 -12 635 -12 c 0,37,0
 558 -12 558 -12 509.5 23 c 128,-1,1
345.5 78 m 128,-1,39
 391 119 391 119 413 178.5 c 128,-1,40
 435 238 435 238 435 295 c 0,41,42
 435 366 435 366 399.5 411 c 128,-1,43
 364 456 364 456 295 456 c 0,44,45
 229 456 229 456 183 415.5 c 128,-1,46
 137 375 137 375 115 315.5 c 128,-1,47
 93 256 93 256 93 200 c 0,48,49
 93 128 93 128 129 82.5 c 128,-1,50
 165 37 165 37 234 37 c 0,51,38
 300 37 300 37 345.5 78 c 128,-1,39
826 310 m 0,53,54
 826 373 826 373 788.5 414.5 c 128,-1,55
 751 456 751 456 685 456 c 0,56,57
 616 456 616 456 568 410.5 c 128,-1,58
 520 365 520 365 498 289 c 1,59,-1
 825 289 l 1,60,52
 826 296 826 296 826 310 c 0,53,54
EndSplineSet
EndChar
StartChar: Scedilla
Encoding: 350 350 80
Width: 581
GlyphClass: 2
Flags: W
AnchorPoint: "Anchor-1" 371 668 basechar 0
LayerCount: 2
Fore
SplineSet
148 -147 m 1,1,-1
 166 -123 l 1,2,3
 199 -145 199 -145 229 -145 c 0,4,5
 251 -145 251 -145 265 -133.5 c 128,-1,6
 279 -122 279 -122 279 -106 c 0,7,8
 279 -77 279 -77 237 -77 c 2,9,-1
 211 -79 l 2,10,11
 195 -79 195 -79 195 -68 c 0,12,13
 195 -59 195 -59 202 -52 c 2,14,-1
 236 -11 l 1,15,16
 159 -3 159 -3 102.5 37.5 c 128,-1,17
 46 78 46 78 32 143 c 1,18,-1
 89 163 l 1,19,20
 100 104 100 104 151.5 71 c 128,-1,21
 203 38 203 38 273 38 c 0,22,23
 325 38 325 38 368.5 56.5 c 128,-1,24
 412 75 412 75 438 110 c 128,-1,25
 464 145 464 145 464 191 c 0,26,27
 464 228 464 228 435.5 255.5 c 128,-1,28
 407 283 407 283 339 309 c 2,29,-1
 251 342 l 2,30,31
 193 363 193 363 155 400 c 128,-1,32
 117 437 117 437 117 494 c 0,33,34
 117 549 117 549 149.5 591.5 c 128,-1,35
 182 634 182 634 235.5 657 c 128,-1,36
 289 680 289 680 350 680 c 0,37,38
 423 680 423 680 481.5 649.5 c 128,-1,39
 540 619 540 619 565 561 c 1,40,-1
 507 541 l 1,41,42
 490 582 490 582 443 606 c 128,-1,43
 396 630 396 630 344 630 c 0,44,45
 300 630 300 630 261.5 614 c 128,-1,46
 223 598 223 598 199.5 568 c 128,-1,47
 176 538 176 538 176 499 c 0,48,49
 176 463 176 463 203 437.5 c 128,-1,50
 230 412 230 412 274 395 c 2,51,-1
 364 361 l 2,52,53
 439 332 439 332 480.5 294.5 c 128,-1,54
 522 257 522 257 522 196 c 0,55,56
 522 134 522 134 488.5 87.5 c 128,-1,57
 455 41 455 41 398 15.5 c 128,-1,58
 341 -10 341 -10 273 -12 c 1,59,-1
 243 -47 l 1,60,61
 254 -44 254 -44 264 -44 c 0,62,63
 290 -44 290 -44 307 -59.5 c 128,-1,64
 324 -75 324 -75 324 -97 c 0,65,66
 324 -132 324 -132 297.5 -154.5 c 128,-1,67
 271 -177 271 -177 232 -177 c 0,68,0
 189 -177 189 -177 148 -147 c 1,1,-1
EndSplineSet
Substitution2: "'locl' Localized Forms in Latin lookup 4 subtable" uni0218
AlternateSubs2: "'aalt' Access All Alternates in Latin lookup 0 subtable" uni0218
EndChar
StartChar: scedilla
Encoding: 351 351 191
Width: 448
GlyphClass: 2
Flags: W
AnchorPoint: "Anchor-1" 271 496 basechar 0
LayerCount: 2
Fore
SplineSet
68 -147 m 1,1,-1
 86 -123 l 1,2,3
 118 -145 118 -145 149 -145 c 0,4,5
 171 -145 171 -145 185 -133.5 c 128,-1,6
 199 -122 199 -122 199 -106 c 0,7,8
 199 -77 199 -77 157 -77 c 2,9,-1
 130 -79 l 2,10,11
 114 -79 114 -79 114 -67 c 0,12,13
 114 -61 114 -61 121 -52 c 2,14,-1
 157 -8 l 1,15,16
 105 3 105 3 66 35.5 c 128,-1,17
 27 68 27 68 15 115 c 1,18,-1
 69 135 l 1,19,20
 78 90 78 90 116.5 63.5 c 128,-1,21
 155 37 155 37 207 37 c 0,22,23
 261 37 261 37 297.5 65 c 128,-1,24
 334 93 334 93 334 138 c 0,25,26
 334 171 334 171 308.5 191 c 128,-1,27
 283 211 283 211 230 230 c 2,28,-1
 188 245 l 2,29,30
 132 266 132 266 103.5 293 c 128,-1,31
 75 320 75 320 75 361 c 0,32,33
 75 405 75 405 100 438 c 128,-1,34
 125 471 125 471 166.5 488.5 c 128,-1,35
 208 506 208 506 256 506 c 0,36,37
 311 506 311 506 358.5 478.5 c 128,-1,38
 406 451 406 451 422 405 c 1,39,-1
 368 384 l 1,40,41
 358 417 358 417 324 437 c 128,-1,42
 290 457 290 457 250 457 c 0,43,44
 202 457 202 457 165 435 c 128,-1,45
 128 413 128 413 128 372 c 0,46,47
 128 344 128 344 149.5 326 c 128,-1,48
 171 308 171 308 213 292 c 2,49,-1
 255 277 l 2,50,51
 322 252 322 252 355.5 223 c 128,-1,52
 389 194 389 194 389 148 c 0,53,54
 389 105 389 105 367 68.5 c 128,-1,55
 345 32 345 32 301 10 c 128,-1,56
 257 -12 257 -12 193 -12 c 1,57,-1
 162 -47 l 1,58,59
 173 -44 173 -44 183 -44 c 0,60,61
 210 -44 210 -44 227 -59.5 c 128,-1,62
 244 -75 244 -75 244 -97 c 0,63,64
 244 -132 244 -132 217 -154.5 c 128,-1,65
 190 -177 190 -177 151 -177 c 0,66,0
 109 -177 109 -177 68 -147 c 1,1,-1
EndSplineSet
Substitution2: "'locl' Localized Forms in Latin lookup 4 subtable" uni0219
AlternateSubs2: "'aalt' Access All Alternates in Latin lookup 0 subtable" uni0219
EndChar
StartChar: uni0162
Encoding: 354 354 85
Width: 524
GlyphClass: 2
Flags: W
AnchorPoint: "Anchor-1" 351 668 basechar 0
LayerCount: 2
Fore
SplineSet
312 618 m 1,0,-1
 87 618 l 1,1,-1
 97 668 l 1,2,-1
 605 668 l 1,3,-1
 595 618 l 1,4,-1
 370 618 l 1,5,-1
 238 0 l 1,6,-1
 228 0 l 1,7,-1
 188 -47 l 1,8,9
 199 -44 199 -44 209 -44 c 0,10,11
 235 -44 235 -44 252 -59.5 c 128,-1,12
 269 -75 269 -75 269 -97 c 0,13,14
 269 -132 269 -132 242.5 -154.5 c 128,-1,15
 216 -177 216 -177 177 -177 c 0,16,17
 134 -177 134 -177 93 -147 c 1,18,-1
 111 -123 l 1,19,20
 144 -145 144 -145 174 -145 c 0,21,22
 196 -145 196 -145 210 -133.5 c 128,-1,23
 224 -122 224 -122 224 -106 c 0,24,25
 224 -77 224 -77 182 -77 c 2,26,-1
 155 -79 l 2,27,28
 148 -79 148 -79 144 -76 c 128,-1,29
 140 -73 140 -73 140 -68 c 0,30,31
 140 -59 140 -59 147 -52 c 2,32,-1
 190 0 l 1,33,-1
 180 0 l 1,34,-1
 312 618 l 1,0,-1
EndSplineSet
Substitution2: "'locl' Localized Forms in Latin lookup 4 subtable" uni021A
AlternateSubs2: "'aalt' Access All Alternates in Latin lookup 0 subtable" uni021A
EndChar
StartChar: uni0163
Encoding: 355 355 196
Width: 296
GlyphClass: 2
Flags: W
AnchorPoint: "Anchor-3" 253 542 basechar 0
AnchorPoint: "Anchor-1" 203 496 basechar 0
LayerCount: 2
Fore
SplineSet
15 -147 m 1,1,-1
 33 -123 l 1,2,3
 65 -145 65 -145 96 -145 c 0,4,5
 117 -145 117 -145 131.5 -133.5 c 128,-1,6
 146 -122 146 -122 146 -106 c 0,7,8
 146 -77 146 -77 104 -77 c 2,9,-1
 77 -79 l 2,10,11
 61 -79 61 -79 61 -67 c 0,12,13
 61 -61 61 -61 68 -52 c 2,14,-1
 117 8 l 1,15,16
 93 15 93 15 82.5 31 c 128,-1,17
 72 47 72 47 72 73 c 0,18,19
 72 97 72 97 79 128 c 2,20,-1
 148 451 l 1,21,-1
 63 451 l 1,22,-1
 72 496 l 1,23,-1
 157 496 l 1,24,-1
 184 620 l 1,25,-1
 240 620 l 1,26,-1
 213 496 l 1,27,-1
 314 496 l 1,28,-1
 305 451 l 1,29,-1
 203 451 l 1,30,-1
 134 123 l 2,31,32
 128 91 128 91 128 84 c 0,33,34
 128 65 128 65 141.5 57.5 c 128,-1,35
 155 50 155 50 189 50 c 2,36,-1
 218 50 l 1,37,-1
 208 0 l 1,38,-1
 187 0 l 2,39,40
 164 0 164 0 151 1 c 1,41,-1
 109 -47 l 1,42,43
 120 -44 120 -44 130 -44 c 0,44,45
 157 -44 157 -44 174 -59.5 c 128,-1,46
 191 -75 191 -75 191 -97 c 0,47,48
 191 -132 191 -132 164 -154.5 c 128,-1,49
 137 -177 137 -177 98 -177 c 0,50,0
 56 -177 56 -177 15 -147 c 1,1,-1
EndSplineSet
Substitution2: "'locl' Localized Forms in Latin lookup 4 subtable" uni021B
AlternateSubs2: "'aalt' Access All Alternates in Latin lookup 0 subtable" uni021B
EndChar
StartChar: Uring
Encoding: 366 366 95
Width: 674
GlyphClass: 2
Flags: W
AnchorPoint: "Anchor-3" 756 668 basechar 0
AnchorPoint: "Anchor-2" 476 10 basechar 0
AnchorPoint: "Anchor-1" 470 872 basechar 0
AnchorPoint: "Anchor-0" 284 0 basechar 0
LayerCount: 2
Fore
SplineSet
79 196 m 0,1,2
 79 242 79 242 91 299 c 2,3,-1
 170 668 l 1,4,-1
 228 668 l 1,5,-1
 147 288 l 2,6,7
 137 242 137 242 137 202 c 0,8,9
 137 38 137 38 322 38 c 0,10,11
 408 38 408 38 460 89.5 c 128,-1,12
 512 141 512 141 535 246 c 2,13,-1
 625 668 l 1,14,-1
 683 668 l 1,15,-1
 592 245 l 2,16,17
 564 115 564 115 499.5 51.5 c 128,-1,18
 435 -12 435 -12 325 -12 c 0,19,0
 79 -12 79 -12 79 196 c 0,1,2
358 705 m 128,-1,21
 329 734 329 734 329 774 c 256,22,23
 329 814 329 814 358 843 c 128,-1,24
 387 872 387 872 427 872 c 256,25,26
 467 872 467 872 495.5 843 c 128,-1,27
 524 814 524 814 524 774 c 256,28,29
 524 734 524 734 495.5 705 c 128,-1,30
 467 676 467 676 427 676 c 256,31,20
 387 676 387 676 358 705 c 128,-1,21
466.5 735 m 128,-1,33
 483 751 483 751 483 774 c 256,34,35
 483 797 483 797 466.5 813 c 128,-1,36
 450 829 450 829 427 829 c 256,37,38
 404 829 404 829 387 813 c 128,-1,39
 370 797 370 797 370 774 c 256,40,41
 370 751 370 751 387 735 c 128,-1,42
 404 719 404 719 427 719 c 256,43,32
 450 719 450 719 466.5 735 c 128,-1,33
EndSplineSet
EndChar
StartChar: Uogonek
Encoding: 370 370 94
Width: 674
GlyphClass: 2
Flags: W
AnchorPoint: "Anchor-3" 756 668 basechar 0
AnchorPoint: "Anchor-1" 426 668 basechar 0
AnchorPoint: "Anchor-0" 284 0 basechar 0
LayerCount: 2
Fore
SplineSet
345 -151 m 128,-1,1
 322 -134 322 -134 322 -104 c 0,2,3
 322 -79 322 -79 337 -54 c 128,-1,4
 352 -29 352 -29 376 -8 c 1,5,6
 342 -12 342 -12 315 -12 c 0,7,8
 218 -12 218 -12 148.5 33.5 c 128,-1,9
 79 79 79 79 79 198 c 0,10,11
 79 242 79 242 91 299 c 2,12,-1
 170 668 l 1,13,-1
 228 668 l 1,14,-1
 147 288 l 2,15,16
 137 242 137 242 137 202 c 0,17,18
 137 38 137 38 322 38 c 0,19,20
 408 38 408 38 460 89.5 c 128,-1,21
 512 141 512 141 535 246 c 2,22,-1
 625 668 l 1,23,-1
 683 668 l 1,24,-1
 592 245 l 2,25,26
 572 154 572 154 537 99 c 128,-1,27
 502 44 502 44 448 14 c 0,28,29
 415 -4 415 -4 393.5 -31 c 128,-1,30
 372 -58 372 -58 372 -85 c 0,31,32
 372 -106 372 -106 386.5 -116 c 128,-1,33
 401 -126 401 -126 425 -126 c 0,34,35
 438 -126 438 -126 450 -122 c 1,36,-1
 440 -163 l 1,37,38
 423 -168 423 -168 406 -168 c 0,39,0
 368 -168 368 -168 345 -151 c 128,-1,1
EndSplineSet
EndChar
StartChar: uogonek
Encoding: 371 371 205
Width: 526
GlyphClass: 2
Flags: W
AnchorPoint: "Anchor-3" 544 496 basechar 0
AnchorPoint: "Anchor-1" 305 496 basechar 0
AnchorPoint: "Anchor-0" 199 0 basechar 0
LayerCount: 2
Fore
SplineSet
95 24 m 128,-1,1
 56 60 56 60 56 129 c 0,2,3
 56 154 56 154 62 185 c 2,4,-1
 128 496 l 1,5,-1
 183 496 l 1,6,-1
 120 195 l 2,7,8
 114 167 114 167 114 142 c 0,9,10
 114 92 114 92 139 65 c 128,-1,11
 164 38 164 38 210 38 c 0,12,13
 276 38 276 38 324 88 c 128,-1,14
 372 138 372 138 390 223 c 2,15,-1
 448 496 l 1,16,-1
 504 496 l 1,17,-1
 398 0 l 1,18,19
 358 -12 358 -12 326 -37 c 128,-1,20
 294 -62 294 -62 294 -92 c 0,21,22
 294 -126 294 -126 347 -126 c 0,23,24
 362 -126 362 -126 372 -123 c 1,25,-1
 363 -164 l 1,26,27
 344 -168 344 -168 324 -168 c 0,28,29
 290 -168 290 -168 268 -151 c 128,-1,30
 246 -134 246 -134 246 -105 c 0,31,32
 246 -36 246 -36 357 14 c 1,33,-1
 362 79 l 1,34,35
 334 39 334 39 290 13.5 c 128,-1,36
 246 -12 246 -12 193 -12 c 0,37,0
 134 -12 134 -12 95 24 c 128,-1,1
EndSplineSet
EndChar
StartChar: florin
Encoding: 402 402 295
Width: 296
GlyphClass: 1
Flags: W
LayerCount: 2
Fore
SplineSet
-61 -166 m 1,1,-1
 -51 -120 l 1,2,3
 -48 -122 -48 -122 -39 -124.5 c 128,-1,4
 -30 -127 -30 -127 -21 -127 c 0,5,6
 7 -127 7 -127 26 -108.5 c 128,-1,7
 45 -90 45 -90 52 -55 c 2,8,-1
 160 453 l 1,9,-1
 75 453 l 1,10,-1
 85 496 l 1,11,-1
 170 496 l 1,12,-1
 185 566 l 2,13,14
 197 621 197 621 207.5 646 c 128,-1,15
 218 671 218 671 242.5 683 c 128,-1,16
 267 695 267 695 316 695 c 2,17,-1
 362 695 l 1,18,-1
 352 648 l 1,19,-1
 295 648 l 2,20,21
 267 648 267 648 256.5 634 c 128,-1,22
 246 620 246 620 237 575 c 2,23,-1
 220 496 l 1,24,-1
 320 496 l 1,25,-1
 311 453 l 1,26,-1
 210 453 l 1,27,-1
 105 -44 l 2,28,29
 90 -119 90 -119 53.5 -145.5 c 128,-1,30
 17 -172 17 -172 -30 -172 c 0,31,0
 -47 -172 -47 -172 -61 -166 c 1,1,-1
EndSplineSet
EndChar
StartChar: uni0237
Encoding: 567 567 159
Width: 216
GlyphClass: 2
Flags: W
AnchorPoint: "Anchor-1" 164 496 basechar 0
AnchorPoint: "Anchor-0" -6 -251 basechar 0
LayerCount: 2
Fore
SplineSet
-128 -112 m 1,0,-1
 -76 -112 l 2,1,2
 -37 -112 -37 -112 -19.5 -106 c 128,-1,3
 -2 -100 -2 -100 7 -81 c 128,-1,4
 16 -62 16 -62 25 -18 c 2,5,-1
 136 496 l 1,6,-1
 192 496 l 1,7,-1
 81 -23 l 2,8,9
 68 -82 68 -82 54 -110.5 c 128,-1,10
 40 -139 40 -139 13.5 -150.5 c 128,-1,11
 -13 -162 -13 -162 -66 -162 c 2,12,-1
 -139 -162 l 1,13,-1
 -128 -112 l 1,0,-1
EndSplineSet
EndChar
StartChar: uni02C9
Encoding: 713 713 374
Width: 340
GlyphClass: 1
Flags: W
LayerCount: 2
Fore
SplineSet
129 678 m 1,0,-1
 394 678 l 1,1,-1
 383 626 l 1,2,-1
 119 626 l 1,3,-1
 129 678 l 1,0,-1
EndSplineSet
EndChar
StartChar: gravecomb
Encoding: 768 768 349
Width: 0
GlyphClass: 4
Flags: W
AnchorPoint: "Anchor-5" 249 697 basemark 0
AnchorPoint: "Anchor-5" 207 496 mark 0
AnchorPoint: "Anchor-1" 207 496 mark 0
LayerCount: 2
Fore
SplineSet
131.5 644.5 m 128,-1,1
 126 654 126 654 126 664 c 0,2,3
 126 677 126 677 134.5 687 c 128,-1,4
 143 697 143 697 155 697 c 0,5,6
 165 697 165 697 171.5 689.5 c 128,-1,7
 178 682 178 682 187 666 c 2,8,-1
 239 569 l 1,9,-1
 199 569 l 1,10,-1
 152 620 l 2,11,0
 137 635 137 635 131.5 644.5 c 128,-1,1
EndSplineSet
Substitution2: "Single Substitution lookup 13 subtable" gravecomb.case
Substitution2: "'case' Case-Sensitive Forms in Latin lookup 11 subtable" gravecomb.case
AlternateSubs2: "'aalt' Access All Alternates in Latin lookup 0 subtable" gravecomb.case
EndChar
StartChar: acutecomb
Encoding: 769 769 351
Width: 0
GlyphClass: 4
Flags: W
AnchorPoint: "Anchor-5" 154 697 basemark 0
AnchorPoint: "Anchor-5" 112 496 mark 0
AnchorPoint: "Anchor-1" 112 496 mark 0
LayerCount: 2
Fore
SplineSet
225.5 689.5 m 128,-1,1
 237 697 237 697 248 697 c 256,2,3
 259 697 259 697 266 691 c 128,-1,4
 273 685 273 685 273 675 c 0,5,6
 273 661 273 661 263.5 651.5 c 128,-1,7
 254 642 254 642 225 620 c 2,8,-1
 158 569 l 1,9,-1
 105 569 l 1,10,-1
 198 666 l 2,11,0
 214 682 214 682 225.5 689.5 c 128,-1,1
EndSplineSet
Substitution2: "Single Substitution lookup 13 subtable" acutecomb.case
Substitution2: "'case' Case-Sensitive Forms in Latin lookup 11 subtable" acutecomb.case
AlternateSubs2: "'aalt' Access All Alternates in Latin lookup 0 subtable" acutecomb.case
EndChar
StartChar: uni0302
Encoding: 770 770 356
Width: 0
GlyphClass: 4
Flags: W
AnchorPoint: "Anchor-5" 255 680 basemark 0
AnchorPoint: "Anchor-5" 216 496 mark 0
AnchorPoint: "Anchor-1" 216 496 mark 0
LayerCount: 2
Fore
SplineSet
256 680 m 0,1,2
 279 680 279 680 295 659 c 2,3,-1
 359 576 l 1,4,-1
 305 576 l 1,5,-1
 248 636 l 1,6,-1
 167 576 l 1,7,-1
 107 576 l 1,8,-1
 206 659 l 2,9,0
 232 680 232 680 256 680 c 0,1,2
EndSplineSet
Substitution2: "Single Substitution lookup 13 subtable" uni0302.case
Substitution2: "'case' Case-Sensitive Forms in Latin lookup 11 subtable" uni0302.case
AlternateSubs2: "'aalt' Access All Alternates in Latin lookup 0 subtable" uni0302.case
EndChar
StartChar: tildecomb
Encoding: 771 771 364
Width: 0
GlyphClass: 4
Flags: W
AnchorPoint: "Anchor-5" 266 661 basemark 0
AnchorPoint: "Anchor-5" 230 496 mark 0
AnchorPoint: "Anchor-1" 230 496 mark 0
LayerCount: 2
Fore
SplineSet
279 581.5 m 128,-1,1
 265 587 265 587 247 598 c 0,2,3
 231 607 231 607 221.5 611.5 c 128,-1,4
 212 616 212 616 201 616 c 0,5,6
 183 616 183 616 169 605.5 c 128,-1,7
 155 595 155 595 148 577 c 1,8,-1
 107 577 l 1,9,10
 124 620 124 620 151.5 639 c 128,-1,11
 179 658 179 658 211 658 c 0,12,13
 228 658 228 658 240.5 653 c 128,-1,14
 253 648 253 648 271 637 c 0,15,16
 287 628 287 628 296.5 623.5 c 128,-1,17
 306 619 306 619 318 619 c 0,18,19
 332 619 332 619 343 626 c 128,-1,20
 354 633 354 633 364 646 c 0,21,22
 376 661 376 661 389 661 c 0,23,24
 403 661 403 661 403 647 c 0,25,26
 403 635 403 635 389.5 617.5 c 128,-1,27
 376 600 376 600 354.5 588 c 128,-1,28
 333 576 333 576 310 576 c 0,29,0
 293 576 293 576 279 581.5 c 128,-1,1
EndSplineSet
Substitution2: "Single Substitution lookup 13 subtable" tildecomb.case
Substitution2: "'case' Case-Sensitive Forms in Latin lookup 11 subtable" tildecomb.case
AlternateSubs2: "'aalt' Access All Alternates in Latin lookup 0 subtable" tildecomb.case
EndChar
StartChar: uni0306
Encoding: 774 774 360
Width: 0
GlyphClass: 4
Flags: W
AnchorPoint: "Anchor-5" 245 677 basemark 0
AnchorPoint: "Anchor-5" 207 496 mark 0
AnchorPoint: "Anchor-1" 207 496 mark 0
LayerCount: 2
Fore
SplineSet
158.5 600.5 m 128,-1,1
 130 629 130 629 127 672 c 1,2,-1
 169 672 l 1,3,4
 173 645 173 645 192 629.5 c 128,-1,5
 211 614 211 614 236 614 c 0,6,7
 266 614 266 614 288.5 631.5 c 128,-1,8
 311 649 311 649 320 672 c 1,9,-1
 361 672 l 1,10,11
 348 628 348 628 313.5 600 c 128,-1,12
 279 572 279 572 232 572 c 0,13,0
 187 572 187 572 158.5 600.5 c 128,-1,1
EndSplineSet
Substitution2: "Single Substitution lookup 13 subtable" uni0306.case
Substitution2: "'case' Case-Sensitive Forms in Latin lookup 11 subtable" uni0306.case
AlternateSubs2: "'aalt' Access All Alternates in Latin lookup 0 subtable" uni0306.case
EndChar
StartChar: uni0307
Encoding: 775 775 346
Width: 0
GlyphClass: 4
Flags: W
AnchorPoint: "Anchor-5" 175 686 basemark 0
AnchorPoint: "Anchor-5" 135 496 mark 0
AnchorPoint: "Anchor-1" 135 496 mark 0
LayerCount: 2
Fore
SplineSet
135 611 m 128,-1,1
 122 624 122 624 122 642 c 256,2,3
 122 660 122 660 135 673 c 128,-1,4
 148 686 148 686 166 686 c 0,5,6
 183 686 183 686 196 673 c 128,-1,7
 209 660 209 660 209 642 c 256,8,9
 209 624 209 624 196 611 c 128,-1,10
 183 598 183 598 166 598 c 0,11,0
 148 598 148 598 135 611 c 128,-1,1
EndSplineSet
Substitution2: "Single Substitution lookup 13 subtable" uni0307.case
Substitution2: "'case' Case-Sensitive Forms in Latin lookup 11 subtable" uni0307.case
AlternateSubs2: "'aalt' Access All Alternates in Latin lookup 0 subtable" uni0307.case
EndChar
StartChar: uni0308
Encoding: 776 776 344
Width: 0
GlyphClass: 4
Flags: W
AnchorPoint: "Anchor-5" 253 686 basemark 0
AnchorPoint: "Anchor-5" 213 496 mark 0
AnchorPoint: "Anchor-1" 213 496 mark 0
LayerCount: 2
Fore
SplineSet
294 613 m 128,-1,1
 281 626 281 626 281 643 c 256,2,3
 281 660 281 660 294 673 c 128,-1,4
 307 686 307 686 324 686 c 256,5,6
 341 686 341 686 354 673 c 128,-1,7
 367 660 367 660 367 643 c 256,8,9
 367 626 367 626 354 613 c 128,-1,10
 341 600 341 600 324 600 c 256,11,0
 307 600 307 600 294 613 c 128,-1,1
134.5 613 m 128,-1,13
 122 626 122 626 122 643 c 256,14,15
 122 660 122 660 134.5 673 c 128,-1,16
 147 686 147 686 165 686 c 0,17,18
 182 686 182 686 194.5 673 c 128,-1,19
 207 660 207 660 207 643 c 256,20,21
 207 626 207 626 194.5 613 c 128,-1,22
 182 600 182 600 165 600 c 0,23,12
 147 600 147 600 134.5 613 c 128,-1,13
EndSplineSet
Substitution2: "Single Substitution lookup 13 subtable" uni0308.case
Substitution2: "'case' Case-Sensitive Forms in Latin lookup 11 subtable" uni0308.case
AlternateSubs2: "'aalt' Access All Alternates in Latin lookup 0 subtable" uni0308.case
EndChar
StartChar: uni030A
Encoding: 778 778 362
Width: 0
GlyphClass: 4
Flags: W
AnchorPoint: "Anchor-5" 255 764 basemark 0
AnchorPoint: "Anchor-5" 198 496 mark 0
AnchorPoint: "Anchor-1" 198 496 mark 0
LayerCount: 2
Fore
SplineSet
156 600.5 m 128,-1,1
 128 629 128 629 128 668 c 256,2,3
 128 707 128 707 156 735.5 c 128,-1,4
 184 764 184 764 224 764 c 0,5,6
 263 764 263 764 291.5 735.5 c 128,-1,7
 320 707 320 707 320 668 c 256,8,9
 320 629 320 629 291.5 600.5 c 128,-1,10
 263 572 263 572 224 572 c 0,11,0
 184 572 184 572 156 600.5 c 128,-1,1
263 629 m 128,-1,13
 279 645 279 645 279 668 c 256,14,15
 279 691 279 691 263 707 c 128,-1,16
 247 723 247 723 224 723 c 256,17,18
 201 723 201 723 185 707 c 128,-1,19
 169 691 169 691 169 668 c 256,20,21
 169 645 169 645 185 629 c 128,-1,22
 201 613 201 613 224 613 c 256,23,12
 247 613 247 613 263 629 c 128,-1,13
EndSplineSet
Substitution2: "Single Substitution lookup 13 subtable" uni030A.case
Substitution2: "'case' Case-Sensitive Forms in Latin lookup 11 subtable" uni030A.case
AlternateSubs2: "'aalt' Access All Alternates in Latin lookup 0 subtable" uni030A.case
EndChar
StartChar: uni030B
Encoding: 779 779 353
Width: 0
GlyphClass: 4
Flags: W
AnchorPoint: "Anchor-5" 313 696 basemark 0
AnchorPoint: "Anchor-5" 185 496 mark 0
AnchorPoint: "Anchor-1" 185 496 mark 0
LayerCount: 2
Fore
SplineSet
247 696 m 0,1,2
 257 696 257 696 263 690.5 c 128,-1,3
 269 685 269 685 269 676 c 0,4,5
 269 663 269 663 258.5 652 c 128,-1,6
 248 641 248 641 222 621 c 2,7,-1
 154 569 l 1,8,-1
 105 569 l 1,9,-1
 197 666 l 2,10,0
 224 696 224 696 247 696 c 0,1,2
378 696 m 0,12,13
 388 696 388 696 394.5 690.5 c 128,-1,14
 401 685 401 685 401 676 c 0,15,16
 401 664 401 664 391 653 c 128,-1,17
 381 642 381 642 354 621 c 2,18,-1
 286 569 l 1,19,-1
 236 569 l 1,20,-1
 328 666 l 2,21,11
 355 696 355 696 378 696 c 0,12,13
EndSplineSet
Substitution2: "Single Substitution lookup 13 subtable" uni030B.case
Substitution2: "'case' Case-Sensitive Forms in Latin lookup 11 subtable" uni030B.case
AlternateSubs2: "'aalt' Access All Alternates in Latin lookup 0 subtable" uni030B.case
EndChar
StartChar: uni030C
Encoding: 780 780 358
Width: 0
GlyphClass: 4
Flags: W
AnchorPoint: "Anchor-5" 253 674 basemark 0
AnchorPoint: "Anchor-5" 215 496 mark 0
AnchorPoint: "Anchor-1" 215 496 mark 0
LayerCount: 2
Fore
SplineSet
210 575 m 128,-1,1
 201 580 201 580 192 591 c 2,2,-1
 127 674 l 1,3,-1
 181 674 l 1,4,-1
 236 614 l 1,5,-1
 319 674 l 1,6,-1
 380 674 l 1,7,-1
 281 591 l 2,8,9
 256 570 256 570 232 570 c 0,10,0
 219 570 219 570 210 575 c 128,-1,1
EndSplineSet
Substitution2: "Single Substitution lookup 13 subtable" uni030C.case
Substitution2: "'case' Case-Sensitive Forms in Latin lookup 11 subtable" uni030C.case
AlternateSubs2: "'aalt' Access All Alternates in Latin lookup 0 subtable" uni030C.case
EndChar
StartChar: uni0312
Encoding: 786 786 368
Width: 0
GlyphClass: 4
Flags: W
AnchorPoint: "Anchor-5" 209 755 basemark 0
AnchorPoint: "Anchor-5" 131 496 mark 0
AnchorPoint: "Anchor-1" 131 496 mark 0
LayerCount: 2
Fore
SplineSet
122 641 m 0,1,2
 122 671 122 671 139.5 698.5 c 128,-1,3
 157 726 157 726 185 741.5 c 128,-1,4
 213 757 213 757 243 755 c 1,5,-1
 269 726 l 1,6,7
 230 728 230 728 199.5 706 c 128,-1,8
 169 684 169 684 169 643 c 0,9,10
 169 615 169 615 193 594 c 1,11,-1
 150 576 l 1,12,0
 122 605 122 605 122 641 c 0,1,2
EndSplineSet
EndChar
StartChar: uni0326
Encoding: 806 806 369
Width: 0
GlyphClass: 4
Flags: W
AnchorPoint: "Anchor-4" 3 -236 basemark 0
AnchorPoint: "Anchor-4" 54 0 mark 0
AnchorPoint: "Anchor-0" 54 0 mark 0
LayerCount: 2
Fore
SplineSet
9.5 -183 m 128,-1,1
 40 -161 40 -161 40 -120 c 0,2,3
 40 -91 40 -91 17 -71 c 1,4,-1
 60 -53 l 1,5,6
 87 -83 87 -83 87 -118 c 0,7,8
 87 -148 87 -148 69.5 -175.5 c 128,-1,9
 52 -203 52 -203 24 -218.5 c 128,-1,10
 -4 -234 -4 -234 -33 -232 c 1,11,-1
 -59 -203 l 1,12,0
 -21 -205 -21 -205 9.5 -183 c 128,-1,1
EndSplineSet
EndChar
StartChar: uni0327
Encoding: 807 807 370
Width: 0
GlyphClass: 4
Flags: W
AnchorPoint: "Anchor-4" 33 -178 basemark 0
AnchorPoint: "Anchor-4" 71 0 mark 0
AnchorPoint: "Anchor-0" 71 0 mark 0
LayerCount: 2
Fore
SplineSet
-47 -147 m 1,1,-1
 -29 -123 l 1,2,3
 4 -145 4 -145 34 -145 c 0,4,5
 56 -145 56 -145 70 -133.5 c 128,-1,6
 84 -122 84 -122 84 -106 c 0,7,8
 84 -77 84 -77 42 -77 c 2,9,-1
 15 -79 l 2,10,11
 8 -79 8 -79 4 -76 c 128,-1,12
 0 -73 0 -73 0 -68 c 0,13,14
 0 -59 0 -59 7 -52 c 2,15,-1
 66 20 l 1,16,-1
 93 6 l 1,17,-1
 48 -47 l 1,18,19
 59 -44 59 -44 69 -44 c 0,20,21
 95 -44 95 -44 112 -59.5 c 128,-1,22
 129 -75 129 -75 129 -97 c 0,23,24
 129 -132 129 -132 102.5 -154.5 c 128,-1,25
 76 -177 76 -177 37 -177 c 0,26,0
 -7 -177 -7 -177 -47 -147 c 1,1,-1
EndSplineSet
EndChar
StartChar: uni0328
Encoding: 808 808 371
Width: 0
GlyphClass: 4
Flags: W
AnchorPoint: "Anchor-2" 119 10 mark 0
LayerCount: 2
Fore
SplineSet
-13.5 -151 m 128,-1,1
 -36 -134 -36 -134 -36 -105 c 0,2,3
 -36 -33 -36 -33 84 17 c 1,4,-1
 117 0 l 1,5,6
 77 -12 77 -12 45 -37 c 128,-1,7
 13 -62 13 -62 13 -92 c 0,8,9
 13 -126 13 -126 65 -126 c 0,10,11
 81 -126 81 -126 91 -123 c 1,12,-1
 82 -164 l 1,13,14
 62 -168 62 -168 43 -168 c 0,15,0
 9 -168 9 -168 -13.5 -151 c 128,-1,1
EndSplineSet
Substitution2: "Single Substitution lookup 13 subtable" uni0328.case
Substitution2: "'case' Case-Sensitive Forms in Latin lookup 11 subtable" uni0328.case
AlternateSubs2: "'aalt' Access All Alternates in Latin lookup 0 subtable" uni0328.case
EndChar
StartChar: uni0394
Encoding: 916 916 225
Width: 586
GlyphClass: 1
Flags: W
LayerCount: 2
Fore
SplineSet
352 668 m 1,0,-1
 414 668 l 1,1,-1
 523 0 l 1,2,-1
 -43 0 l 1,3,-1
 352 668 l 1,0,-1
458 50 m 1,4,-1
 373 611 l 1,5,-1
 48 50 l 1,6,-1
 458 50 l 1,4,-1
EndSplineSet
EndChar
StartChar: uni03A9
Encoding: 937 937 226
Width: 680
GlyphClass: 1
Flags: W
LayerCount: 2
Fore
SplineSet
4 50 m 1,0,-1
 175 50 l 1,1,-1
 189 120 l 1,2,3
 136 148 136 148 104.5 214.5 c 128,-1,4
 73 281 73 281 73 355 c 0,5,6
 73 441 73 441 117 515.5 c 128,-1,7
 161 590 161 590 235.5 635 c 128,-1,8
 310 680 310 680 396 680 c 0,9,10
 473 680 473 680 534.5 644 c 128,-1,11
 596 608 596 608 630.5 546.5 c 128,-1,12
 665 485 665 485 665 412 c 0,13,14
 665 311 665 311 602.5 233 c 128,-1,15
 540 155 540 155 438 116 c 1,16,-1
 423 50 l 1,17,-1
 592 50 l 1,18,-1
 582 0 l 1,19,-1
 362 0 l 1,20,-1
 393 149 l 1,21,22
 493 179 493 179 554.5 247.5 c 128,-1,23
 616 316 616 316 616 410 c 0,24,25
 616 470 616 470 587.5 520.5 c 128,-1,26
 559 571 559 571 509 600.5 c 128,-1,27
 459 630 459 630 395 630 c 0,28,29
 323 630 323 630 260 592.5 c 128,-1,30
 197 555 197 555 160 491.5 c 128,-1,31
 123 428 123 428 123 354 c 0,32,33
 123 284 123 284 156.5 226 c 128,-1,34
 190 168 190 168 246 149 c 1,35,-1
 214 0 l 1,36,-1
 -6 0 l 1,37,-1
 4 50 l 1,0,-1
EndSplineSet
EndChar
StartChar: uni03BC
Encoding: 956 956 227
Width: 528
GlyphClass: 1
Flags: W
LayerCount: 2
Fore
SplineSet
128 496 m 1,0,-1
 184 496 l 1,1,-1
 120 198 l 2,2,3
 114 170 114 170 114 145 c 0,4,5
 114 95 114 95 139 67.5 c 128,-1,6
 164 40 164 40 210 40 c 0,7,8
 277 40 277 40 325 89 c 128,-1,9
 373 138 373 138 391 223 c 2,10,-1
 449 496 l 1,11,-1
 505 496 l 1,12,-1
 420 98 l 2,13,14
 417 83 417 83 417 73 c 0,15,16
 417 59 417 59 425 53.5 c 128,-1,17
 433 48 433 48 453 48 c 2,18,-1
 463 48 l 1,19,-1
 453 0 l 1,20,-1
 440 0 l 2,21,22
 395 0 395 0 377.5 13 c 128,-1,23
 360 26 360 26 360 54 c 2,24,-1
 362 78 l 1,25,26
 334 39 334 39 290 15 c 128,-1,27
 246 -9 246 -9 193 -9 c 0,28,29
 162 -9 162 -9 133 2.5 c 128,-1,30
 104 14 104 14 85 38 c 1,31,-1
 44 -162 l 1,32,-1
 -12 -162 l 1,33,-1
 128 496 l 1,0,-1
EndSplineSet
EndChar
StartChar: pi
Encoding: 960 960 228
Width: 526
GlyphClass: 1
Flags: W
LayerCount: 2
Fore
SplineSet
133 450 m 1,0,-1
 62 450 l 1,1,-1
 72 496 l 1,2,-1
 545 496 l 1,3,-1
 535 450 l 1,4,-1
 453 450 l 1,5,-1
 382 119 l 2,6,7
 377 98 377 98 377 80 c 256,8,9
 377 62 377 62 386 56 c 128,-1,10
 395 50 395 50 417 50 c 2,11,-1
 449 50 l 1,12,-1
 439 0 l 1,13,-1
 427 0 l 2,14,15
 366 0 366 0 342.5 12.5 c 128,-1,16
 319 25 319 25 319 61 c 0,17,18
 319 83 319 83 327 123 c 2,19,-1
 396 450 l 1,20,-1
 188 450 l 1,21,-1
 93 0 l 1,22,-1
 37 0 l 1,23,-1
 133 450 l 1,0,-1
EndSplineSet
EndChar
StartChar: uni1E9E
Encoding: 7838 7838 82
Width: 633
GlyphClass: 1
Flags: W
LayerCount: 2
Fore
SplineSet
279.5 18.5 m 128,-1,1
 240 49 240 49 230 102 c 1,2,-1
 281 120 l 1,3,4
 287 80 287 80 314.5 59.5 c 128,-1,5
 342 39 342 39 388 39 c 0,6,7
 428 39 428 39 459 60.5 c 128,-1,8
 490 82 490 82 507.5 118 c 128,-1,9
 525 154 525 154 525 195 c 0,10,11
 525 246 525 246 494 273 c 128,-1,12
 463 300 463 300 418 300 c 0,13,14
 400 300 400 300 381 296 c 1,15,-1
 362 340 l 1,16,-1
 597 600 l 1,17,18
 473 630 473 630 370 630 c 0,19,20
 291 630 291 630 247 590.5 c 128,-1,21
 203 551 203 551 185 467 c 2,22,-1
 86 0 l 1,23,-1
 28 0 l 1,24,-1
 128 473 l 2,25,26
 150 576 150 576 209.5 628 c 128,-1,27
 269 680 269 680 376 680 c 0,28,29
 433 680 433 680 500.5 668.5 c 128,-1,30
 568 657 568 657 659 634 c 1,31,-1
 648 582 l 1,32,-1
 438 348 l 1,33,34
 498 347 498 347 539.5 306.5 c 128,-1,35
 581 266 581 266 581 199 c 0,36,37
 581 142 581 142 556 93.5 c 128,-1,38
 531 45 531 45 485.5 16.5 c 128,-1,39
 440 -12 440 -12 382 -12 c 0,40,0
 319 -12 319 -12 279.5 18.5 c 128,-1,1
EndSplineSet
EndChar
StartChar: endash
Encoding: 8211 8211 274
Width: 504
GlyphClass: 1
Flags: W
LayerCount: 2
Fore
SplineSet
66 274 m 1,0,-1
 450 274 l 1,1,-1
 437 219 l 1,2,-1
 53 219 l 1,3,-1
 66 274 l 1,0,-1
EndSplineSet
EndChar
StartChar: quoteleft
Encoding: 8216 8216 287
Width: 189
GlyphClass: 1
Flags: W
LayerCount: 2
Fore
SplineSet
114.5 472 m 128,-1,1
 101 486 101 486 101 505 c 0,2,3
 101 520 101 520 112 538 c 2,4,-1
 192 668 l 1,5,-1
 231 668 l 1,6,-1
 162 554 l 1,7,8
 197 539 197 539 197 506 c 0,9,10
 197 486 197 486 183 472 c 128,-1,11
 169 458 169 458 150 458 c 0,12,0
 128 458 128 458 114.5 472 c 128,-1,1
EndSplineSet
EndChar
StartChar: quoteright
Encoding: 8217 8217 288
Width: 189
GlyphClass: 1
Flags: W
LayerCount: 2
Fore
SplineSet
128 632 m 0,1,2
 128 651 128 651 142 665.5 c 128,-1,3
 156 680 156 680 175 680 c 0,4,5
 197 680 197 680 210.5 666 c 128,-1,6
 224 652 224 652 224 633 c 0,7,8
 224 617 224 617 213 599 c 2,9,-1
 134 469 l 1,10,-1
 95 469 l 1,11,-1
 164 584 l 1,12,0
 128 597 128 597 128 632 c 0,1,2
EndSplineSet
EndChar
StartChar: quotesinglbase
Encoding: 8218 8218 283
Width: 189
GlyphClass: 1
Flags: W
LayerCount: 2
Fore
SplineSet
2 36 m 0,1,2
 2 56 2 56 16 70 c 128,-1,3
 30 84 30 84 49 84 c 0,4,5
 71 84 71 84 84.5 70 c 128,-1,6
 98 56 98 56 98 37 c 0,7,8
 98 22 98 22 86 3 c 2,9,-1
 7 -126 l 1,10,-1
 -32 -126 l 1,11,-1
 37 -12 l 1,12,0
 2 1 2 1 2 36 c 0,1,2
EndSplineSet
EndChar
StartChar: quotedblleft
Encoding: 8220 8220 285
Width: 323
GlyphClass: 1
Flags: W
LayerCount: 2
Fore
SplineSet
248.5 472 m 128,-1,1
 235 486 235 486 235 505 c 0,2,3
 235 520 235 520 246 538 c 2,4,-1
 326 668 l 1,5,-1
 365 668 l 1,6,-1
 296 554 l 1,7,8
 331 539 331 539 331 506 c 0,9,10
 331 487 331 487 317 472.5 c 128,-1,11
 303 458 303 458 284 458 c 0,12,0
 262 458 262 458 248.5 472 c 128,-1,1
114.5 472 m 128,-1,14
 101 486 101 486 101 505 c 0,15,16
 101 520 101 520 112 538 c 2,17,-1
 192 668 l 1,18,-1
 231 668 l 1,19,-1
 162 554 l 1,20,21
 197 539 197 539 197 506 c 0,22,23
 197 486 197 486 183 472 c 128,-1,24
 169 458 169 458 150 458 c 0,25,13
 128 458 128 458 114.5 472 c 128,-1,14
EndSplineSet
EndChar
StartChar: quotedblright
Encoding: 8221 8221 286
Width: 323
GlyphClass: 1
Flags: W
LayerCount: 2
Fore
SplineSet
262 632 m 0,1,2
 262 651 262 651 276 665.5 c 128,-1,3
 290 680 290 680 309 680 c 0,4,5
 331 680 331 680 344.5 666 c 128,-1,6
 358 652 358 652 358 633 c 0,7,8
 358 617 358 617 347 599 c 2,9,-1
 267 470 l 1,10,-1
 228 470 l 1,11,-1
 297 584 l 1,12,0
 262 597 262 597 262 632 c 0,1,2
128 632 m 0,14,15
 128 651 128 651 142 665.5 c 128,-1,16
 156 680 156 680 175 680 c 0,17,18
 197 680 197 680 210.5 666 c 128,-1,19
 224 652 224 652 224 633 c 0,20,21
 224 617 224 617 213 599 c 2,22,-1
 134 470 l 1,23,-1
 95 470 l 1,24,-1
 164 584 l 1,25,13
 128 597 128 597 128 632 c 0,14,15
EndSplineSet
EndChar
StartChar: quotedblbase
Encoding: 8222 8222 284
Width: 323
GlyphClass: 1
Flags: W
LayerCount: 2
Fore
SplineSet
144 7.5 m 128,-1,1
 135 20 135 20 135 36 c 0,2,3
 135 55 135 55 149 69.5 c 128,-1,4
 163 84 163 84 182 84 c 0,5,6
 204 84 204 84 218 70 c 128,-1,7
 232 56 232 56 232 37 c 0,8,9
 232 24 232 24 220 3 c 2,10,-1
 141 -126 l 1,11,-1
 102 -126 l 1,12,-1
 171 -12 l 1,13,0
 153 -5 153 -5 144 7.5 c 128,-1,1
2 36 m 0,15,16
 2 56 2 56 16 70 c 128,-1,17
 30 84 30 84 49 84 c 0,18,19
 71 84 71 84 84.5 70 c 128,-1,20
 98 56 98 56 98 37 c 0,21,22
 98 22 98 22 86 3 c 2,23,-1
 7 -126 l 1,24,-1
 -32 -126 l 1,25,-1
 37 -12 l 1,26,14
 2 1 2 1 2 36 c 0,15,16
EndSplineSet
EndChar
StartChar: dagger
Encoding: 8224 8224 307
Width: 513
GlyphClass: 1
Flags: W
LayerCount: 2
Fore
SplineSet
272 443 m 1,0,-1
 83 443 l 1,1,-1
 93 496 l 1,2,-1
 282 496 l 1,3,-1
 319 668 l 1,4,-1
 374 668 l 1,5,-1
 337 496 l 1,6,-1
 525 496 l 1,7,-1
 514 443 l 1,8,-1
 326 443 l 1,9,-1
 232 0 l 1,10,-1
 177 0 l 1,11,-1
 272 443 l 1,0,-1
EndSplineSet
EndChar
StartChar: daggerdbl
Encoding: 8225 8225 309
Width: 515
GlyphClass: 1
Flags: W
LayerCount: 2
Fore
SplineSet
217 171 m 1,0,-1
 23 171 l 1,1,-1
 36 232 l 1,2,-1
 230 232 l 1,3,-1
 273 434 l 1,4,-1
 79 434 l 1,5,-1
 92 496 l 1,6,-1
 286 496 l 1,7,-1
 323 668 l 1,8,-1
 372 668 l 1,9,-1
 335 496 l 1,10,-1
 528 496 l 1,11,-1
 514 434 l 1,12,-1
 322 434 l 1,13,-1
 279 232 l 1,14,-1
 472 232 l 1,15,-1
 459 171 l 1,16,-1
 266 171 l 1,17,-1
 230 0 l 1,18,-1
 181 0 l 1,19,-1
 217 171 l 1,0,-1
EndSplineSet
EndChar
StartChar: perthousand
Encoding: 8240 8240 342
Width: 1311
GlyphClass: 1
Flags: W
LayerCount: 2
Fore
SplineSet
751 668 m 1,0,-1
 818 668 l 1,1,-1
 203 0 l 1,2,-1
 137 0 l 1,3,-1
 751 668 l 1,0,-1
185 356 m 128,-1,5
 145 379 145 379 121.5 419 c 128,-1,6
 98 459 98 459 98 506 c 0,7,8
 98 554 98 554 121.5 594 c 128,-1,9
 145 634 145 634 185 657 c 128,-1,10
 225 680 225 680 272 680 c 256,11,12
 319 680 319 680 359.5 656.5 c 128,-1,13
 400 633 400 633 423.5 593.5 c 128,-1,14
 447 554 447 554 447 506 c 0,15,16
 447 459 447 459 423.5 419 c 128,-1,17
 400 379 400 379 359.5 356 c 128,-1,18
 319 333 319 333 272 333 c 256,19,4
 225 333 225 333 185 356 c 128,-1,5
359.5 420 m 128,-1,21
 395 456 395 456 395 506 c 0,22,23
 395 557 395 557 359.5 593 c 128,-1,24
 324 629 324 629 272 629 c 0,25,26
 221 629 221 629 185 593 c 128,-1,27
 149 557 149 557 149 506 c 0,28,29
 149 456 149 456 185 420 c 128,-1,30
 221 384 221 384 272 384 c 0,31,20
 324 384 324 384 359.5 420 c 128,-1,21
596 11 m 128,-1,33
 556 34 556 34 532.5 74 c 128,-1,34
 509 114 509 114 509 162 c 0,35,36
 509 209 509 209 532.5 249 c 128,-1,37
 556 289 556 289 596 312 c 128,-1,38
 636 335 636 335 684 335 c 0,39,40
 731 335 731 335 771 312 c 128,-1,41
 811 289 811 289 834.5 249 c 128,-1,42
 858 209 858 209 858 162 c 0,43,44
 858 114 858 114 834.5 74 c 128,-1,45
 811 34 811 34 771 11 c 128,-1,46
 731 -12 731 -12 684 -12 c 0,47,32
 636 -12 636 -12 596 11 c 128,-1,33
771 75 m 128,-1,49
 807 111 807 111 807 162 c 0,50,51
 807 212 807 212 771 248 c 128,-1,52
 735 284 735 284 684 284 c 256,53,54
 633 284 633 284 597 248.5 c 128,-1,55
 561 213 561 213 561 162 c 256,56,57
 561 111 561 111 596.5 75 c 128,-1,58
 632 39 632 39 684 39 c 0,59,48
 735 39 735 39 771 75 c 128,-1,49
989 11 m 128,-1,61
 949 34 949 34 925.5 74 c 128,-1,62
 902 114 902 114 902 162 c 0,63,64
 902 209 902 209 925.5 249 c 128,-1,65
 949 289 949 289 989 312 c 128,-1,66
 1029 335 1029 335 1076 335 c 0,67,68
 1124 335 1124 335 1164 312 c 128,-1,69
 1204 289 1204 289 1227.5 249 c 128,-1,70
 1251 209 1251 209 1251 162 c 0,71,72
 1251 114 1251 114 1227.5 74 c 128,-1,73
 1204 34 1204 34 1164 11 c 128,-1,74
 1124 -12 1124 -12 1076 -12 c 0,75,60
 1029 -12 1029 -12 989 11 c 128,-1,61
1163.5 75 m 128,-1,77
 1199 111 1199 111 1199 162 c 256,78,79
 1199 213 1199 213 1163.5 248.5 c 128,-1,80
 1128 284 1128 284 1076 284 c 0,81,82
 1025 284 1025 284 989 248 c 128,-1,83
 953 212 953 212 953 162 c 0,84,85
 953 111 953 111 989 75 c 128,-1,86
 1025 39 1025 39 1076 39 c 0,87,76
 1128 39 1128 39 1163.5 75 c 128,-1,77
EndSplineSet
EndChar
StartChar: guilsinglleft
Encoding: 8249 8249 291
Width: 328
GlyphClass: 1
Flags: W
LayerCount: 2
Fore
SplineSet
59 250 m 1,0,-1
 249 460 l 1,1,-1
 314 460 l 1,2,-1
 118 245 l 1,3,-1
 224 40 l 1,4,-1
 167 40 l 1,5,-1
 59 250 l 1,0,-1
EndSplineSet
EndChar
StartChar: guilsinglright
Encoding: 8250 8250 292
Width: 328
GlyphClass: 1
Flags: W
LayerCount: 2
Fore
SplineSet
211 255 m 1,0,-1
 105 460 l 1,1,-1
 162 460 l 1,2,-1
 270 250 l 1,3,-1
 80 40 l 1,4,-1
 15 40 l 1,5,-1
 211 255 l 1,0,-1
EndSplineSet
EndChar
StartChar: fraction
Encoding: 8260 8260 249
Width: 558
GlyphClass: 1
Flags: W
LayerCount: 2
Fore
SplineSet
566 668 m 1,0,-1
 632 668 l 1,1,-1
 28 0 l 1,2,-1
 -38 0 l 1,3,-1
 566 668 l 1,0,-1
EndSplineSet
EndChar
StartChar: Euro
Encoding: 8364 8364 314
Width: 665
GlyphClass: 1
Flags: W
LayerCount: 2
Fore
SplineSet
183 57 m 128,-1,1
 122 127 122 127 122 245 c 1,2,-1
 29 245 l 1,3,-1
 58 284 l 1,4,-1
 123 284 l 1,5,6
 128 340 128 340 140 383 c 1,7,-1
 58 383 l 1,8,-1
 87 422 l 1,9,-1
 151 422 l 1,10,11
 188 535 188 535 266 609 c 128,-1,12
 344 683 344 683 455 683 c 0,13,14
 531 683 531 683 589.5 643 c 128,-1,15
 648 603 648 603 670 527 c 1,16,-1
 617 508 l 1,17,18
 600 572 600 572 554.5 602.5 c 128,-1,19
 509 633 509 633 444 633 c 0,20,21
 357 633 357 633 298 573.5 c 128,-1,22
 239 514 239 514 208 422 c 1,23,-1
 492 422 l 1,24,-1
 462 383 l 1,25,-1
 197 383 l 1,26,27
 184 334 184 334 181 284 c 1,28,-1
 397 284 l 1,29,-1
 367 245 l 1,30,-1
 180 245 l 1,31,32
 183 153 183 153 229 95 c 128,-1,33
 275 37 275 37 362 37 c 0,34,35
 422 37 422 37 474 65.5 c 128,-1,36
 526 94 526 94 560 153 c 1,37,-1
 610 133 l 1,38,39
 564 55 564 55 498.5 21 c 128,-1,40
 433 -13 433 -13 360 -13 c 0,41,0
 244 -13 244 -13 183 57 c 128,-1,1
EndSplineSet
EndChar
StartChar: uni20B9
Encoding: 8377 8377 315
Width: 512
GlyphClass: 1
Flags: W
LayerCount: 2
Fore
SplineSet
84 291 m 1,0,-1
 93 336 l 1,1,-1
 170 336 l 2,2,3
 252 336 252 336 299 364.5 c 128,-1,4
 346 393 346 393 355 456 c 1,5,-1
 119 456 l 1,6,-1
 128 496 l 1,7,-1
 358 496 l 1,8,9
 354 552 354 552 301 584.5 c 128,-1,10
 248 617 248 617 160 617 c 2,11,-1
 153 617 l 1,12,-1
 164 668 l 1,13,-1
 551 668 l 1,14,-1
 543 628 l 1,15,-1
 328 628 l 1,16,17
 414 580 414 580 417 496 c 1,18,-1
 515 496 l 1,19,-1
 506 456 l 1,20,-1
 415 456 l 1,21,22
 401 374 401 374 336.5 330 c 128,-1,23
 272 286 272 286 162 288 c 1,24,-1
 414 0 l 1,25,-1
 340 0 l 1,26,-1
 84 291 l 1,0,-1
EndSplineSet
EndChar
StartChar: uni2113
Encoding: 8467 8467 308
Width: 423
GlyphClass: 1
Flags: W
LayerCount: 2
Fore
SplineSet
125 14.5 m 128,-1,1
 99 41 99 41 99 89 c 0,2,3
 99 120 99 120 106 151 c 2,4,-1
 117 203 l 1,5,-1
 39 151 l 1,6,-1
 52 212 l 1,7,-1
 130 265 l 1,8,-1
 187 536 l 2,9,10
 202 602 202 602 234 641 c 128,-1,11
 266 680 266 680 319 680 c 0,12,13
 365 680 365 680 389.5 652 c 128,-1,14
 414 624 414 624 414 574 c 0,15,16
 414 476 414 476 350 395.5 c 128,-1,17
 286 315 286 315 177 240 c 1,18,-1
 158 145 l 2,19,20
 154 121 154 121 154 107 c 0,21,22
 154 37 154 37 215 37 c 0,23,24
 257 37 257 37 306 70 c 1,25,-1
 324 26 l 1,26,27
 299 7 299 7 267 -2.5 c 128,-1,28
 235 -12 235 -12 213 -12 c 0,29,0
 151 -12 151 -12 125 14.5 c 128,-1,1
318.5 431 m 128,-1,31
 366 501 366 501 366 574 c 0,32,33
 366 603 366 603 353 618.5 c 128,-1,34
 340 634 340 634 317 634 c 0,35,36
 259 634 259 634 238 532 c 2,37,-1
 191 307 l 1,38,30
 271 361 271 361 318.5 431 c 128,-1,31
EndSplineSet
EndChar
StartChar: trademark
Encoding: 8482 8482 303
Width: 810
GlyphClass: 1
Flags: W
LayerCount: 2
Fore
SplineSet
456 668 m 1,0,-1
 530 668 l 1,1,-1
 571 363 l 1,2,-1
 742 668 l 1,3,-1
 817 668 l 1,4,-1
 741 307 l 1,5,-1
 696 307 l 1,6,-1
 761 616 l 1,7,-1
 586 307 l 1,8,-1
 536 307 l 1,9,-1
 492 616 l 1,10,-1
 426 307 l 1,11,-1
 380 307 l 1,12,-1
 456 668 l 1,0,-1
240 625 m 1,13,-1
 123 625 l 1,14,-1
 132 668 l 1,15,-1
 412 668 l 1,16,-1
 402 625 l 1,17,-1
 285 625 l 1,18,-1
 218 307 l 1,19,-1
 173 307 l 1,20,-1
 240 625 l 1,13,-1
EndSplineSet
EndChar
StartChar: estimated
Encoding: 8494 8494 310
Width: 632
GlyphClass: 1
Flags: W
LayerCount: 2
Fore
SplineSet
197 17 m 128,-1,1
 138 46 138 46 99 107.5 c 128,-1,2
 60 169 60 169 60 260 c 0,3,4
 60 314 60 314 92 370.5 c 128,-1,5
 124 427 124 427 182.5 464 c 128,-1,6
 241 501 241 501 316 501 c 0,7,8
 386 501 386 501 444.5 467 c 128,-1,9
 503 433 503 433 538 374.5 c 128,-1,10
 573 316 573 316 573 247 c 1,11,-1
 151 247 l 1,12,-1
 151 65 l 1,13,14
 184 34 184 34 226 17.5 c 128,-1,15
 268 1 268 1 316 1 c 0,16,17
 370 1 370 1 416.5 22.5 c 128,-1,18
 463 44 463 44 497 82 c 1,19,-1
 513 79 l 1,20,21
 477 36 477 36 426 12 c 128,-1,22
 375 -12 375 -12 316 -12 c 0,23,0
 256 -12 256 -12 197 17 c 128,-1,1
483 261 m 1,24,-1
 483 422 l 1,25,26
 449 453 449 453 406 470.5 c 128,-1,27
 363 488 363 488 316 488 c 0,28,29
 268 488 268 488 226 470.5 c 128,-1,30
 184 453 184 453 151 422 c 1,31,-1
 151 261 l 1,32,-1
 483 261 l 1,24,-1
EndSplineSet
EndChar
StartChar: partialdiff
Encoding: 8706 8706 340
Width: 577
GlyphClass: 1
Flags: W
LayerCount: 2
Fore
SplineSet
153 15 m 128,-1,1
 107 42 107 42 81.5 90.5 c 128,-1,2
 56 139 56 139 56 202 c 0,3,4
 56 279 56 279 88.5 347.5 c 128,-1,5
 121 416 121 416 180.5 457.5 c 128,-1,6
 240 499 240 499 317 499 c 0,7,8
 382 499 382 499 428 468 c 128,-1,9
 474 437 474 437 485 379 c 1,10,11
 487 453 487 453 453 508.5 c 128,-1,12
 419 564 419 564 357 594.5 c 128,-1,13
 295 625 295 625 217 627 c 1,14,-1
 229 680 l 1,15,16
 535 648 535 648 535 384 c 0,17,18
 535 293 535 293 508 202.5 c 128,-1,19
 481 112 481 112 419 50 c 128,-1,20
 357 -12 357 -12 259 -12 c 0,21,0
 199 -12 199 -12 153 15 c 128,-1,1
375.5 78.5 m 128,-1,23
 421 119 421 119 441.5 177 c 128,-1,24
 462 235 462 235 462 288 c 0,25,26
 462 359 462 359 424 403.5 c 128,-1,27
 386 448 386 448 315 448 c 0,28,29
 249 448 249 448 203.5 409.5 c 128,-1,30
 158 371 158 371 136 313.5 c 128,-1,31
 114 256 114 256 114 200 c 0,32,33
 114 127 114 127 152.5 82.5 c 128,-1,34
 191 38 191 38 261 38 c 0,35,22
 330 38 330 38 375.5 78.5 c 128,-1,23
EndSplineSet
EndChar
StartChar: summation
Encoding: 8721 8721 338
Width: 572
GlyphClass: 1
Flags: W
LayerCount: 2
Fore
SplineSet
-16 -105 m 1,0,-1
 312 260 l 1,1,-1
 135 611 l 1,2,-1
 148 668 l 1,3,-1
 602 668 l 1,4,-1
 590 611 l 1,5,-1
 197 611 l 1,6,-1
 375 253 l 1,7,-1
 56 -105 l 1,8,-1
 439 -105 l 1,9,-1
 426 -162 l 1,10,-1
 -28 -162 l 1,11,-1
 -16 -105 l 1,0,-1
EndSplineSet
EndChar
StartChar: radical
Encoding: 8730 8730 339
Width: 519
GlyphClass: 1
Flags: W
LayerCount: 2
Fore
SplineSet
131 171 m 1,0,-1
 42 171 l 1,1,-1
 54 225 l 1,2,-1
 178 225 l 1,3,-1
 229 -72 l 1,4,-1
 486 668 l 1,5,-1
 548 668 l 1,6,-1
 255 -162 l 1,7,-1
 186 -162 l 1,8,-1
 131 171 l 1,0,-1
EndSplineSet
EndChar
StartChar: infinity
Encoding: 8734 8734 335
Width: 785
GlyphClass: 1
Flags: W
LayerCount: 2
Fore
SplineSet
100.5 146 m 128,-1,1
 61 183 61 183 61 239 c 0,2,3
 61 282 61 282 82 319.5 c 128,-1,4
 103 357 103 357 141.5 379.5 c 128,-1,5
 180 402 180 402 229 402 c 0,6,7
 285 402 285 402 325 375 c 128,-1,8
 365 348 365 348 399 295 c 1,9,10
 453 352 453 352 498 377 c 128,-1,11
 543 402 543 402 591 402 c 0,12,13
 649 402 649 402 689 365 c 128,-1,14
 729 328 729 328 729 272 c 0,15,16
 729 229 729 229 707.5 191.5 c 128,-1,17
 686 154 686 154 647.5 131.5 c 128,-1,18
 609 109 609 109 560 109 c 0,19,20
 505 109 505 109 464.5 136 c 128,-1,21
 424 163 424 163 390 216 c 1,22,23
 336 160 336 160 291 134.5 c 128,-1,24
 246 109 246 109 198 109 c 0,25,0
 140 109 140 109 100.5 146 c 128,-1,1
275 181.5 m 128,-1,27
 311 203 311 203 362 257 c 1,28,29
 333 302 333 302 303 327 c 128,-1,30
 273 352 273 352 233 352 c 0,31,32
 183 352 183 352 147.5 320 c 128,-1,33
 112 288 112 288 112 244 c 0,34,35
 112 208 112 208 138 184 c 128,-1,36
 164 160 164 160 201 160 c 0,37,26
 239 160 239 160 275 181.5 c 128,-1,27
641.5 191 m 128,-1,39
 677 223 677 223 677 267 c 0,40,41
 677 303 677 303 651 327 c 128,-1,42
 625 351 625 351 588 351 c 0,43,44
 550 351 550 351 514 329.5 c 128,-1,45
 478 308 478 308 427 254 c 1,46,47
 456 209 456 209 486.5 184 c 128,-1,48
 517 159 517 159 556 159 c 0,49,38
 606 159 606 159 641.5 191 c 128,-1,39
EndSplineSet
EndChar
StartChar: integral
Encoding: 8747 8747 336
Width: 444
GlyphClass: 1
Flags: W
LayerCount: 2
Fore
SplineSet
3.5 -159.5 m 128,-1,1
 -19 -147 -19 -147 -19 -120 c 0,2,3
 -19 -101 -19 -101 -5 -87.5 c 128,-1,4
 9 -74 9 -74 30 -74 c 0,5,6
 50 -74 50 -74 62.5 -86 c 128,-1,7
 75 -98 75 -98 75 -117 c 0,8,9
 75 -130 75 -130 70 -139 c 1,10,11
 88 -137 88 -137 103 -114.5 c 128,-1,12
 118 -92 118 -92 128 -45 c 2,13,-1
 251 513 l 2,14,15
 272 609 272 609 306.5 645.5 c 128,-1,16
 341 682 341 682 391 682 c 0,17,18
 421 682 421 682 443.5 669 c 128,-1,19
 466 656 466 656 466 629 c 0,20,21
 466 611 466 611 452 597.5 c 128,-1,22
 438 584 438 584 417 584 c 0,23,24
 397 584 397 584 384.5 596 c 128,-1,25
 372 608 372 608 372 627 c 0,26,27
 372 640 372 640 377 649 c 1,28,29
 359 647 359 647 344 624.5 c 128,-1,30
 329 602 329 602 319 555 c 2,31,-1
 196 -3 l 2,32,33
 174 -99 174 -99 139.5 -135.5 c 128,-1,34
 105 -172 105 -172 56 -172 c 0,35,0
 26 -172 26 -172 3.5 -159.5 c 128,-1,1
EndSplineSet
EndChar
StartChar: approxequal
Encoding: 8776 8776 331
Width: 567
GlyphClass: 1
Flags: W
LayerCount: 2
Fore
SplineSet
66 194 m 128,-1,1
 102 224 102 224 155 224 c 0,2,3
 185 224 185 224 212 215 c 128,-1,4
 239 206 239 206 275 190 c 0,5,6
 309 175 309 175 332.5 167 c 128,-1,7
 356 159 356 159 380 159 c 0,8,9
 415 159 415 159 436.5 177 c 128,-1,10
 458 195 458 195 470 230 c 1,11,-1
 518 220 l 1,12,13
 502 168 502 168 466 138 c 128,-1,14
 430 108 430 108 377 108 c 0,15,16
 348 108 348 108 320.5 117 c 128,-1,17
 293 126 293 126 257 142 c 0,18,19
 223 157 223 157 199.5 165 c 128,-1,20
 176 173 176 173 152 173 c 0,21,22
 117 173 117 173 95.5 155 c 128,-1,23
 74 137 74 137 62 102 c 1,24,-1
 14 112 l 1,25,0
 30 164 30 164 66 194 c 128,-1,1
106.5 380.5 m 128,-1,27
 142 411 142 411 195 411 c 0,28,29
 225 411 225 411 252 402 c 128,-1,30
 279 393 279 393 315 377 c 0,31,32
 349 362 349 362 372.5 354 c 128,-1,33
 396 346 396 346 420 346 c 0,34,35
 455 346 455 346 476.5 364 c 128,-1,36
 498 382 498 382 510 417 c 1,37,-1
 558 406 l 1,38,39
 542 354 542 354 506 324 c 128,-1,40
 470 294 470 294 417 294 c 0,41,42
 388 294 388 294 360.5 303 c 128,-1,43
 333 312 333 312 297 328 c 0,44,45
 263 343 263 343 239.5 351 c 128,-1,46
 216 359 216 359 192 359 c 0,47,48
 157 359 157 359 135.5 341 c 128,-1,49
 114 323 114 323 102 288 c 1,50,-1
 54 299 l 1,51,26
 71 350 71 350 106.5 380.5 c 128,-1,27
EndSplineSet
EndChar
StartChar: notequal
Encoding: 8800 8800 325
Width: 628
GlyphClass: 1
Flags: W
LayerCount: 2
Fore
SplineSet
176 134 m 1,0,-1
 42 134 l 1,1,-1
 53 186 l 1,2,-1
 224 186 l 1,3,-1
 341 315 l 1,4,-1
 80 315 l 1,5,-1
 91 366 l 1,6,-1
 387 366 l 1,7,-1
 505 496 l 1,8,-1
 572 496 l 1,9,-1
 454 366 l 1,10,-1
 587 366 l 1,11,-1
 576 315 l 1,12,-1
 408 315 l 1,13,-1
 291 186 l 1,14,-1
 549 186 l 1,15,-1
 538 134 l 1,16,-1
 245 134 l 1,17,-1
 123 0 l 1,18,-1
 55 0 l 1,19,-1
 176 134 l 1,0,-1
EndSplineSet
EndChar
StartChar: lessequal
Encoding: 8804 8804 329
Width: 571
GlyphClass: 1
Flags: W
LayerCount: 2
Fore
SplineSet
63 266 m 1,0,-1
 74 318 l 1,1,-1
 562 484 l 1,2,-1
 548 418 l 1,3,-1
 147 288 l 1,4,-1
 493 159 l 1,5,-1
 481 101 l 1,6,-1
 63 266 l 1,0,-1
18 55 m 1,7,-1
 471 55 l 1,8,-1
 460 0 l 1,9,-1
 7 0 l 1,10,-1
 18 55 l 1,7,-1
EndSplineSet
EndChar
StartChar: greaterequal
Encoding: 8805 8805 328
Width: 571
GlyphClass: 1
Flags: W
LayerCount: 2
Fore
SplineSet
42 165 m 1,0,-1
 442 294 l 1,1,-1
 96 424 l 1,2,-1
 109 484 l 1,3,-1
 527 318 l 1,4,-1
 516 266 l 1,5,-1
 28 101 l 1,6,-1
 42 165 l 1,0,-1
18 55 m 1,7,-1
 471 55 l 1,8,-1
 460 0 l 1,9,-1
 7 0 l 1,10,-1
 18 55 l 1,7,-1
EndSplineSet
EndChar
StartChar: lozenge
Encoding: 9674 9674 343
Width: 539
GlyphClass: 1
Flags: W
LayerCount: 2
Fore
SplineSet
74 316 m 1,0,-1
 366 696 l 1,1,-1
 494 316 l 1,2,-1
 204 -64 l 1,3,-1
 74 316 l 1,0,-1
434 323 m 1,4,-1
 344 580 l 1,5,-1
 134 309 l 1,6,-1
 225 53 l 1,7,-1
 434 323 l 1,4,-1
EndSplineSet
EndChar
StartChar: musicalnote
Encoding: 9834 9834 296
Width: 632
GlyphClass: 1
Flags: W
LayerCount: 2
Fore
SplineSet
125.5 19.5 m 128,-1,1
 97 49 97 49 97 91 c 256,2,3
 97 133 97 133 126.5 163 c 128,-1,4
 156 193 156 193 198 193 c 0,5,6
 237 193 237 193 264 168 c 1,7,-1
 264 668 l 1,8,-1
 299 668 l 1,9,10
 302 635 302 635 316.5 609.5 c 128,-1,11
 331 584 331 584 354 562 c 128,-1,12
 377 540 377 540 419 506 c 0,13,14
 475 461 475 461 505 421 c 128,-1,15
 535 381 535 381 535 328 c 0,16,17
 535 307 535 307 524 279 c 128,-1,18
 513 251 513 251 490 222 c 1,19,-1
 487 223 l 1,20,21
 476 304 476 304 425 359.5 c 128,-1,22
 374 415 374 415 299 441 c 1,23,-1
 299 111 l 2,24,25
 299 53 299 53 270 21.5 c 128,-1,26
 241 -10 241 -10 195 -10 c 0,27,0
 154 -10 154 -10 125.5 19.5 c 128,-1,1
EndSplineSet
EndChar
StartChar: acutecomb.case
Encoding: 65553 -1 352
Width: 0
GlyphClass: 4
Flags: W
AnchorPoint: "Anchor-5" 193 855 basemark 0
AnchorPoint: "Anchor-5" 153 668 mark 0
AnchorPoint: "Anchor-1" 153 668 mark 0
LayerCount: 2
Fore
SplineSet
291 840 m 0,1,2
 301 840 301 840 308 834.5 c 128,-1,3
 315 829 315 829 315 820 c 0,4,5
 315 807 315 807 304.5 798 c 128,-1,6
 294 789 294 789 264 773 c 2,7,-1
 198 739 l 1,8,-1
 141 739 l 1,9,-1
 242 816 l 2,10,0
 271 840 271 840 291 840 c 0,1,2
EndSplineSet
EndChar
StartChar: gravecomb.case
Encoding: 65552 -1 350
Width: 0
GlyphClass: 4
Flags: W
AnchorPoint: "Anchor-5" 290 855 basemark 0
AnchorPoint: "Anchor-5" 250 668 mark 0
AnchorPoint: "Anchor-1" 250 668 mark 0
LayerCount: 2
Fore
SplineSet
165.5 795.5 m 128,-1,1
 158 805 158 805 158 815 c 256,2,3
 158 825 158 825 166 832.5 c 128,-1,4
 174 840 174 840 184 840 c 0,5,6
 192 840 192 840 199.5 834.5 c 128,-1,7
 207 829 207 829 219 816 c 2,8,-1
 286 739 l 1,9,-1
 242 739 l 1,10,-1
 192 773 l 2,11,0
 173 786 173 786 165.5 795.5 c 128,-1,1
EndSplineSet
EndChar
StartChar: one.tf
Encoding: 65540 -1 240
Width: 632
GlyphClass: 1
Flags: W
LayerCount: 2
Fore
SplineSet
79 50 m 1,0,-1
 259 50 l 1,1,-1
 362 532 l 1,2,-1
 180 532 l 1,3,-1
 188 572 l 1,4,-1
 221 572 l 2,5,6
 282 572 282 572 315 580 c 128,-1,7
 348 588 348 588 368 607.5 c 128,-1,8
 388 627 388 627 410 668 c 1,9,-1
 446 668 l 1,10,-1
 314 50 l 1,11,-1
 480 50 l 1,12,-1
 470 0 l 1,13,-1
 68 0 l 1,14,-1
 79 50 l 1,0,-1
EndSplineSet
Substitution2: "'pnum' Proportional Numbers in Latin lookup 9 subtable" one
AlternateSubs2: "'aalt' Access All Alternates in Latin lookup 0 subtable" one
EndChar
StartChar: uni0307.case
Encoding: 65550 -1 347
Width: 0
GlyphClass: 4
Flags: W
AnchorPoint: "Anchor-5" 204 826 basemark 0
AnchorPoint: "Anchor-5" 171 668 mark 0
AnchorPoint: "Anchor-1" 171 668 mark 0
LayerCount: 2
Fore
SplineSet
164 751.5 m 128,-1,1
 151 764 151 764 151 783 c 0,2,3
 151 801 151 801 164 813.5 c 128,-1,4
 177 826 177 826 195 826 c 0,5,6
 212 826 212 826 225 813.5 c 128,-1,7
 238 801 238 801 238 783 c 256,8,9
 238 765 238 765 225.5 752 c 128,-1,10
 213 739 213 739 195 739 c 256,11,0
 177 739 177 739 164 751.5 c 128,-1,1
EndSplineSet
EndChar
StartChar: uni0307.large
Encoding: 65551 -1 348
Width: 0
GlyphClass: 4
Flags: W
AnchorPoint: "Anchor-5" 179 694 basemark 0
AnchorPoint: "Anchor-5" 137 496 mark 0
AnchorPoint: "Anchor-1" 137 496 mark 0
LayerCount: 2
Fore
SplineSet
136.5 614.5 m 128,-1,1
 123 628 123 628 123 647 c 256,2,3
 123 666 123 666 136.5 679.5 c 128,-1,4
 150 693 150 693 169 693 c 0,5,6
 189 693 189 693 202 680 c 128,-1,7
 215 667 215 667 215 647 c 0,8,9
 215 628 215 628 201.5 614.5 c 128,-1,10
 188 601 188 601 169 601 c 256,11,0
 150 601 150 601 136.5 614.5 c 128,-1,1
EndSplineSet
EndChar
StartChar: uni030A.case
Encoding: 65559 -1 363
Width: 0
GlyphClass: 4
Flags: W
AnchorPoint: "Anchor-5" 260 835 basemark 0
AnchorPoint: "Anchor-5" 225 668 mark 0
AnchorPoint: "Anchor-1" 225 668 mark 0
LayerCount: 2
Fore
SplineSet
172 672 m 128,-1,1
 144 700 144 700 144 739 c 0,2,3
 144 779 144 779 172 807 c 128,-1,4
 200 835 200 835 240 835 c 0,5,6
 279 835 279 835 307.5 807 c 128,-1,7
 336 779 336 779 336 739 c 0,8,9
 336 700 336 700 307.5 672 c 128,-1,10
 279 644 279 644 240 644 c 0,11,0
 200 644 200 644 172 672 c 128,-1,1
279 701 m 128,-1,13
 295 717 295 717 295 739 c 0,14,15
 295 762 295 762 279 778 c 128,-1,16
 263 794 263 794 240 794 c 0,17,18
 218 794 218 794 201.5 778 c 128,-1,19
 185 762 185 762 185 739 c 0,20,21
 185 717 185 717 201 701 c 128,-1,22
 217 685 217 685 240 685 c 256,23,12
 263 685 263 685 279 701 c 128,-1,13
EndSplineSet
EndChar
StartChar: uni030C.alt
Encoding: 65555 -1 355
Width: 0
GlyphClass: 4
Flags: W
AnchorPoint: "Anchor-3" 73 496 mark 0
LayerCount: 2
Fore
SplineSet
167.5 706.5 m 128,-1,1
 179 718 179 718 196 718 c 0,2,3
 208 718 208 718 215 712.5 c 128,-1,4
 222 707 222 707 222 698 c 0,5,6
 222 690 222 690 216.5 678 c 128,-1,7
 211 666 211 666 202 651 c 2,8,-1
 139 540 l 1,9,-1
 99 540 l 1,10,-1
 147 670 l 2,11,0
 156 695 156 695 167.5 706.5 c 128,-1,1
EndSplineSet
EndChar
StartChar: uni0328.alt
Encoding: 65562 -1 372
Width: 0
GlyphClass: 4
Flags: W
AnchorPoint: "Anchor-2" 119 10 mark 0
LayerCount: 2
Fore
SplineSet
-13 -151 m 128,-1,1
 -36 -134 -36 -134 -36 -104 c 0,2,3
 -36 -66 -36 -66 -2.5 -28.5 c 128,-1,4
 31 9 31 9 73 26 c 1,5,-1
 104 22 l 1,6,7
 69 5 69 5 41.5 -25 c 128,-1,8
 14 -55 14 -55 14 -85 c 0,9,10
 14 -106 14 -106 28.5 -116 c 128,-1,11
 43 -126 43 -126 67 -126 c 0,12,13
 80 -126 80 -126 92 -122 c 1,14,-1
 82 -163 l 1,15,16
 65 -168 65 -168 49 -168 c 0,17,0
 10 -168 10 -168 -13 -151 c 128,-1,1
EndSplineSet
EndChar
StartChar: uni0328.case
Encoding: 65563 -1 373
Width: 0
GlyphClass: 4
Flags: W
AnchorPoint: "Anchor-2" 119 10 mark 0
LayerCount: 2
Fore
SplineSet
-11.5 -151 m 128,-1,1
 -36 -134 -36 -134 -36 -103 c 0,2,3
 -36 -64 -36 -64 -7.5 -37.5 c 128,-1,4
 21 -11 21 -11 67 10 c 1,5,-1
 117 0 l 1,6,7
 77 -11 77 -11 45 -35.5 c 128,-1,8
 13 -60 13 -60 13 -91 c 0,9,10
 13 -126 13 -126 64 -126 c 0,11,12
 76 -126 76 -126 90 -122 c 1,13,-1
 82 -163 l 1,14,15
 65 -168 65 -168 48 -168 c 0,16,0
 13 -168 13 -168 -11.5 -151 c 128,-1,1
EndSplineSet
EndChar
